SplineFontDB: 3.2
FontName: RageItalicLetPlain
FullName: Rage Italic LET Plain:1.0
FamilyName: Rage Italic LET
Weight: Thin
Copyright: COPYRIGHT ESSELTE LETRASET LTD., 1990 
Version: 1.0
ItalicAngle: 0
UnderlinePosition: -340
UnderlineWidth: 137
Ascent: 1638
Descent: 410
InvalidEm: 0
sfntRevision: 0x00010000
LayerCount: 2
Layer: 0 1 "Back" 1
Layer: 1 1 "Fore" 0
XUID: [1021 516 1881243911 5851384]
StyleMap: 0x0040
FSType: 0
OS2Version: 3
OS2_WeightWidthSlopeOnly: 0
OS2_UseTypoMetrics: 0
CreationTime: -10800
ModificationTime: 1536305479
PfmFamily: 81
TTFWeight: 5
TTFWidth: 5
LineGap: 0
VLineGap: 0
Panose: 0 0 0 0 0 0 0 0 0 0
OS2TypoAscent: 1313
OS2TypoAOffset: 0
OS2TypoDescent: -1024
OS2TypoDOffset: 0
OS2TypoLinegap: 0
OS2WinAscent: 1550
OS2WinAOffset: 0
OS2WinDescent: 841
OS2WinDOffset: 0
HheadAscent: 1313
HheadAOffset: 0
HheadDescent: -1024
HheadDOffset: 0
OS2SubXSize: 1434
OS2SubYSize: 1331
OS2SubXOff: 0
OS2SubYOff: 293
OS2SupXSize: 1434
OS2SupYSize: 1331
OS2SupXOff: 0
OS2SupYOff: 928
OS2StrikeYSize: 102
OS2StrikeYPos: 530
OS2CapHeight: 1444
OS2XHeight: 694
OS2Vendor: 'ALTS'
OS2CodePages: 20000005.00000000
OS2UnicodeRanges: 800002af.10002048.00000000.00000000
Lookup: 258 0 0 "'kern' Horizontal Kerning lookup 0" { "'kern' Horizontal Kerning lookup 0 subtable"  } ['kern' ('DFLT' <'dflt' > ) ]
DEI: 91125
TtTable: prep
PUSHW_1
 40
CALL
SVTCA[x-axis]
PUSHW_3
 6
 166
 42
CALL
SVTCA[y-axis]
PUSHW_8
 167
 275
 225
 175
 125
 75
 0
 48
CALL
PUSHW_8
 168
 102
 80
 62
 45
 27
 0
 48
CALL
PUSHW_8
 169
 98
 80
 62
 45
 27
 0
 48
CALL
PUSHW_8
 170
 96
 80
 62
 45
 27
 0
 48
CALL
PUSHW_8
 171
 92
 80
 62
 45
 27
 0
 48
CALL
SVTCA[y-axis]
PUSHW_3
 172
 4
 47
CALL
PUSHW_1
 166
DUP
RCVT
RDTG
ROUND[Black]
RTG
WCVTP
PUSHW_1
 30
CALL
SVTCA[x-axis]
PUSHW_3
 6
 152
 32
CALL
SVTCA[y-axis]
PUSHW_8
 153
 275
 225
 175
 125
 75
 0
 38
CALL
PUSHW_8
 154
 114
 94
 65
 47
 28
 0
 38
CALL
PUSHW_8
 155
 102
 80
 65
 47
 28
 0
 38
CALL
PUSHW_8
 156
 98
 80
 65
 47
 28
 0
 38
CALL
PUSHW_8
 157
 92

StartChar: .notdef
Encoding: 65536 -1 0
Width: 1024
Flags: W
LayerCount: 2
Fore
SplineSet
82 1365 m 1,0,-1
 942 1365 l 1,1,-1
 942 0 l 1,2,-1
 82 0 l 1,3,-1
 82 1365 l 1,0,-1
123 1324 m 1,4,-1
 123 41 l 1,5,-1
 901 41 l 1,6,-1
 901 1324 l 1,7,-1
 123 1324 l 1,4,-1
EndSplineSet
EndChar

StartChar: exclam
Encoding: 33 33 5
Width: 626
Flags: W
LayerCount: 2
Fore
SplineSet
443 955 m 1,0,-1
 457 964 l 1,1,-1
 459 987 l 1,2,-1
 473 1019 l 1,3,-1
 492 1043 l 1,4,-1
 503 1079 l 1,5,-1
 523 1101 l 1,6,-1
 536 1142 l 1,7,-1
 542 1151 l 1,8,-1
 548 1155 l 1,9,-1
 570 1165 l 1,10,-1
 565 1179 l 1,11,-1
 565 1181 l 1,12,-1
 569 1190 l 1,13,-1
 605 1255 l 1,14,-1
 626 1315 l 1,15,-1
 639 1337 l 1,16,-1
 656 1349 l 1,17,-1
 673 1353 l 1,18,-1
 690 1349 l 1,19,-1
 718 1320 l 1,20,-1
 738 1286 l 1,21,-1
 763 1219 l 1,22,-1
 760 1201 l 1,23,-1
 749 1180 l 1,24,-1
 685 1099 l 1,25,-1
 647 1036 l 1,26,-1
 633 992 l 1,27,-1
 632 990 l 1,28,-1
 606 966 l 1,29,-1
 586 921 l 1,30,-1
 541 852 l 1,31,-1
 531 822 l 1,32,-1
 520 807 l 1,33,-1
 490 710 l 1,34,-1
 479 700 l 1,35,-1
 475 676 l 1,36,-1
 463 667 l 1,37,-1
 461 637 l 1,38,-1
 438 586 l 1,39,-1
 413 434 l 1,40,-1
 393 411 l 1,41,-1
 381 398 l 1,42,-1
 371 395 l 1,43,-1
 366 396 l 1,44,-1
 361 398 l 1,45,-1
 331 423 l 1,46,-1
 310 434 l 1,47,-1
 283 472 l 1,48,-1
 271 518 l 1,49,-1
 276 561 l 1,50,-1
 320 669 l 1,51,-1
 356 772 l 1,52,-1
 428 913 l 1,53,-1
 443 955 l 1,0,-1
179 199 m 1,54,-1
 177 207 l 1,55,-1
 178 213 l 1,56,-1
 180 218 l 1,57,-1
 207 265 l 1,58,-1
 222 294 l 1,59,-1
 234 305 l 1,60,-1
 244 318 l 1,61,-1
 272 323 l 1,62,-1
 284 326 l 1,63,-1
 296 328 l 1,64,-1
 307 326 l 1,65,-1
 345 298 l 1,66,-1
 350 293 l 1,67,-1
 368 255 l 1,68,-1
 382 229 l 1,69,-1
 382 224 l 1,70,-1
 382 219 l 1,71,-1
 381 217 l 1,72,-1
 365 195 l 1,73,-1
 356 174 l 1,74,-1
 336 107 l 1,75,-1
 323 98 l 1,76,-1
 291 90 l 1,77,-1
 275 92 l 1,78,-1
 262 98 l 1,79,-1
 249 107 l 1,80,-1
 223 115 l 1,81,-1
 194 171 l 1,82,-1
 179 199 l 1,54,-1
EndSplineSet
EndChar

StartChar: quotedbl
Encoding: 34 34 6
Width: 570
Flags: W
LayerCount: 2
Fore
SplineSet
483 1164 m 1,0,-1
 485 1211 l 1,1,-1
 503 1254 l 1,2,-1
 520 1280 l 1,3,-1
 533 1297 l 1,4,-1
 559 1311 l 1,5,-1
 587 1320 l 1,6,-1
 605 1316 l 1,7,-1
 621 1305 l 1,8,-1
 639 1285 l 1,9,-1
 661 1242 l 1,10,-1
 666 1209 l 1,11,-1
 662 1182 l 1,12,-1
 651 1152 l 1,13,-1
 629 1106 l 1,14,-1
 599 1066 l 1,15,-1
 575 1025 l 1,16,-1
 567 1015 l 1,17,-1
 537 980 l 1,18,-1
 521 963 l 1,19,-1
 507 958 l 1,20,-1
 502 959 l 1,21,-1
 481 970 l 1,22,-1
 480 986 l 1,23,-1
 481 1020 l 1,24,-1
 482 1063 l 1,25,-1
 482 1135 l 1,26,-1
 483 1164 l 1,0,-1
249 1164 m 1,27,-1
 251 1211 l 1,28,-1
 269 1254 l 1,29,-1
 286 1280 l 1,30,-1
 299 1297 l 1,31,-1
 325 1311 l 1,32,-1
 353 1320 l 1,33,-1
 371 1316 l 1,34,-1
 387 1305 l 1,35,-1
 405 1285 l 1,36,-1
 427 1242 l 1,37,-1
 432 1209 l 1,38,-1
 428 1182 l 1,39,-1
 417 1152 l 1,40,-1
 395 1106 l 1,41,-1
 365 1066 l 1,42,-1
 341 1025 l 1,43,-1
 333 1015 l 1,44,-1
 303 980 l 1,45,-1
 287 963 l 1,46,-1
 273 958 l 1,47,-1
 268 959 l 1,48,-1
 247 970 l 1,49,-1
 246 986 l 1,50,-1
 247 1020 l 1,51,-1
 248 1063 l 1,52,-1
 248 1135 l 1,53,-1
 249 1164 l 1,27,-1
EndSplineSet
EndChar

StartChar: numbersign
Encoding: 35 35 7
Width: 1438
Flags: W
LayerCount: 2
Fore
SplineSet
848 1347 m 1,0,-1
 869 1353 l 1,1,-1
 892 1348 l 1,2,-1
 954 1319 l 1,3,-1
 983 1282 l 1,4,-1
 994 1238 l 1,5,-1
 992 1220 l 1,6,-1
 988 1199 l 1,7,-1
 988 1180 l 1,8,-1
 977 1157 l 1,9,-1
 971 1128 l 1,10,-1
 937 1065 l 1,11,-1
 922 1028 l 1,12,-1
 859 935 l 1,13,-1
 851 913 l 1,14,-1
 836 909 l 1,15,-1
 836 886 l 1,16,-1
 825 865 l 1,17,-1
 787 832 l 1,18,-1
 836 847 l 1,19,-1
 934 868 l 1,20,-1
 992 880 l 1,21,-1
 1013 884 l 1,22,-1
 1023 903 l 1,23,-1
 1027 923 l 1,24,-1
 1049 943 l 1,25,-1
 1058 965 l 1,26,-1
 1071 985 l 1,27,-1
 1082 1017 l 1,28,-1
 1102 1054 l 1,29,-1
 1112 1082 l 1,30,-1
 1123 1099 l 1,31,-1
 1137 1115 l 1,32,-1
 1138 1135 l 1,33,-1
 1157 1153 l 1,34,-1
 1157 1184 l 1,35,-1
 1162 1197 l 1,36,-1
 1177 1200 l 1,37,-1
 1182 1204 l 1,38,-1
 1184 1210 l 1,39,-1
 1185 1245 l 1,40,-1
 1199 1271 l 1,41,-1
 1219 1347 l 1,42,-1
 1225 1396 l 1,43,-1
 1230 1407 l 1,44,-1
 1247 1423 l 1,45,-1
 1281 1432 l 1,46,-1
 1304 1426 l 1,47,-1
 1335 1393 l 1,48,-1
 1342 1381 l 1,49,-1
 1349 1348 l 1,50,-1
 1322 1240 l 1,51,-1
 1296 1191 l 1,52,-1
 1284 1169 l 1,53,-1
 1270 1169 l 1,54,-1
 1271 1141 l 1,55,-1
 1259 1130 l 1,56,-1
 1260 1115 l 1,57,-1
 1257 1102 l 1,58,-1
 1247 1086 l 1,59,-1
 1230 1069 l 1,60,-1
 1228 1048 l 1,61,-1
 1210 1012 l 1,62,-1
 1204 987 l 1,63,-1
 1175 935 l 1,64,-1
 1168 904 l 1,65,-1
 1227 901 l 1,66,-1
 1263 902 l 1,67,-1
 1267 902 l 1,68,-1
 1298 896 l 1,69,-1
 1320 894 l 1,70,-1
 1324 882 l 1,71,-1
 1344 878 l 1,72,-1
 1353 868 l 1,73,-1
 1357 848 l 1,74,-1
 1350 820 l 1,75,-1
 1345 814 l 1,76,-1
 1318 794 l 1,77,-1
 1300 781 l 1,78,-1
 1292 777 l 1,79,-1
 1283 775 l 1,80,-1
 1275 778 l 1,81,-1
 1250 789 l 1,82,-1
 1218 787 l 1,83,-1
 1197 795 l 1,84,-1
 1179 792 l 1,85,-1
 1132 794 l 1,86,-1
 1113 785 l 1,87,-1
 1095 785 l 1,88,-1
 1080 750 l 1,89,-1
 1041 676 l 1,90,-1
 1099 673 l 1,91,-1
 1135 674 l 1,92,-1
 1139 674 l 1,93,-1
 1170 668 l 1,94,-1
 1192 666 l 1,95,-1
 1196 654 l 1,96,-1
 1216 650 l 1,97,-1
 1225 640 l 1,98,-1
 1229 620 l 1,99,-1
 1222 592 l 1,100,-1
 1217 586 l 1,101,-1
 1190 566 l 1,102,-1
 1172 553 l 1,103,-1
 1164 549 l 1,104,-1
 1155 547 l 1,105,-1
 1147 550 l 1,106,-1
 1122 561 l 1,107,-1
 1090 559 l 1,108,-1
 1069 567 l 1,109,-1
 1051 564 l 1,110,-1
 1004 566 l 1,111,-1
 985 557 l 1,112,-1
 982 557 l 1,113,-1
 977 530 l 1,114,-1
 956 516 l 1,115,-1
 950 509 l 1,116,-1
 942 480 l 1,117,-1
 937 454 l 1,118,-1
 926 429 l 1,119,-1
 916 403 l 1,120,-1
 906 392 l 1,121,-1
 889 362 l 1,122,-1
 862 335 l 1,123,-1
 868 313 l 1,124,-1
 868 308 l 1,125,-1
 867 299 l 1,126,-1
 865 295 l 1,127,-1
 847 282 l 1,128,-1
 846 258 l 1,129,-1
 827 249 l 1,130,-1
 832 229 l 1,131,-1
 832 226 l 1,132,-1
 831 219 l 1,133,-1
 829 215 l 1,134,-1
 808 201 l 1,135,-1
 818 177 l 1,136,-1
 810 132 l 1,137,-1
 826 110 l 1,138,-1
 826 88 l 1,139,-1
 838 75 l 1,140,-1
 840 72 l 1,141,-1
 832 50 l 1,142,-1
 823 34 l 1,143,-1
 809 26 l 1,144,-1
 776 19 l 1,145,-1
 745 25 l 1,146,-1
 708 47 l 1,147,-1
 699 67 l 1,148,-1
 680 92 l 1,149,-1
 679 95 l 1,150,-1
 672 153 l 1,151,-1
 674 187 l 1,152,-1
 678 221 l 1,153,-1
 678 223 l 1,154,-1
 676 261 l 1,155,-1
 683 286 l 1,156,-1
 675 333 l 1,157,-1
 667 385 l 1,158,-1
 649 417 l 1,159,-1
 648 429 l 1,160,-1
 648 436 l 1,161,-1
 659 455 l 1,162,-1
 638 462 l 1,163,-1
 628 467 l 1,164,-1
 624 471 l 1,165,-1
 619 479 l 1,166,-1
 599 477 l 1,167,-1
 591 463 l 1,168,-1
 588 462 l 1,169,-1
 587 453 l 1,170,-1
 561 429 l 1,171,-1
 561 408 l 1,172,-1
 552 393 l 1,173,-1
 544 366 l 1,174,-1
 511 331 l 1,175,-1
 510 310 l 1,176,-1
 489 247 l 1,177,-1
 478 219 l 1,178,-1
 458 202 l 1,179,-1
 462 169 l 1,180,-1
 459 163 l 1,181,-1
 453 159 l 1,182,-1
 430 153 l 1,183,-1
 437 123 l 1,184,-1
 418 103 l 1,185,-1
 425 66 l 1,186,-1
 404 39 l 1,187,-1
 406 -3 l 1,188,-1
 400 -17 l 1,189,-1
 387 -29 l 1,190,-1
 376 -33 l 1,191,-1
 365 -30 l 1,192,-1
 350 -18 l 1,193,-1
 304 34 l 1,194,-1
 294 49 l 1,195,-1
 277 106 l 1,196,-1
 281 147 l 1,197,-1
 289 198 l 1,198,-1
 309 238 l 1,199,-1
 321 268 l 1,200,-1
 346 308 l 1,201,-1
 381 393 l 1,202,-1
 370 390 l 1,203,-1
 367 396 l 1,204,-1
 344 392 l 1,205,-1
 272 380 l 1,206,-1
 266 381 l 1,207,-1
 233 394 l 1,208,-1
 240 414 l 1,209,-1
 246 425 l 1,210,-1
 250 428 l 1,211,-1
 292 455 l 1,212,-1
 306 465 l 1,213,-1
 363 484 l 1,214,-1
 394 506 l 1,215,-1
 423 510 l 1,216,-1
 436 517 l 1,217,-1
 446 516 l 1,218,-1
 456 529 l 1,219,-1
 491 589 l 1,220,-1
 504 606 l 1,221,-1
 495 624 l 1,222,-1
 472 620 l 1,223,-1
 400 608 l 1,224,-1
 394 609 l 1,225,-1
 361 622 l 1,226,-1
 368 642 l 1,227,-1
 374 653 l 1,228,-1
 378 656 l 1,229,-1
 420 683 l 1,230,-1
 434 693 l 1,231,-1
 491 712 l 1,232,-1
 522 734 l 1,233,-1
 551 738 l 1,234,-1
 564 745 l 1,235,-1
 574 744 l 1,236,-1
 587 760 l 1,237,-1
 609 789 l 1,238,-1
 611 794 l 1,239,-1
 616 817 l 1,240,-1
 651 858 l 1,241,-1
 658 888 l 1,242,-1
 677 909 l 1,243,-1
 703 961 l 1,244,-1
 719 979 l 1,245,-1
 739 1018 l 1,246,-1
 792 1100 l 1,247,-1
 804 1129 l 1,248,-1
 821 1154 l 1,249,-1
 836 1192 l 1,250,-1
 859 1236 l 1,251,-1
 858 1267 l 1,252,-1
 832 1264 l 1,253,-1
 775 1255 l 1,254,-1
 755 1254 l 1,255,-1
 729 1243 l 1,256,-1
 709 1239 l 1,257,-1
 663 1216 l 1,258,-1
 628 1213 l 1,259,-1
 607 1197 l 1,260,-1
 574 1187 l 1,261,-1
 565 1171 l 1,262,-1
 536 1169 l 1,263,-1
 514 1143 l 1,264,-1
 471 1120 l 1,265,-1
 457 1106 l 1,266,-1
 437 1101 l 1,267,-1
 421 1080 l 1,268,-1
 396 1051 l 1,269,-1
 370 1010 l 1,270,-1
 350 989 l 1,271,-1
 327 982 l 1,272,-1
 314 961 l 1,273,-1
 285 962 l 1,274,-1
 261 975 l 1,275,-1
 239 1002 l 1,276,-1
 232 1031 l 1,277,-1
 235 1051 l 1,278,-1
 251 1078 l 1,279,-1
 263 1088 l 1,280,-1
 347 1134 l 1,281,-1
 392 1160 l 1,282,-1
 417 1165 l 1,283,-1
 613 1278 l 1,284,-1
 640 1281 l 1,285,-1
 700 1312 l 1,286,-1
 724 1315 l 1,287,-1
 796 1340 l 1,288,-1
 848 1347 l 1,0,-1
727 705 m 1,289,-1
 685 631 l 1,290,-1
 668 607 l 1,291,-1
 708 619 l 1,292,-1
 806 640 l 1,293,-1
 864 652 l 1,294,-1
 883 655 l 1,295,-1
 900 693 l 1,296,-1
 918 706 l 1,297,-1
 921 728 l 1,298,-1
 937 760 l 1,299,-1
 916 765 l 1,300,-1
 889 757 l 1,301,-1
 863 761 l 1,302,-1
 848 756 l 1,303,-1
 834 737 l 1,304,-1
 828 730 l 1,305,-1
 821 727 l 1,306,-1
 788 721 l 1,307,-1
 763 710 l 1,308,-1
 749 707 l 1,309,-1
 727 705 l 1,289,-1
807 528 m 1,310,-1
 809 532 l 1,311,-1
 788 537 l 1,312,-1
 761 529 l 1,313,-1
 735 533 l 1,314,-1
 720 528 l 1,315,-1
 706 509 l 1,316,-1
 700 502 l 1,317,-1
 701 502 l 1,318,-1
 715 472 l 1,319,-1
 739 402 l 1,320,-1
 750 383 l 1,321,-1
 757 405 l 1,322,-1
 799 504 l 1,323,-1
 806 519 l 1,324,-1
 820 529 l 1,325,-1
 807 528 l 1,310,-1
EndSplineSet
EndChar

StartChar: dollar
Encoding: 36 36 8
Width: 1103
Flags: W
LayerCount: 2
Fore
SplineSet
574 998 m 1,0,-1
 567 975 l 1,1,-1
 584 980 l 1,2,-1
 621 984 l 1,3,-1
 627 984 l 1,4,-1
 664 981 l 1,5,-1
 672 1002 l 1,6,-1
 712 1084 l 1,7,-1
 718 1100 l 1,8,-1
 739 1118 l 1,9,-1
 740 1136 l 1,10,-1
 770 1184 l 1,11,-1
 772 1207 l 1,12,-1
 751 1196 l 1,13,-1
 707 1192 l 1,14,-1
 644 1166 l 1,15,-1
 632 1157 l 1,16,-1
 623 1105 l 1,17,-1
 574 998 l 1,0,-1
457 358 m 1,18,-1
 447 336 l 1,19,-1
 465 342 l 1,20,-1
 508 359 l 1,21,-1
 525 364 l 1,22,-1
 549 388 l 1,23,-1
 569 390 l 1,24,-1
 635 417 l 1,25,-1
 697 463 l 1,26,-1
 735 495 l 1,27,-1
 769 529 l 1,28,-1
 782 552 l 1,29,-1
 817 581 l 1,30,-1
 827 595 l 1,31,-1
 831 606 l 1,32,-1
 836 626 l 1,33,-1
 856 659 l 1,34,-1
 868 697 l 1,35,-1
 870 732 l 1,36,-1
 871 756 l 1,37,-1
 867 772 l 1,38,-1
 846 791 l 1,39,-1
 793 810 l 1,40,-1
 733 825 l 1,41,-1
 732 825 l 1,42,-1
 687 822 l 1,43,-1
 660 823 l 1,44,-1
 649 793 l 1,45,-1
 573 634 l 1,46,-1
 552 566 l 1,47,-1
 511 464 l 1,48,-1
 504 439 l 1,49,-1
 502 436 l 1,50,-1
 489 426 l 1,51,-1
 475 391 l 1,52,-1
 457 358 l 1,18,-1
452 962 m 1,53,-1
 475 963 l 1,54,-1
 489 985 l 1,55,-1
 509 1010 l 1,56,-1
 520 1048 l 1,57,-1
 554 1086 l 1,58,-1
 561 1102 l 1,59,-1
 560 1127 l 1,60,-1
 533 1119 l 1,61,-1
 507 1112 l 1,62,-1
 437 1069 l 1,63,-1
 395 1045 l 1,64,-1
 352 1001 l 1,65,-1
 343 979 l 1,66,-1
 345 974 l 1,67,-1
 349 970 l 1,68,-1
 373 962 l 1,69,-1
 406 957 l 1,70,-1
 416 958 l 1,71,-1
 452 962 l 1,53,-1
284 315 m 1,72,-1
 274 290 l 1,73,-1
 304 289 l 1,74,-1
 321 300 l 1,75,-1
 357 305 l 1,76,-1
 366 326 l 1,77,-1
 417 425 l 1,78,-1
 459 520 l 1,79,-1
 484 586 l 1,80,-1
 493 625 l 1,81,-1
 530 683 l 1,82,-1
 577 801 l 1,83,-1
 594 831 l 1,84,-1
 565 833 l 1,85,-1
 537 831 l 1,86,-1
 508 831 l 1,87,-1
 493 801 l 1,88,-1
 466 776 l 1,89,-1
 464 773 l 1,90,-1
 456 726 l 1,91,-1
 378 571 l 1,92,-1
 329 432 l 1,93,-1
 321 413 l 1,94,-1
 325 405 l 1,95,-1
 308 372 l 1,96,-1
 293 362 l 1,97,-1
 292 324 l 1,98,-1
 284 315 l 1,72,-1
-136 276 m 1,99,-1
 -137 283 l 1,100,-1
 -121 280 l 1,101,-1
 -90 266 l 1,102,-1
 -76 272 l 1,103,-1
 -66 274 l 1,104,-1
 -51 259 l 1,105,-1
 -37 252 l 1,106,-1
 -24 257 l 1,107,-1
 -1 250 l 1,108,-1
 27 246 l 1,109,-1
 35 247 l 1,110,-1
 73 251 l 1,111,-1
 117 248 l 1,112,-1
 140 250 l 1,113,-1
 147 271 l 1,114,-1
 177 337 l 1,115,-1
 199 371 l 1,116,-1
 211 413 l 1,117,-1
 274 522 l 1,118,-1
 281 554 l 1,119,-1
 300 590 l 1,120,-1
 321 620 l 1,121,-1
 343 674 l 1,122,-1
 347 697 l 1,123,-1
 360 714 l 1,124,-1
 379 739 l 1,125,-1
 387 762 l 1,126,-1
 398 785 l 1,127,-1
 403 801 l 1,128,-1
 412 828 l 1,129,-1
 358 834 l 1,130,-1
 323 845 l 1,131,-1
 269 922 l 1,132,-1
 247 983 l 1,133,-1
 244 1011 l 1,134,-1
 251 1054 l 1,135,-1
 267 1076 l 1,136,-1
 316 1121 l 1,137,-1
 335 1147 l 1,138,-1
 387 1175 l 1,139,-1
 400 1192 l 1,140,-1
 427 1190 l 1,141,-1
 446 1210 l 1,142,-1
 460 1218 l 1,143,-1
 603 1270 l 1,144,-1
 625 1281 l 1,145,-1
 654 1287 l 1,146,-1
 664 1305 l 1,147,-1
 697 1345 l 1,148,-1
 708 1391 l 1,149,-1
 742 1417 l 1,150,-1
 742 1445 l 1,151,-1
 750 1464 l 1,152,-1
 755 1468 l 1,153,-1
 762 1470 l 1,154,-1
 769 1468 l 1,155,-1
 785 1453 l 1,156,-1
 790 1436 l 1,157,-1
 788 1428 l 1,158,-1
 779 1403 l 1,159,-1
 776 1382 l 1,160,-1
 763 1356 l 1,161,-1
 750 1337 l 1,162,-1
 731 1327 l 1,163,-1
 721 1322 l 1,164,-1
 719 1320 l 1,165,-1
 716 1310 l 1,166,-1
 726 1305 l 1,167,-1
 742 1307 l 1,168,-1
 793 1308 l 1,169,-1
 816 1312 l 1,170,-1
 830 1333 l 1,171,-1
 847 1358 l 1,172,-1
 848 1361 l 1,173,-1
 851 1388 l 1,174,-1
 879 1423 l 1,175,-1
 890 1454 l 1,176,-1
 905 1474 l 1,177,-1
 914 1494 l 1,178,-1
 955 1487 l 1,179,-1
 960 1453 l 1,180,-1
 957 1435 l 1,181,-1
 931 1378 l 1,182,-1
 912 1330 l 1,183,-1
 902 1306 l 1,184,-1
 914 1302 l 1,185,-1
 941 1299 l 1,186,-1
 965 1294 l 1,187,-1
 971 1279 l 1,188,-1
 992 1252 l 1,189,-1
 999 1239 l 1,190,-1
 1002 1219 l 1,191,-1
 999 1198 l 1,192,-1
 989 1162 l 1,193,-1
 983 1128 l 1,194,-1
 970 1110 l 1,195,-1
 962 1104 l 1,196,-1
 956 1103 l 1,197,-1
 952 1104 l 1,198,-1
 933 1126 l 1,199,-1
 924 1157 l 1,200,-1
 926 1172 l 1,201,-1
 930 1179 l 1,202,-1
 950 1198 l 1,203,-1
 930 1217 l 1,204,-1
 893 1223 l 1,205,-1
 857 1220 l 1,206,-1
 834 1215 l 1,207,-1
 826 1195 l 1,208,-1
 814 1166 l 1,209,-1
 789 1146 l 1,210,-1
 791 1123 l 1,211,-1
 789 1101 l 1,212,-1
 771 1081 l 1,213,-1
 759 1043 l 1,214,-1
 743 998 l 1,215,-1
 737 976 l 1,216,-1
 759 967 l 1,217,-1
 845 931 l 1,218,-1
 858 921 l 1,219,-1
 879 896 l 1,220,-1
 904 851 l 1,221,-1
 913 826 l 1,222,-1
 925 799 l 1,223,-1
 928 764 l 1,224,-1
 933 740 l 1,225,-1
 938 656 l 1,226,-1
 938 640 l 1,227,-1
 933 620 l 1,228,-1
 934 578 l 1,229,-1
 917 551 l 1,230,-1
 904 513 l 1,231,-1
 890 498 l 1,232,-1
 871 451 l 1,233,-1
 852 431 l 1,234,-1
 838 408 l 1,235,-1
 790 367 l 1,236,-1
 774 349 l 1,237,-1
 740 329 l 1,238,-1
 703 299 l 1,239,-1
 655 276 l 1,240,-1
 606 247 l 1,241,-1
 573 236 l 1,242,-1
 541 218 l 1,243,-1
 487 200 l 1,244,-1
 410 179 l 1,245,-1
 385 178 l 1,246,-1
 374 158 l 1,247,-1
 355 114 l 1,248,-1
 344 96 l 1,249,-1
 335 77 l 1,250,-1
 313 69 l 1,251,-1
 305 72 l 1,252,-1
 300 76 l 1,253,-1
 288 124 l 1,254,-1
 286 145 l 1,255,-1
 256 148 l 1,256,-1
 213 140 l 1,257,-1
 189 139 l 1,258,-1
 170 114 l 1,259,-1
 153 89 l 1,260,-1
 143 58 l 1,261,-1
 142 55 l 1,262,-1
 129 47 l 1,263,-1
 116 44 l 1,264,-1
 106 46 l 1,265,-1
 94 58 l 1,266,-1
 67 98 l 1,267,-1
 71 123 l 1,268,-1
 48 136 l 1,269,-1
 21 136 l 1,270,-1
 -7 147 l 1,271,-1
 -62 172 l 1,272,-1
 -74 180 l 1,273,-1
 -85 192 l 1,274,-1
 -112 234 l 1,275,-1
 -136 276 l 1,99,-1
EndSplineSet
EndChar

StartChar: percent
Encoding: 37 37 9
Width: 886
Flags: W
LayerCount: 2
Fore
SplineSet
438 258 m 1,0,-1
 441 227 l 1,1,-1
 465 239 l 1,2,-1
 519 275 l 1,3,-1
 550 312 l 1,4,-1
 568 340 l 1,5,-1
 583 354 l 1,6,-1
 601 395 l 1,7,-1
 599 398 l 1,8,-1
 590 396 l 1,9,-1
 576 414 l 1,10,-1
 569 430 l 1,11,-1
 567 439 l 1,12,-1
 569 448 l 1,13,-1
 587 475 l 1,14,-1
 600 491 l 1,15,-1
 579 480 l 1,16,-1
 530 407 l 1,17,-1
 504 401 l 1,18,-1
 494 383 l 1,19,-1
 477 350 l 1,20,-1
 469 320 l 1,21,-1
 463 297 l 1,22,-1
 443 290 l 1,23,-1
 439 284 l 1,24,-1
 437 267 l 1,25,-1
 438 258 l 1,0,-1
256 952 m 1,26,-1
 241 935 l 1,27,-1
 262 941 l 1,28,-1
 297 956 l 1,29,-1
 374 1007 l 1,30,-1
 391 1021 l 1,31,-1
 413 1032 l 1,32,-1
 430 1053 l 1,33,-1
 494 1094 l 1,34,-1
 512 1115 l 1,35,-1
 546 1122 l 1,36,-1
 547 1144 l 1,37,-1
 511 1140 l 1,38,-1
 463 1126 l 1,39,-1
 437 1102 l 1,40,-1
 419 1107 l 1,41,-1
 405 1090 l 1,42,-1
 389 1070 l 1,43,-1
 370 1067 l 1,44,-1
 356 1043 l 1,45,-1
 283 982 l 1,46,-1
 256 952 l 1,26,-1
357 272 m 1,47,-1
 356 290 l 1,48,-1
 366 308 l 1,49,-1
 413 375 l 1,50,-1
 426 401 l 1,51,-1
 517 488 l 1,52,-1
 531 505 l 1,53,-1
 551 514 l 1,54,-1
 607 561 l 1,55,-1
 632 567 l 1,56,-1
 643 575 l 1,57,-1
 653 574 l 1,58,-1
 655 554 l 1,59,-1
 647 537 l 1,60,-1
 636 515 l 1,61,-1
 692 535 l 1,62,-1
 720 485 l 1,63,-1
 727 467 l 1,64,-1
 735 434 l 1,65,-1
 739 410 l 1,66,-1
 725 394 l 1,67,-1
 718 372 l 1,68,-1
 689 346 l 1,69,-1
 669 301 l 1,70,-1
 633 263 l 1,71,-1
 618 257 l 1,72,-1
 597 232 l 1,73,-1
 579 218 l 1,74,-1
 561 200 l 1,75,-1
 537 194 l 1,76,-1
 520 180 l 1,77,-1
 508 170 l 1,78,-1
 479 158 l 1,79,-1
 463 148 l 1,80,-1
 459 147 l 1,81,-1
 441 151 l 1,82,-1
 417 157 l 1,83,-1
 404 171 l 1,84,-1
 381 207 l 1,85,-1
 360 253 l 1,86,-1
 357 272 l 1,47,-1
264 484 m 1,87,-1
 268 500 l 1,88,-1
 286 512 l 1,89,-1
 303 536 l 1,90,-1
 315 566 l 1,91,-1
 338 592 l 1,92,-1
 350 614 l 1,93,-1
 381 643 l 1,94,-1
 440 722 l 1,95,-1
 455 738 l 1,96,-1
 470 744 l 1,97,-1
 468 768 l 1,98,-1
 487 785 l 1,99,-1
 516 824 l 1,100,-1
 558 870 l 1,101,-1
 566 887 l 1,102,-1
 568 888 l 1,103,-1
 584 889 l 1,104,-1
 609 925 l 1,105,-1
 617 946 l 1,106,-1
 651 990 l 1,107,-1
 693 1029 l 1,108,-1
 713 1042 l 1,109,-1
 721 1072 l 1,110,-1
 771 1121 l 1,111,-1
 839 1190 l 1,112,-1
 863 1207 l 1,113,-1
 877 1223 l 1,114,-1
 890 1243 l 1,115,-1
 872 1256 l 1,116,-1
 866 1258 l 1,117,-1
 854 1234 l 1,118,-1
 835 1232 l 1,119,-1
 828 1217 l 1,120,-1
 815 1208 l 1,121,-1
 809 1195 l 1,122,-1
 788 1196 l 1,123,-1
 769 1189 l 1,124,-1
 745 1166 l 1,125,-1
 734 1144 l 1,126,-1
 712 1134 l 1,127,-1
 702 1120 l 1,128,-1
 609 1047 l 1,129,-1
 541 984 l 1,130,-1
 515 977 l 1,131,-1
 455 918 l 1,132,-1
 431 915 l 1,133,-1
 401 885 l 1,134,-1
 375 874 l 1,135,-1
 359 885 l 1,136,-1
 336 880 l 1,137,-1
 337 852 l 1,138,-1
 312 845 l 1,139,-1
 231 803 l 1,140,-1
 222 801 l 1,141,-1
 187 811 l 1,142,-1
 180 815 l 1,143,-1
 154 839 l 1,144,-1
 148 859 l 1,145,-1
 148 860 l 1,146,-1
 149 895 l 1,147,-1
 150 931 l 1,148,-1
 154 941 l 1,149,-1
 155 943 l 1,150,-1
 207 996 l 1,151,-1
 220 1018 l 1,152,-1
 257 1053 l 1,153,-1
 309 1084 l 1,154,-1
 318 1100 l 1,155,-1
 327 1112 l 1,156,-1
 347 1125 l 1,157,-1
 378 1139 l 1,158,-1
 437 1175 l 1,159,-1
 458 1180 l 1,160,-1
 497 1203 l 1,161,-1
 539 1207 l 1,162,-1
 581 1218 l 1,163,-1
 589 1213 l 1,164,-1
 594 1203 l 1,165,-1
 596 1181 l 1,166,-1
 617 1190 l 1,167,-1
 628 1203 l 1,168,-1
 643 1215 l 1,169,-1
 667 1231 l 1,170,-1
 693 1238 l 1,171,-1
 746 1263 l 1,172,-1
 771 1266 l 1,173,-1
 781 1277 l 1,174,-1
 803 1275 l 1,175,-1
 822 1290 l 1,176,-1
 846 1292 l 1,177,-1
 855 1308 l 1,178,-1
 875 1308 l 1,179,-1
 920 1323 l 1,180,-1
 964 1335 l 1,181,-1
 999 1352 l 1,182,-1
 1063 1387 l 1,183,-1
 1072 1388 l 1,184,-1
 1089 1384 l 1,185,-1
 1103 1369 l 1,186,-1
 1111 1338 l 1,187,-1
 1106 1304 l 1,188,-1
 1089 1253 l 1,189,-1
 1071 1223 l 1,190,-1
 1051 1179 l 1,191,-1
 1027 1173 l 1,192,-1
 1005 1161 l 1,193,-1
 972 1142 l 1,194,-1
 902 1070 l 1,195,-1
 841 1013 l 1,196,-1
 806 970 l 1,197,-1
 739 918 l 1,198,-1
 694 861 l 1,199,-1
 676 846 l 1,200,-1
 659 816 l 1,201,-1
 634 804 l 1,202,-1
 618 790 l 1,203,-1
 602 768 l 1,204,-1
 590 740 l 1,205,-1
 582 721 l 1,206,-1
 562 721 l 1,207,-1
 557 689 l 1,208,-1
 540 678 l 1,209,-1
 534 647 l 1,210,-1
 515 643 l 1,211,-1
 505 637 l 1,212,-1
 501 631 l 1,213,-1
 482 598 l 1,214,-1
 456 571 l 1,215,-1
 434 537 l 1,216,-1
 412 516 l 1,217,-1
 401 498 l 1,218,-1
 379 486 l 1,219,-1
 379 464 l 1,220,-1
 374 441 l 1,221,-1
 367 427 l 1,222,-1
 338 393 l 1,223,-1
 284 307 l 1,224,-1
 269 283 l 1,225,-1
 253 254 l 1,226,-1
 240 209 l 1,227,-1
 231 182 l 1,228,-1
 234 154 l 1,229,-1
 232 129 l 1,230,-1
 254 52 l 1,231,-1
 254 26 l 1,232,-1
 244 -22 l 1,233,-1
 216 -45 l 1,234,-1
 192 -52 l 1,235,-1
 164 -48 l 1,236,-1
 123 -38 l 1,237,-1
 104 -25 l 1,238,-1
 98 -17 l 1,239,-1
 87 13 l 1,240,-1
 74 39 l 1,241,-1
 69 67 l 1,242,-1
 68 92 l 1,243,-1
 69 101 l 1,244,-1
 76 130 l 1,245,-1
 78 151 l 1,246,-1
 106 213 l 1,247,-1
 115 238 l 1,248,-1
 147 295 l 1,249,-1
 178 359 l 1,250,-1
 230 424 l 1,251,-1
 247 457 l 1,252,-1
 264 484 l 1,87,-1
EndSplineSet
EndChar

StartChar: ampersand
Encoding: 38 38 10
Width: 1502
Flags: W
LayerCount: 2
Fore
SplineSet
626 293 m 1,0,-1
 643 309 l 1,1,-1
 666 315 l 1,2,-1
 682 334 l 1,3,-1
 702 347 l 1,4,-1
 716 366 l 1,5,-1
 752 383 l 1,6,-1
 760 403 l 1,7,-1
 799 453 l 1,8,-1
 826 511 l 1,9,-1
 849 544 l 1,10,-1
 870 590 l 1,11,-1
 879 612 l 1,12,-1
 906 612 l 1,13,-1
 909 615 l 1,14,-1
 909 619 l 1,15,-1
 909 621 l 1,16,-1
 908 624 l 1,17,-1
 897 631 l 1,18,-1
 904 661 l 1,19,-1
 921 683 l 1,20,-1
 935 697 l 1,21,-1
 944 718 l 1,22,-1
 965 742 l 1,23,-1
 987 788 l 1,24,-1
 1007 801 l 1,25,-1
 1007 809 l 1,26,-1
 998 812 l 1,27,-1
 984 806 l 1,28,-1
 939 805 l 1,29,-1
 915 795 l 1,30,-1
 887 793 l 1,31,-1
 843 774 l 1,32,-1
 785 772 l 1,33,-1
 754 763 l 1,34,-1
 728 757 l 1,35,-1
 679 729 l 1,36,-1
 664 725 l 1,37,-1
 645 720 l 1,38,-1
 635 699 l 1,39,-1
 614 692 l 1,40,-1
 606 680 l 1,41,-1
 575 665 l 1,42,-1
 564 654 l 1,43,-1
 521 636 l 1,44,-1
 486 598 l 1,45,-1
 469 588 l 1,46,-1
 453 562 l 1,47,-1
 430 563 l 1,48,-1
 412 540 l 1,49,-1
 355 474 l 1,50,-1
 337 457 l 1,51,-1
 332 442 l 1,52,-1
 329 421 l 1,53,-1
 310 411 l 1,54,-1
 303 400 l 1,55,-1
 291 318 l 1,56,-1
 298 267 l 1,57,-1
 301 263 l 1,58,-1
 328 246 l 1,59,-1
 341 236 l 1,60,-1
 364 229 l 1,61,-1
 382 223 l 1,62,-1
 402 224 l 1,63,-1
 423 220 l 1,64,-1
 460 232 l 1,65,-1
 487 232 l 1,66,-1
 505 237 l 1,67,-1
 558 266 l 1,68,-1
 594 279 l 1,69,-1
 605 289 l 1,70,-1
 626 293 l 1,0,-1
161 480 m 1,71,-1
 178 491 l 1,72,-1
 189 509 l 1,73,-1
 200 527 l 1,74,-1
 235 559 l 1,75,-1
 250 576 l 1,76,-1
 295 612 l 1,77,-1
 333 644 l 1,78,-1
 355 654 l 1,79,-1
 370 670 l 1,80,-1
 450 714 l 1,81,-1
 474 731 l 1,82,-1
 537 756 l 1,83,-1
 570 778 l 1,84,-1
 607 787 l 1,85,-1
 631 805 l 1,86,-1
 604 823 l 1,87,-1
 567 857 l 1,88,-1
 554 870 l 1,89,-1
 551 922 l 1,90,-1
 550 948 l 1,91,-1
 552 957 l 1,92,-1
 565 983 l 1,93,-1
 598 1032 l 1,94,-1
 619 1068 l 1,95,-1
 651 1097 l 1,96,-1
 674 1128 l 1,97,-1
 704 1153 l 1,98,-1
 722 1176 l 1,99,-1
 763 1201 l 1,100,-1
 799 1236 l 1,101,-1
 848 1259 l 1,102,-1
 956 1317 l 1,103,-1
 994 1327 l 1,104,-1
 1017 1336 l 1,105,-1
 1067 1336 l 1,106,-1
 1107 1344 l 1,107,-1
 1122 1345 l 1,108,-1
 1142 1341 l 1,109,-1
 1164 1323 l 1,110,-1
 1179 1309 l 1,111,-1
 1189 1274 l 1,112,-1
 1200 1239 l 1,113,-1
 1201 1208 l 1,114,-1
 1198 1180 l 1,115,-1
 1186 1158 l 1,116,-1
 1167 1117 l 1,117,-1
 1154 1105 l 1,118,-1
 1128 1092 l 1,119,-1
 1102 1082 l 1,120,-1
 1099 1083 l 1,121,-1
 1076 1097 l 1,122,-1
 1057 1107 l 1,123,-1
 1056 1128 l 1,124,-1
 1061 1153 l 1,125,-1
 1068 1160 l 1,126,-1
 1119 1201 l 1,127,-1
 1123 1205 l 1,128,-1
 1127 1225 l 1,129,-1
 1127 1249 l 1,130,-1
 1096 1256 l 1,131,-1
 1073 1250 l 1,132,-1
 1048 1252 l 1,133,-1
 1047 1252 l 1,134,-1
 1022 1247 l 1,135,-1
 1007 1237 l 1,136,-1
 987 1218 l 1,137,-1
 914 1177 l 1,138,-1
 884 1153 l 1,139,-1
 837 1097 l 1,140,-1
 819 1081 l 1,141,-1
 803 1061 l 1,142,-1
 795 1043 l 1,143,-1
 761 1013 l 1,144,-1
 750 990 l 1,145,-1
 732 969 l 1,146,-1
 730 956 l 1,147,-1
 720 926 l 1,148,-1
 723 918 l 1,149,-1
 742 903 l 1,150,-1
 788 893 l 1,151,-1
 795 894 l 1,152,-1
 860 907 l 1,153,-1
 913 905 l 1,154,-1
 945 920 l 1,155,-1
 1027 938 l 1,156,-1
 1092 964 l 1,157,-1
 1116 969 l 1,158,-1
 1146 1010 l 1,159,-1
 1168 1027 l 1,160,-1
 1202 1087 l 1,161,-1
 1234 1124 l 1,162,-1
 1252 1143 l 1,163,-1
 1260 1145 l 1,164,-1
 1271 1141 l 1,165,-1
 1291 1120 l 1,166,-1
 1305 1084 l 1,167,-1
 1310 1057 l 1,168,-1
 1306 1039 l 1,169,-1
 1282 1006 l 1,170,-1
 1258 984 l 1,171,-1
 1254 973 l 1,172,-1
 1256 963 l 1,173,-1
 1277 974 l 1,174,-1
 1304 984 l 1,175,-1
 1307 984 l 1,176,-1
 1353 975 l 1,177,-1
 1381 988 l 1,178,-1
 1407 995 l 1,179,-1
 1426 1001 l 1,180,-1
 1466 1000 l 1,181,-1
 1499 999 l 1,182,-1
 1517 993 l 1,183,-1
 1530 982 l 1,184,-1
 1541 965 l 1,185,-1
 1560 942 l 1,186,-1
 1567 906 l 1,187,-1
 1568 885 l 1,188,-1
 1530 868 l 1,189,-1
 1504 872 l 1,190,-1
 1439 869 l 1,191,-1
 1406 876 l 1,192,-1
 1332 864 l 1,193,-1
 1296 867 l 1,194,-1
 1264 852 l 1,195,-1
 1229 855 l 1,196,-1
 1202 841 l 1,197,-1
 1179 841 l 1,198,-1
 1172 817 l 1,199,-1
 1161 811 l 1,200,-1
 1152 787 l 1,201,-1
 1133 781 l 1,202,-1
 1127 761 l 1,203,-1
 1115 741 l 1,204,-1
 1103 718 l 1,205,-1
 1073 705 l 1,206,-1
 1069 684 l 1,207,-1
 1063 671 l 1,208,-1
 1057 663 l 1,209,-1
 1030 639 l 1,210,-1
 1011 592 l 1,211,-1
 997 571 l 1,212,-1
 993 550 l 1,213,-1
 978 546 l 1,214,-1
 969 523 l 1,215,-1
 955 510 l 1,216,-1
 950 486 l 1,217,-1
 925 472 l 1,218,-1
 920 460 l 1,219,-1
 919 458 l 1,220,-1
 921 446 l 1,221,-1
 921 439 l 1,222,-1
 920 432 l 1,223,-1
 919 430 l 1,224,-1
 901 406 l 1,225,-1
 898 388 l 1,226,-1
 884 368 l 1,227,-1
 884 346 l 1,228,-1
 878 331 l 1,229,-1
 881 295 l 1,230,-1
 908 291 l 1,231,-1
 949 285 l 1,232,-1
 964 287 l 1,233,-1
 975 293 l 1,234,-1
 991 305 l 1,235,-1
 1017 304 l 1,236,-1
 1075 341 l 1,237,-1
 1150 381 l 1,238,-1
 1177 405 l 1,239,-1
 1203 408 l 1,240,-1
 1216 427 l 1,241,-1
 1229 433 l 1,242,-1
 1246 452 l 1,243,-1
 1267 468 l 1,244,-1
 1275 478 l 1,245,-1
 1297 494 l 1,246,-1
 1311 511 l 1,247,-1
 1330 518 l 1,248,-1
 1356 485 l 1,249,-1
 1349 462 l 1,250,-1
 1348 442 l 1,251,-1
 1346 431 l 1,252,-1
 1333 417 l 1,253,-1
 1312 400 l 1,254,-1
 1294 376 l 1,255,-1
 1252 335 l 1,256,-1
 1236 312 l 1,257,-1
 1212 295 l 1,258,-1
 1202 273 l 1,259,-1
 1182 274 l 1,260,-1
 1155 245 l 1,261,-1
 1127 236 l 1,262,-1
 1088 216 l 1,263,-1
 1071 212 l 1,264,-1
 1042 188 l 1,265,-1
 996 182 l 1,266,-1
 980 176 l 1,267,-1
 941 171 l 1,268,-1
 921 165 l 1,269,-1
 910 167 l 1,270,-1
 904 172 l 1,271,-1
 890 188 l 1,272,-1
 856 205 l 1,273,-1
 845 224 l 1,274,-1
 809 269 l 1,275,-1
 800 303 l 1,276,-1
 786 285 l 1,277,-1
 753 246 l 1,278,-1
 741 229 l 1,279,-1
 726 225 l 1,280,-1
 697 190 l 1,281,-1
 665 172 l 1,282,-1
 650 158 l 1,283,-1
 623 149 l 1,284,-1
 591 127 l 1,285,-1
 560 121 l 1,286,-1
 537 104 l 1,287,-1
 510 112 l 1,288,-1
 470 89 l 1,289,-1
 450 92 l 1,290,-1
 425 89 l 1,291,-1
 394 102 l 1,292,-1
 352 85 l 1,293,-1
 348 85 l 1,294,-1
 338 87 l 1,295,-1
 264 125 l 1,296,-1
 213 139 l 1,297,-1
 189 152 l 1,298,-1
 180 162 l 1,299,-1
 162 189 l 1,300,-1
 137 218 l 1,301,-1
 125 260 l 1,302,-1
 116 290 l 1,303,-1
 116 323 l 1,304,-1
 118 369 l 1,305,-1
 138 435 l 1,306,-1
 144 450 l 1,307,-1
 161 480 l 1,71,-1
EndSplineSet
EndChar

StartChar: quotesingle
Encoding: 39 39 11
Width: 336
Flags: W
LayerCount: 2
Fore
SplineSet
249 1164 m 1,0,-1
 251 1211 l 1,1,-1
 269 1254 l 1,2,-1
 286 1280 l 1,3,-1
 299 1297 l 1,4,-1
 325 1311 l 1,5,-1
 353 1320 l 1,6,-1
 371 1316 l 1,7,-1
 387 1305 l 1,8,-1
 405 1285 l 1,9,-1
 427 1242 l 1,10,-1
 432 1209 l 1,11,-1
 428 1182 l 1,12,-1
 417 1152 l 1,13,-1
 395 1106 l 1,14,-1
 365 1066 l 1,15,-1
 341 1025 l 1,16,-1
 333 1015 l 1,17,-1
 303 980 l 1,18,-1
 287 963 l 1,19,-1
 273 958 l 1,20,-1
 268 959 l 1,21,-1
 247 970 l 1,22,-1
 246 986 l 1,23,-1
 247 1020 l 1,24,-1
 248 1063 l 1,25,-1
 248 1135 l 1,26,-1
 249 1164 l 1,0,-1
EndSplineSet
EndChar

StartChar: parenleft
Encoding: 40 40 12
Width: 775
Flags: W
LayerCount: 2
Fore
SplineSet
407 442 m 1,0,-1
 399 464 l 1,1,-1
 407 505 l 1,2,-1
 408 531 l 1,3,-1
 423 584 l 1,4,-1
 421 613 l 1,5,-1
 435 677 l 1,6,-1
 443 704 l 1,7,-1
 461 716 l 1,8,-1
 470 739 l 1,9,-1
 471 766 l 1,10,-1
 488 799 l 1,11,-1
 488 830 l 1,12,-1
 522 878 l 1,13,-1
 563 958 l 1,14,-1
 584 981 l 1,15,-1
 583 1002 l 1,16,-1
 599 1023 l 1,17,-1
 634 1060 l 1,18,-1
 656 1110 l 1,19,-1
 679 1118 l 1,20,-1
 695 1134 l 1,21,-1
 708 1144 l 1,22,-1
 718 1165 l 1,23,-1
 761 1201 l 1,24,-1
 856 1302 l 1,25,-1
 956 1374 l 1,26,-1
 998 1406 l 1,27,-1
 1014 1410 l 1,28,-1
 1036 1427 l 1,29,-1
 1046 1431 l 1,30,-1
 1079 1449 l 1,31,-1
 1095 1445 l 1,32,-1
 1105 1435 l 1,33,-1
 1108 1425 l 1,34,-1
 1106 1416 l 1,35,-1
 1100 1407 l 1,36,-1
 1087 1400 l 1,37,-1
 1065 1396 l 1,38,-1
 1062 1371 l 1,39,-1
 1057 1361 l 1,40,-1
 1053 1359 l 1,41,-1
 1023 1351 l 1,42,-1
 998 1326 l 1,43,-1
 958 1304 l 1,44,-1
 921 1249 l 1,45,-1
 890 1228 l 1,46,-1
 870 1193 l 1,47,-1
 840 1174 l 1,48,-1
 817 1120 l 1,49,-1
 785 1080 l 1,50,-1
 738 1001 l 1,51,-1
 700 956 l 1,52,-1
 678 915 l 1,53,-1
 583 683 l 1,54,-1
 569 663 l 1,55,-1
 552 637 l 1,56,-1
 560 599 l 1,57,-1
 543 566 l 1,58,-1
 540 551 l 1,59,-1
 538 472 l 1,60,-1
 530 423 l 1,61,-1
 532 327 l 1,62,-1
 525 297 l 1,63,-1
 531 273 l 1,64,-1
 539 220 l 1,65,-1
 553 178 l 1,66,-1
 550 155 l 1,67,-1
 552 146 l 1,68,-1
 650 -4 l 1,69,-1
 656 -14 l 1,70,-1
 657 -20 l 1,71,-1
 654 -28 l 1,72,-1
 650 -33 l 1,73,-1
 638 -36 l 1,74,-1
 614 -33 l 1,75,-1
 593 -24 l 1,76,-1
 576 -8 l 1,77,-1
 552 32 l 1,78,-1
 527 60 l 1,79,-1
 517 83 l 1,80,-1
 489 112 l 1,81,-1
 459 172 l 1,82,-1
 429 219 l 1,83,-1
 421 239 l 1,84,-1
 435 251 l 1,85,-1
 429 272 l 1,86,-1
 417 303 l 1,87,-1
 409 343 l 1,88,-1
 404 366 l 1,89,-1
 406 427 l 1,90,-1
 407 440 l 1,91,-1
 407 442 l 1,0,-1
EndSplineSet
EndChar

StartChar: parenright
Encoding: 41 41 13
Width: 775
Flags: W
LayerCount: 2
Fore
SplineSet
296 193 m 1,0,-1
 303 220 l 1,1,-1
 340 252 l 1,2,-1
 343 275 l 1,3,-1
 396 340 l 1,4,-1
 420 408 l 1,5,-1
 452 468 l 1,6,-1
 463 520 l 1,7,-1
 521 643 l 1,8,-1
 526 690 l 1,9,-1
 551 745 l 1,10,-1
 552 785 l 1,11,-1
 571 798 l 1,12,-1
 563 832 l 1,13,-1
 585 930 l 1,14,-1
 589 956 l 1,15,-1
 588 965 l 1,16,-1
 582 990 l 1,17,-1
 584 1031 l 1,18,-1
 578 1078 l 1,19,-1
 576 1113 l 1,20,-1
 552 1175 l 1,21,-1
 551 1185 l 1,22,-1
 551 1190 l 1,23,-1
 565 1212 l 1,24,-1
 555 1219 l 1,25,-1
 549 1231 l 1,26,-1
 534 1245 l 1,27,-1
 532 1272 l 1,28,-1
 517 1293 l 1,29,-1
 515 1309 l 1,30,-1
 503 1327 l 1,31,-1
 491 1352 l 1,32,-1
 448 1396 l 1,33,-1
 446 1421 l 1,34,-1
 459 1428 l 1,35,-1
 461 1428 l 1,36,-1
 489 1418 l 1,37,-1
 541 1378 l 1,38,-1
 566 1342 l 1,39,-1
 614 1276 l 1,40,-1
 634 1232 l 1,41,-1
 651 1189 l 1,42,-1
 663 1123 l 1,43,-1
 684 1069 l 1,44,-1
 684 1028 l 1,45,-1
 692 969 l 1,46,-1
 685 912 l 1,47,-1
 695 832 l 1,48,-1
 679 761 l 1,49,-1
 683 704 l 1,50,-1
 678 685 l 1,51,-1
 667 643 l 1,52,-1
 655 626 l 1,53,-1
 651 604 l 1,54,-1
 641 583 l 1,55,-1
 637 554 l 1,56,-1
 626 499 l 1,57,-1
 610 471 l 1,58,-1
 583 408 l 1,59,-1
 564 374 l 1,60,-1
 559 357 l 1,61,-1
 555 340 l 1,62,-1
 539 318 l 1,63,-1
 514 269 l 1,64,-1
 496 256 l 1,65,-1
 486 225 l 1,66,-1
 444 203 l 1,67,-1
 420 172 l 1,68,-1
 403 153 l 1,69,-1
 387 150 l 1,70,-1
 370 113 l 1,71,-1
 352 105 l 1,72,-1
 340 93 l 1,73,-1
 324 86 l 1,74,-1
 305 64 l 1,75,-1
 245 37 l 1,76,-1
 207 8 l 1,77,-1
 179 1 l 1,78,-1
 164 -6 l 1,79,-1
 152 -17 l 1,80,-1
 140 -35 l 1,81,-1
 105 -42 l 1,82,-1
 99 -39 l 1,83,-1
 95 -34 l 1,84,-1
 93 -25 l 1,85,-1
 96 -12 l 1,86,-1
 104 -2 l 1,87,-1
 136 24 l 1,88,-1
 153 42 l 1,89,-1
 178 63 l 1,90,-1
 217 111 l 1,91,-1
 296 193 l 1,0,-1
EndSplineSet
EndChar

StartChar: asterisk
Encoding: 42 42 14
Width: 686
Flags: W
LayerCount: 2
Fore
SplineSet
618 1251 m 1,0,-1
 628 1248 l 1,1,-1
 636 1275 l 1,2,-1
 651 1299 l 1,3,-1
 653 1327 l 1,4,-1
 670 1343 l 1,5,-1
 670 1347 l 1,6,-1
 669 1358 l 1,7,-1
 666 1377 l 1,8,-1
 686 1388 l 1,9,-1
 693 1388 l 1,10,-1
 707 1385 l 1,11,-1
 722 1372 l 1,12,-1
 735 1345 l 1,13,-1
 739 1319 l 1,14,-1
 733 1309 l 1,15,-1
 714 1295 l 1,16,-1
 707 1258 l 1,17,-1
 707 1250 l 1,18,-1
 732 1261 l 1,19,-1
 752 1274 l 1,20,-1
 763 1289 l 1,21,-1
 769 1294 l 1,22,-1
 783 1298 l 1,23,-1
 804 1296 l 1,24,-1
 818 1278 l 1,25,-1
 822 1271 l 1,26,-1
 811 1252 l 1,27,-1
 797 1234 l 1,28,-1
 794 1232 l 1,29,-1
 765 1222 l 1,30,-1
 745 1203 l 1,31,-1
 716 1186 l 1,32,-1
 697 1171 l 1,33,-1
 705 1151 l 1,34,-1
 764 1060 l 1,35,-1
 761 1026 l 1,36,-1
 756 1004 l 1,37,-1
 748 996 l 1,38,-1
 734 993 l 1,39,-1
 722 995 l 1,40,-1
 713 1002 l 1,41,-1
 671 1048 l 1,42,-1
 645 1063 l 1,43,-1
 636 1041 l 1,44,-1
 612 977 l 1,45,-1
 603 962 l 1,46,-1
 596 957 l 1,47,-1
 588 955 l 1,48,-1
 578 958 l 1,49,-1
 565 972 l 1,50,-1
 548 1021 l 1,51,-1
 549 1025 l 1,52,-1
 576 1097 l 1,53,-1
 577 1099 l 1,54,-1
 576 1103 l 1,55,-1
 573 1106 l 1,56,-1
 564 1108 l 1,57,-1
 529 1099 l 1,58,-1
 486 1082 l 1,59,-1
 435 1048 l 1,60,-1
 431 1048 l 1,61,-1
 423 1050 l 1,62,-1
 414 1059 l 1,63,-1
 410 1076 l 1,64,-1
 414 1096 l 1,65,-1
 424 1112 l 1,66,-1
 429 1116 l 1,67,-1
 476 1134 l 1,68,-1
 513 1160 l 1,69,-1
 546 1169 l 1,70,-1
 560 1178 l 1,71,-1
 563 1184 l 1,72,-1
 565 1192 l 1,73,-1
 563 1201 l 1,74,-1
 547 1228 l 1,75,-1
 506 1286 l 1,76,-1
 503 1306 l 1,77,-1
 505 1318 l 1,78,-1
 512 1324 l 1,79,-1
 521 1327 l 1,80,-1
 529 1325 l 1,81,-1
 544 1316 l 1,82,-1
 574 1290 l 1,83,-1
 608 1262 l 1,84,-1
 618 1251 l 1,0,-1
EndSplineSet
EndChar

StartChar: plus
Encoding: 43 43 15
Width: 1024
Flags: W
LayerCount: 2
Fore
SplineSet
1008 799 m 1,0,-1
 1030 799 l 2,1,2
 1040 799 1040 799 1048 785 c 2,3,-1
 1065 758 l 1,4,5
 1065 700 1065 700 1024.5 683 c 128,-1,6
 984 666 984 666 958 666 c 1,7,-1
 926 674 l 1,8,-1
 881 666 l 1,9,-1
 776 676 l 2,10,11
 772 676 772 676 752 670 c 2,12,-1
 739 668 l 2,13,14
 723 666 723 666 721 656.5 c 128,-1,15
 719 647 719 647 710.5 637 c 128,-1,16
 702 627 702 627 702 623 c 0,17,18
 702 622 702 622 688 586 c 1,19,-1
 688 569 l 2,20,21
 688 566 688 566 681.5 529 c 128,-1,22
 675 492 675 492 664 473.5 c 128,-1,23
 653 455 653 455 647 424 c 0,24,25
 643 418 643 418 632 407.5 c 128,-1,26
 621 397 621 397 614 383 c 128,-1,27
 607 369 607 369 600 369 c 2,28,-1
 580 371 l 1,29,30
 571 367 571 367 569 367 c 0,31,32
 553 367 553 367 533.5 395.5 c 128,-1,33
 514 424 514 424 514 446 c 0,34,35
 514 508 514 508 529.5 530.5 c 128,-1,36
 545 553 545 553 549 585.5 c 128,-1,37
 553 618 553 618 586 668 c 0,38,39
 590 672 590 672 590 674 c 0,40,41
 590 680 590 680 584 680 c 0,42,43
 580 680 580 680 566.5 674 c 128,-1,44
 553 668 553 668 543 668 c 0,45,46
 496 668 496 668 454 673 c 128,-1,47
 412 678 412 678 401 678 c 2,48,-1
 393 678 l 1,49,-1
 365 676 l 2,50,51
 335 676 335 676 323 699 c 128,-1,52
 311 722 311 722 311 743 c 0,53,54
 311 772 311 772 346 783.5 c 128,-1,55
 381 795 381 795 393 795 c 0,56,57
 395 795 395 795 404.5 789.5 c 128,-1,58
 414 784 414 784 416 784 c 2,59,-1
 430 788 l 1,60,61
 453 780 453 780 455 780 c 2,62,-1
 539 784 l 1,63,-1
 571 782 l 2,64,65
 575 782 575 782 587.5 786.5 c 128,-1,66
 600 791 600 791 614 792 c 128,-1,67
 628 793 628 793 630 798 c 128,-1,68
 632 803 632 803 640 822 c 128,-1,69
 648 841 648 841 663 854.5 c 128,-1,70
 678 868 678 868 678 872 c 2,71,-1
 678 881 l 2,72,73
 676 883 676 883 676 891 c 0,74,75
 676 907 676 907 692 938 c 2,76,-1
 707 971 l 2,77,78
 724 1009 724 1009 739 1028 c 1,79,-1
 760 1077 l 2,80,81
 774 1108 774 1108 795 1108 c 0,82,83
 810 1108 810 1108 841.5 1094 c 128,-1,84
 873 1080 873 1080 873 1056 c 0,85,86
 873 1045 873 1045 868.5 1016 c 128,-1,87
 864 987 864 987 855 979 c 128,-1,88
 846 971 846 971 843 961.5 c 128,-1,89
 840 952 840 952 832.5 944 c 128,-1,90
 825 936 825 936 812 902 c 128,-1,91
 799 868 799 868 797 858 c 2,92,-1
 786 838 l 2,93,94
 778 825 778 825 778 813 c 0,95,96
 778 786 778 786 797 786 c 0,97,98
 809 786 809 786 840.5 797.5 c 128,-1,99
 872 809 872 809 905 809 c 2,100,-1
 911 809 l 1,101,-1
 944 805 l 1,102,-1
 977 813 l 1,103,-1
 1008 799 l 1,0,-1
EndSplineSet
EndChar

StartChar: comma
Encoding: 44 44 16
Width: 509
Flags: W
LayerCount: 2
Fore
SplineSet
101 -13 m 1,0,-1
 82 -1 l 1,1,-1
 94 31 l 1,2,-1
 137 84 l 1,3,-1
 143 104 l 1,4,-1
 129 119 l 1,5,-1
 111 157 l 1,6,-1
 103 204 l 1,7,-1
 104 212 l 1,8,-1
 114 227 l 1,9,-1
 130 252 l 1,10,-1
 168 300 l 1,11,-1
 190 313 l 1,12,-1
 209 316 l 1,13,-1
 230 311 l 1,14,-1
 276 260 l 1,15,-1
 303 220 l 1,16,-1
 304 214 l 1,17,-1
 302 205 l 1,18,-1
 283 175 l 1,19,-1
 261 117 l 1,20,-1
 194 26 l 1,21,-1
 154 -15 l 1,22,-1
 145 -20 l 1,23,-1
 130 -25 l 1,24,-1
 123 -24 l 1,25,-1
 101 -13 l 1,0,-1
EndSplineSet
EndChar

StartChar: hyphen
Encoding: 45 45 17
Width: 718
Flags: W
LayerCount: 2
Fore
SplineSet
401 443 m 1,0,-1
 421 449 l 1,1,-1
 443 443 l 1,2,-1
 464 449 l 1,3,-1
 487 446 l 1,4,-1
 518 442 l 1,5,-1
 550 431 l 1,6,-1
 578 435 l 1,7,-1
 579 435 l 1,8,-1
 597 431 l 1,9,-1
 605 423 l 1,10,-1
 609 396 l 1,11,-1
 603 369 l 1,12,-1
 565 335 l 1,13,-1
 534 314 l 1,14,-1
 494 317 l 1,15,-1
 449 313 l 1,16,-1
 400 331 l 1,17,-1
 359 326 l 1,18,-1
 315 332 l 1,19,-1
 277 322 l 1,20,-1
 225 332 l 1,21,-1
 183 324 l 1,22,-1
 151 344 l 1,23,-1
 128 344 l 1,24,-1
 116 358 l 1,25,-1
 111 367 l 1,26,-1
 109 382 l 1,27,-1
 111 391 l 1,28,-1
 121 407 l 1,29,-1
 137 423 l 1,30,-1
 157 425 l 1,31,-1
 216 437 l 1,32,-1
 248 433 l 1,33,-1
 249 433 l 1,34,-1
 283 438 l 1,35,-1
 346 442 l 1,36,-1
 366 442 l 1,37,-1
 401 443 l 1,0,-1
EndSplineSet
EndChar

StartChar: period
Encoding: 46 46 18
Width: 488
Flags: W
LayerCount: 2
Fore
SplineSet
92 182 m 1,0,-1
 82 198 l 1,1,-1
 96 240 l 1,2,-1
 108 273 l 1,3,-1
 111 276 l 1,4,-1
 138 295 l 1,5,-1
 155 312 l 1,6,-1
 163 315 l 1,7,-1
 167 316 l 1,8,-1
 196 300 l 1,9,-1
 222 285 l 1,10,-1
 252 238 l 1,11,-1
 278 212 l 1,12,-1
 282 202 l 1,13,-1
 284 194 l 1,14,-1
 271 161 l 1,15,-1
 232 109 l 1,16,-1
 213 93 l 1,17,-1
 190 86 l 1,18,-1
 171 91 l 1,19,-1
 148 107 l 1,20,-1
 128 125 l 1,21,-1
 92 182 l 1,0,-1
EndSplineSet
EndChar

StartChar: slash
Encoding: 47 47 19
Width: 836
Flags: W
LayerCount: 2
Fore
SplineSet
291 506 m 1,0,-1
 295 525 l 1,1,-1
 312 539 l 1,2,-1
 330 566 l 1,3,-1
 342 601 l 1,4,-1
 365 631 l 1,5,-1
 377 656 l 1,6,-1
 408 690 l 1,7,-1
 468 781 l 1,8,-1
 483 800 l 1,9,-1
 498 806 l 1,10,-1
 496 834 l 1,11,-1
 515 854 l 1,12,-1
 544 899 l 1,13,-1
 586 952 l 1,14,-1
 594 972 l 1,15,-1
 596 973 l 1,16,-1
 612 974 l 1,17,-1
 637 1015 l 1,18,-1
 645 1040 l 1,19,-1
 680 1090 l 1,20,-1
 722 1136 l 1,21,-1
 742 1151 l 1,22,-1
 750 1185 l 1,23,-1
 800 1242 l 1,24,-1
 867 1321 l 1,25,-1
 893 1341 l 1,26,-1
 988 1480 l 1,27,-1
 1029 1508 l 1,28,-1
 1038 1519 l 1,29,-1
 1069 1536 l 1,30,-1
 1097 1549 l 1,31,-1
 1100 1550 l 1,32,-1
 1116 1545 l 1,33,-1
 1131 1527 l 1,34,-1
 1139 1486 l 1,35,-1
 1134 1443 l 1,36,-1
 1115 1384 l 1,37,-1
 1101 1360 l 1,38,-1
 1081 1306 l 1,39,-1
 1060 1302 l 1,40,-1
 1025 1287 l 1,41,-1
 1002 1266 l 1,42,-1
 931 1182 l 1,43,-1
 869 1117 l 1,44,-1
 820 1050 l 1,45,-1
 775 1016 l 1,46,-1
 728 948 l 1,47,-1
 704 924 l 1,48,-1
 687 889 l 1,49,-1
 662 875 l 1,50,-1
 646 860 l 1,51,-1
 629 833 l 1,52,-1
 618 802 l 1,53,-1
 610 779 l 1,54,-1
 589 779 l 1,55,-1
 584 743 l 1,56,-1
 567 729 l 1,57,-1
 561 695 l 1,58,-1
 542 690 l 1,59,-1
 532 683 l 1,60,-1
 528 676 l 1,61,-1
 509 637 l 1,62,-1
 483 606 l 1,63,-1
 461 568 l 1,64,-1
 439 542 l 1,65,-1
 428 523 l 1,66,-1
 406 508 l 1,67,-1
 405 483 l 1,68,-1
 400 456 l 1,69,-1
 393 440 l 1,70,-1
 364 401 l 1,71,-1
 310 301 l 1,72,-1
 294 274 l 1,73,-1
 279 240 l 1,74,-1
 266 188 l 1,75,-1
 256 156 l 1,76,-1
 259 125 l 1,77,-1
 257 96 l 1,78,-1
 279 6 l 1,79,-1
 278 -23 l 1,80,-1
 268 -79 l 1,81,-1
 241 -106 l 1,82,-1
 216 -114 l 1,83,-1
 189 -109 l 1,84,-1
 147 -98 l 1,85,-1
 128 -83 l 1,86,-1
 123 -72 l 1,87,-1
 112 -38 l 1,88,-1
 99 -8 l 1,89,-1
 94 24 l 1,90,-1
 93 54 l 1,91,-1
 94 63 l 1,92,-1
 101 97 l 1,93,-1
 103 121 l 1,94,-1
 132 193 l 1,95,-1
 140 222 l 1,96,-1
 173 288 l 1,97,-1
 204 362 l 1,98,-1
 257 437 l 1,99,-1
 274 475 l 1,100,-1
 291 506 l 1,0,-1
EndSplineSet
EndChar

StartChar: zero
Encoding: 48 48 20
Width: 978
Flags: W
LayerCount: 2
Fore
SplineSet
643 1221 m 1,0,-1
 658 1226 l 1,1,-1
 649 1233 l 1,2,-1
 644 1236 l 1,3,-1
 640 1237 l 1,4,-1
 635 1236 l 1,5,-1
 631 1232 l 1,6,-1
 630 1229 l 1,7,-1
 631 1225 l 1,8,-1
 634 1222 l 1,9,-1
 640 1220 l 1,10,-1
 643 1221 l 1,0,-1
114 264 m 1,11,-1
 133 239 l 1,12,-1
 121 220 l 1,13,-1
 135 225 l 1,14,-1
 154 217 l 1,15,-1
 177 215 l 1,16,-1
 191 211 l 1,17,-1
 212 215 l 1,18,-1
 227 216 l 1,19,-1
 280 239 l 1,20,-1
 309 250 l 1,21,-1
 361 280 l 1,22,-1
 387 290 l 1,23,-1
 407 307 l 1,24,-1
 425 309 l 1,25,-1
 433 329 l 1,26,-1
 466 346 l 1,27,-1
 472 363 l 1,28,-1
 486 379 l 1,29,-1
 499 396 l 1,30,-1
 529 413 l 1,31,-1
 545 437 l 1,32,-1
 663 558 l 1,33,-1
 697 602 l 1,34,-1
 710 631 l 1,35,-1
 731 638 l 1,36,-1
 748 686 l 1,37,-1
 777 720 l 1,38,-1
 771 742 l 1,39,-1
 791 762 l 1,40,-1
 798 781 l 1,41,-1
 813 811 l 1,42,-1
 813 827 l 1,43,-1
 821 841 l 1,44,-1
 830 859 l 1,45,-1
 833 881 l 1,46,-1
 845 935 l 1,47,-1
 862 971 l 1,48,-1
 860 1000 l 1,49,-1
 870 1039 l 1,50,-1
 870 1044 l 1,51,-1
 866 1063 l 1,52,-1
 854 1085 l 1,53,-1
 835 1141 l 1,54,-1
 810 1150 l 1,55,-1
 790 1155 l 1,56,-1
 789 1155 l 1,57,-1
 738 1134 l 1,58,-1
 662 1109 l 1,59,-1
 594 1064 l 1,60,-1
 574 1053 l 1,61,-1
 568 1060 l 1,62,-1
 557 1088 l 1,63,-1
 538 1074 l 1,64,-1
 517 1059 l 1,65,-1
 473 1022 l 1,66,-1
 445 983 l 1,67,-1
 377 907 l 1,68,-1
 368 875 l 1,69,-1
 342 870 l 1,70,-1
 333 847 l 1,71,-1
 321 814 l 1,72,-1
 275 759 l 1,73,-1
 265 706 l 1,74,-1
 234 671 l 1,75,-1
 227 643 l 1,76,-1
 205 603 l 1,77,-1
 180 574 l 1,78,-1
 165 545 l 1,79,-1
 159 517 l 1,80,-1
 114 350 l 1,81,-1
 109 298 l 1,82,-1
 114 264 l 1,11,-1
38 572 m 1,83,-1
 57 591 l 1,84,-1
 51 599 l 1,85,-1
 51 612 l 1,86,-1
 60 631 l 1,87,-1
 82 679 l 1,88,-1
 87 682 l 1,89,-1
 95 685 l 1,90,-1
 118 683 l 1,91,-1
 121 691 l 1,92,-1
 99 690 l 1,93,-1
 106 725 l 1,94,-1
 116 739 l 1,95,-1
 123 753 l 1,96,-1
 137 763 l 1,97,-1
 161 772 l 1,98,-1
 161 779 l 1,99,-1
 151 776 l 1,100,-1
 144 784 l 1,101,-1
 150 807 l 1,102,-1
 161 834 l 1,103,-1
 168 842 l 1,104,-1
 181 853 l 1,105,-1
 222 906 l 1,106,-1
 255 921 l 1,107,-1
 270 939 l 1,108,-1
 257 945 l 1,109,-1
 284 989 l 1,110,-1
 294 1000 l 1,111,-1
 314 1015 l 1,112,-1
 351 1057 l 1,113,-1
 369 1066 l 1,114,-1
 378 1086 l 1,115,-1
 394 1106 l 1,116,-1
 462 1168 l 1,117,-1
 557 1234 l 1,118,-1
 575 1252 l 1,119,-1
 609 1266 l 1,120,-1
 655 1305 l 1,121,-1
 677 1317 l 1,122,-1
 694 1320 l 1,123,-1
 719 1316 l 1,124,-1
 738 1308 l 1,125,-1
 735 1292 l 1,126,-1
 726 1284 l 1,127,-1
 713 1272 l 1,128,-1
 688 1262 l 1,129,-1
 678 1251 l 1,130,-1
 668 1229 l 1,131,-1
 694 1234 l 1,132,-1
 727 1241 l 1,133,-1
 755 1240 l 1,134,-1
 792 1239 l 1,135,-1
 814 1229 l 1,136,-1
 835 1223 l 1,137,-1
 868 1190 l 1,138,-1
 910 1150 l 1,139,-1
 940 1092 l 1,140,-1
 961 1030 l 1,141,-1
 978 992 l 1,142,-1
 978 990 l 1,143,-1
 974 969 l 1,144,-1
 975 946 l 1,145,-1
 968 931 l 1,146,-1
 970 898 l 1,147,-1
 962 868 l 1,148,-1
 961 833 l 1,149,-1
 946 792 l 1,150,-1
 936 772 l 1,151,-1
 940 746 l 1,152,-1
 936 737 l 1,153,-1
 919 736 l 1,154,-1
 914 732 l 1,155,-1
 911 729 l 1,156,-1
 910 689 l 1,157,-1
 907 673 l 1,158,-1
 900 661 l 1,159,-1
 888 644 l 1,160,-1
 880 600 l 1,161,-1
 867 582 l 1,162,-1
 845 537 l 1,163,-1
 827 516 l 1,164,-1
 802 495 l 1,165,-1
 796 474 l 1,166,-1
 789 459 l 1,167,-1
 756 445 l 1,168,-1
 750 417 l 1,169,-1
 704 364 l 1,170,-1
 688 338 l 1,171,-1
 657 305 l 1,172,-1
 626 268 l 1,173,-1
 608 253 l 1,174,-1
 592 243 l 1,175,-1
 588 241 l 1,176,-1
 561 238 l 1,177,-1
 559 237 l 1,178,-1
 538 215 l 1,179,-1
 518 194 l 1,180,-1
 489 178 l 1,181,-1
 463 168 l 1,182,-1
 385 135 l 1,183,-1
 348 128 l 1,184,-1
 325 129 l 1,185,-1
 311 115 l 1,186,-1
 299 112 l 1,187,-1
 292 113 l 1,188,-1
 260 126 l 1,189,-1
 241 129 l 1,190,-1
 224 121 l 1,191,-1
 220 120 l 1,192,-1
 182 136 l 1,193,-1
 136 166 l 1,194,-1
 18 296 l 1,195,-1
 6 320 l 1,196,-1
 0 407 l 1,197,-1
 0 422 l 1,198,-1
 2 456 l 1,199,-1
 13 503 l 1,200,-1
 29 531 l 1,201,-1
 29 551 l 1,202,-1
 32 563 l 1,203,-1
 38 572 l 1,83,-1
EndSplineSet
EndChar

StartChar: one
Encoding: 49 49 21
Width: 456
Flags: W
LayerCount: 2
Fore
SplineSet
360 1073 m 1,0,-1
 368 1095 l 1,1,-1
 346 1094 l 1,2,-1
 321 1100 l 1,3,-1
 310 1111 l 1,4,-1
 304 1139 l 1,5,-1
 310 1165 l 1,6,-1
 317 1175 l 1,7,-1
 341 1187 l 1,8,-1
 396 1228 l 1,9,-1
 435 1248 l 1,10,-1
 457 1277 l 1,11,-1
 484 1284 l 1,12,-1
 521 1299 l 1,13,-1
 538 1303 l 1,14,-1
 549 1300 l 1,15,-1
 572 1283 l 1,16,-1
 611 1246 l 1,17,-1
 617 1237 l 1,18,-1
 620 1223 l 1,19,-1
 618 1211 l 1,20,-1
 585 1170 l 1,21,-1
 552 1134 l 1,22,-1
 515 1065 l 1,23,-1
 484 1011 l 1,24,-1
 454 973 l 1,25,-1
 411 884 l 1,26,-1
 370 843 l 1,27,-1
 352 789 l 1,28,-1
 334 749 l 1,29,-1
 315 692 l 1,30,-1
 294 666 l 1,31,-1
 272 617 l 1,32,-1
 268 594 l 1,33,-1
 252 570 l 1,34,-1
 247 551 l 1,35,-1
 239 501 l 1,36,-1
 222 465 l 1,37,-1
 212 445 l 1,38,-1
 211 419 l 1,39,-1
 199 391 l 1,40,-1
 191 362 l 1,41,-1
 174 355 l 1,42,-1
 175 323 l 1,43,-1
 162 260 l 1,44,-1
 151 219 l 1,45,-1
 151 219 l 1,46,-1
 153 160 l 1,47,-1
 145 138 l 1,48,-1
 141 113 l 1,49,-1
 136 109 l 1,50,-1
 124 107 l 1,51,-1
 87 117 l 1,52,-1
 54 154 l 1,53,-1
 28 219 l 1,54,-1
 14 310 l 1,55,-1
 15 325 l 1,56,-1
 25 363 l 1,57,-1
 27 398 l 1,58,-1
 39 420 l 1,59,-1
 98 576 l 1,60,-1
 132 643 l 1,61,-1
 144 681 l 1,62,-1
 191 774 l 1,63,-1
 220 840 l 1,64,-1
 253 885 l 1,65,-1
 279 956 l 1,66,-1
 360 1073 l 1,0,-1
EndSplineSet
EndChar

StartChar: two
Encoding: 50 50 22
Width: 955
Flags: W
LayerCount: 2
Fore
SplineSet
897 1081 m 1,0,-1
 895 1104 l 1,1,-1
 874 1109 l 1,2,-1
 860 1111 l 1,3,-1
 826 1129 l 1,4,-1
 776 1128 l 1,5,-1
 725 1134 l 1,6,-1
 688 1127 l 1,7,-1
 656 1134 l 1,8,-1
 591 1109 l 1,9,-1
 542 1101 l 1,10,-1
 493 1074 l 1,11,-1
 467 1062 l 1,12,-1
 452 1053 l 1,13,-1
 442 1051 l 1,14,-1
 435 1051 l 1,15,-1
 412 1057 l 1,16,-1
 384 1040 l 1,17,-1
 382 1039 l 1,18,-1
 373 1042 l 1,19,-1
 359 1057 l 1,20,-1
 344 1113 l 1,21,-1
 343 1127 l 1,22,-1
 353 1157 l 1,23,-1
 377 1188 l 1,24,-1
 406 1210 l 1,25,-1
 410 1212 l 1,26,-1
 458 1215 l 1,27,-1
 495 1225 l 1,28,-1
 533 1223 l 1,29,-1
 574 1239 l 1,30,-1
 606 1239 l 1,31,-1
 672 1247 l 1,32,-1
 757 1238 l 1,33,-1
 844 1229 l 1,34,-1
 865 1219 l 1,35,-1
 893 1199 l 1,36,-1
 910 1182 l 1,37,-1
 940 1135 l 1,38,-1
 970 1092 l 1,39,-1
 982 1047 l 1,40,-1
 978 1026 l 1,41,-1
 957 992 l 1,42,-1
 940 959 l 1,43,-1
 907 918 l 1,44,-1
 874 897 l 1,45,-1
 863 895 l 1,46,-1
 825 894 l 1,47,-1
 822 893 l 1,48,-1
 788 866 l 1,49,-1
 741 837 l 1,50,-1
 701 813 l 1,51,-1
 683 802 l 1,52,-1
 657 792 l 1,53,-1
 624 760 l 1,54,-1
 594 759 l 1,55,-1
 584 756 l 1,56,-1
 574 750 l 1,57,-1
 490 678 l 1,58,-1
 449 665 l 1,59,-1
 419 638 l 1,60,-1
 388 628 l 1,61,-1
 372 605 l 1,62,-1
 351 596 l 1,63,-1
 320 571 l 1,64,-1
 262 515 l 1,65,-1
 238 506 l 1,66,-1
 225 491 l 1,67,-1
 203 478 l 1,68,-1
 176 448 l 1,69,-1
 156 432 l 1,70,-1
 140 402 l 1,71,-1
 128 384 l 1,72,-1
 118 377 l 1,73,-1
 98 371 l 1,74,-1
 98 347 l 1,75,-1
 106 325 l 1,76,-1
 112 319 l 1,77,-1
 119 317 l 1,78,-1
 146 320 l 1,79,-1
 186 325 l 1,80,-1
 204 332 l 1,81,-1
 223 337 l 1,82,-1
 255 334 l 1,83,-1
 338 353 l 1,84,-1
 371 355 l 1,85,-1
 418 372 l 1,86,-1
 448 372 l 1,87,-1
 481 385 l 1,88,-1
 516 385 l 1,89,-1
 561 392 l 1,90,-1
 585 394 l 1,91,-1
 608 392 l 1,92,-1
 639 387 l 1,93,-1
 711 391 l 1,94,-1
 752 381 l 1,95,-1
 772 374 l 1,96,-1
 780 353 l 1,97,-1
 810 292 l 1,98,-1
 807 262 l 1,99,-1
 803 225 l 1,100,-1
 778 204 l 1,101,-1
 766 201 l 1,102,-1
 752 204 l 1,103,-1
 737 216 l 1,104,-1
 723 237 l 1,105,-1
 710 232 l 1,106,-1
 689 237 l 1,107,-1
 661 234 l 1,108,-1
 636 249 l 1,109,-1
 602 243 l 1,110,-1
 577 249 l 1,111,-1
 522 233 l 1,112,-1
 459 228 l 1,113,-1
 399 214 l 1,114,-1
 352 213 l 1,115,-1
 309 196 l 1,116,-1
 278 202 l 1,117,-1
 236 193 l 1,118,-1
 207 193 l 1,119,-1
 172 187 l 1,120,-1
 134 178 l 1,121,-1
 128 179 l 1,122,-1
 101 198 l 1,123,-1
 92 176 l 1,124,-1
 83 167 l 1,125,-1
 70 165 l 1,126,-1
 56 166 l 1,127,-1
 26 171 l 1,128,-1
 -7 191 l 1,129,-1
 -27 194 l 1,130,-1
 -41 223 l 1,131,-1
 -63 272 l 1,132,-1
 -68 304 l 1,133,-1
 -58 371 l 1,134,-1
 -44 412 l 1,135,-1
 -39 420 l 1,136,-1
 -13 446 l 1,137,-1
 5 478 l 1,138,-1
 29 501 l 1,139,-1
 41 517 l 1,140,-1
 149 615 l 1,141,-1
 175 643 l 1,142,-1
 208 663 l 1,143,-1
 250 695 l 1,144,-1
 281 722 l 1,145,-1
 324 753 l 1,146,-1
 403 807 l 1,147,-1
 437 823 l 1,148,-1
 459 842 l 1,149,-1
 494 851 l 1,150,-1
 511 862 l 1,151,-1
 546 880 l 1,152,-1
 570 896 l 1,153,-1
 595 903 l 1,154,-1
 677 948 l 1,155,-1
 729 966 l 1,156,-1
 763 992 l 1,157,-1
 814 1014 l 1,158,-1
 834 1031 l 1,159,-1
 892 1068 l 1,160,-1
 897 1081 l 1,0,-1
EndSplineSet
EndChar

StartChar: three
Encoding: 51 51 23
Width: 897
Flags: W
LayerCount: 2
Fore
SplineSet
500 477 m 1,0,-1
 523 481 l 1,1,-1
 537 496 l 1,2,-1
 569 503 l 1,3,-1
 578 519 l 1,4,-1
 587 528 l 1,5,-1
 600 518 l 1,6,-1
 613 536 l 1,7,-1
 657 571 l 1,8,-1
 669 586 l 1,9,-1
 705 604 l 1,10,-1
 722 619 l 1,11,-1
 748 659 l 1,12,-1
 749 662 l 1,13,-1
 749 663 l 1,14,-1
 745 688 l 1,15,-1
 751 715 l 1,16,-1
 731 735 l 1,17,-1
 714 755 l 1,18,-1
 692 767 l 1,19,-1
 672 778 l 1,20,-1
 646 769 l 1,21,-1
 620 781 l 1,22,-1
 580 780 l 1,23,-1
 556 781 l 1,24,-1
 539 775 l 1,25,-1
 511 781 l 1,26,-1
 493 772 l 1,27,-1
 415 769 l 1,28,-1
 312 756 l 1,29,-1
 310 756 l 1,30,-1
 265 775 l 1,31,-1
 244 786 l 1,32,-1
 231 803 l 1,33,-1
 200 862 l 1,34,-1
 198 876 l 1,35,-1
 200 887 l 1,36,-1
 214 914 l 1,37,-1
 241 913 l 1,38,-1
 292 933 l 1,39,-1
 340 942 l 1,40,-1
 395 956 l 1,41,-1
 463 983 l 1,42,-1
 512 1001 l 1,43,-1
 537 1026 l 1,44,-1
 561 1028 l 1,45,-1
 604 1040 l 1,46,-1
 636 1055 l 1,47,-1
 713 1090 l 1,48,-1
 732 1102 l 1,49,-1
 715 1108 l 1,50,-1
 669 1100 l 1,51,-1
 650 1105 l 1,52,-1
 626 1094 l 1,53,-1
 611 1104 l 1,54,-1
 587 1089 l 1,55,-1
 574 1096 l 1,56,-1
 556 1091 l 1,57,-1
 532 1098 l 1,58,-1
 510 1104 l 1,59,-1
 493 1090 l 1,60,-1
 484 1085 l 1,61,-1
 482 1084 l 1,62,-1
 480 1085 l 1,63,-1
 460 1088 l 1,64,-1
 445 1088 l 1,65,-1
 426 1095 l 1,66,-1
 419 1096 l 1,67,-1
 385 1088 l 1,68,-1
 335 1077 l 1,69,-1
 279 1076 l 1,70,-1
 235 1063 l 1,71,-1
 228 1063 l 1,72,-1
 217 1064 l 1,73,-1
 188 1085 l 1,74,-1
 173 1095 l 1,75,-1
 157 1119 l 1,76,-1
 139 1141 l 1,77,-1
 135 1160 l 1,78,-1
 141 1183 l 1,79,-1
 159 1201 l 1,80,-1
 168 1204 l 1,81,-1
 170 1204 l 1,82,-1
 213 1199 l 1,83,-1
 317 1198 l 1,84,-1
 337 1181 l 1,85,-1
 381 1187 l 1,86,-1
 400 1201 l 1,87,-1
 408 1191 l 1,88,-1
 485 1191 l 1,89,-1
 581 1194 l 1,90,-1
 585 1194 l 1,91,-1
 648 1190 l 1,92,-1
 704 1196 l 1,93,-1
 728 1194 l 1,94,-1
 752 1195 l 1,95,-1
 765 1188 l 1,96,-1
 789 1192 l 1,97,-1
 833 1182 l 1,98,-1
 868 1147 l 1,99,-1
 886 1112 l 1,100,-1
 897 1076 l 1,101,-1
 897 1075 l 1,102,-1
 889 1049 l 1,103,-1
 882 1030 l 1,104,-1
 844 1008 l 1,105,-1
 828 996 l 1,106,-1
 779 973 l 1,107,-1
 735 946 l 1,108,-1
 718 942 l 1,109,-1
 689 932 l 1,110,-1
 663 930 l 1,111,-1
 638 912 l 1,112,-1
 611 912 l 1,113,-1
 605 903 l 1,114,-1
 590 891 l 1,115,-1
 625 878 l 1,116,-1
 687 858 l 1,117,-1
 717 829 l 1,118,-1
 755 803 l 1,119,-1
 768 781 l 1,120,-1
 791 763 l 1,121,-1
 796 754 l 1,122,-1
 799 746 l 1,123,-1
 805 704 l 1,124,-1
 809 681 l 1,125,-1
 800 649 l 1,126,-1
 808 630 l 1,127,-1
 812 611 l 1,128,-1
 803 584 l 1,129,-1
 799 552 l 1,130,-1
 781 532 l 1,131,-1
 765 500 l 1,132,-1
 746 483 l 1,133,-1
 728 451 l 1,134,-1
 699 431 l 1,135,-1
 669 390 l 1,136,-1
 637 384 l 1,137,-1
 612 351 l 1,138,-1
 543 337 l 1,139,-1
 531 316 l 1,140,-1
 486 296 l 1,141,-1
 442 262 l 1,142,-1
 426 259 l 1,143,-1
 414 262 l 1,144,-1
 395 274 l 1,145,-1
 376 263 l 1,146,-1
 337 229 l 1,147,-1
 312 229 l 1,148,-1
 276 217 l 1,149,-1
 253 214 l 1,150,-1
 219 196 l 1,151,-1
 197 208 l 1,152,-1
 184 210 l 1,153,-1
 167 198 l 1,154,-1
 112 163 l 1,155,-1
 104 162 l 1,156,-1
 2 162 l 1,157,-1
 -18 154 l 1,158,-1
 -50 165 l 1,159,-1
 -72 168 l 1,160,-1
 -84 189 l 1,161,-1
 -97 208 l 1,162,-1
 -103 228 l 1,163,-1
 -134 303 l 1,164,-1
 -137 313 l 1,165,-1
 -133 328 l 1,166,-1
 -123 338 l 1,167,-1
 -113 340 l 1,168,-1
 -110 340 l 1,169,-1
 -87 336 l 1,170,-1
 -64 348 l 1,171,-1
 -45 348 l 1,172,-1
 -15 351 l 1,173,-1
 11 342 l 1,174,-1
 14 341 l 1,175,-1
 62 346 l 1,176,-1
 91 351 l 1,177,-1
 110 359 l 1,178,-1
 134 373 l 1,179,-1
 218 381 l 1,180,-1
 334 410 l 1,181,-1
 390 428 l 1,182,-1
 459 464 l 1,183,-1
 500 477 l 1,0,-1
EndSplineSet
EndChar

StartChar: four
Encoding: 52 52 24
Width: 1038
Flags: W
LayerCount: 2
Fore
SplineSet
159 850 m 1,0,-1
 182 854 l 1,1,-1
 185 880 l 1,2,-1
 192 903 l 1,3,-1
 198 909 l 1,4,-1
 229 932 l 1,5,-1
 286 987 l 1,6,-1
 310 989 l 1,7,-1
 320 1010 l 1,8,-1
 334 1024 l 1,9,-1
 344 1027 l 1,10,-1
 364 1022 l 1,11,-1
 368 1030 l 1,12,-1
 364 1053 l 1,13,-1
 387 1078 l 1,14,-1
 410 1103 l 1,15,-1
 429 1115 l 1,16,-1
 458 1146 l 1,17,-1
 490 1164 l 1,18,-1
 532 1215 l 1,19,-1
 557 1225 l 1,20,-1
 580 1237 l 1,21,-1
 586 1245 l 1,22,-1
 591 1295 l 1,23,-1
 622 1284 l 1,24,-1
 627 1290 l 1,25,-1
 634 1290 l 1,26,-1
 644 1268 l 1,27,-1
 645 1262 l 1,28,-1
 640 1244 l 1,29,-1
 635 1237 l 1,30,-1
 615 1231 l 1,31,-1
 606 1209 l 1,32,-1
 593 1159 l 1,33,-1
 550 1121 l 1,34,-1
 539 1094 l 1,35,-1
 527 1069 l 1,36,-1
 509 1070 l 1,37,-1
 500 1055 l 1,38,-1
 494 1033 l 1,39,-1
 491 1013 l 1,40,-1
 459 1008 l 1,41,-1
 458 1006 l 1,42,-1
 453 994 l 1,43,-1
 448 974 l 1,44,-1
 427 965 l 1,45,-1
 413 929 l 1,46,-1
 396 917 l 1,47,-1
 375 892 l 1,48,-1
 346 872 l 1,49,-1
 293 795 l 1,50,-1
 277 776 l 1,51,-1
 271 753 l 1,52,-1
 292 747 l 1,53,-1
 367 730 l 1,54,-1
 414 710 l 1,55,-1
 508 698 l 1,56,-1
 522 699 l 1,57,-1
 554 700 l 1,58,-1
 564 719 l 1,59,-1
 598 777 l 1,60,-1
 612 796 l 1,61,-1
 633 822 l 1,62,-1
 636 845 l 1,63,-1
 640 856 l 1,64,-1
 644 860 l 1,65,-1
 664 867 l 1,66,-1
 681 894 l 1,67,-1
 678 912 l 1,68,-1
 694 931 l 1,69,-1
 716 978 l 1,70,-1
 730 1001 l 1,71,-1
 740 1038 l 1,72,-1
 755 1056 l 1,73,-1
 766 1073 l 1,74,-1
 800 1097 l 1,75,-1
 806 1138 l 1,76,-1
 817 1148 l 1,77,-1
 821 1170 l 1,78,-1
 826 1179 l 1,79,-1
 835 1186 l 1,80,-1
 852 1193 l 1,81,-1
 859 1203 l 1,82,-1
 868 1207 l 1,83,-1
 862 1239 l 1,84,-1
 876 1281 l 1,85,-1
 887 1321 l 1,86,-1
 908 1347 l 1,87,-1
 929 1339 l 1,88,-1
 959 1312 l 1,89,-1
 980 1248 l 1,90,-1
 980 1204 l 1,91,-1
 970 1185 l 1,92,-1
 942 1142 l 1,93,-1
 916 1078 l 1,94,-1
 897 1066 l 1,95,-1
 893 1045 l 1,96,-1
 874 992 l 1,97,-1
 860 966 l 1,98,-1
 844 949 l 1,99,-1
 830 906 l 1,100,-1
 797 897 l 1,101,-1
 791 869 l 1,102,-1
 788 847 l 1,103,-1
 779 835 l 1,104,-1
 771 816 l 1,105,-1
 752 806 l 1,106,-1
 745 799 l 1,107,-1
 744 796 l 1,108,-1
 739 762 l 1,109,-1
 726 733 l 1,110,-1
 728 712 l 1,111,-1
 754 714 l 1,112,-1
 773 716 l 1,113,-1
 805 735 l 1,114,-1
 862 754 l 1,115,-1
 884 761 l 1,116,-1
 901 748 l 1,117,-1
 930 740 l 1,118,-1
 956 720 l 1,119,-1
 990 702 l 1,120,-1
 995 692 l 1,121,-1
 997 682 l 1,122,-1
 995 670 l 1,123,-1
 986 658 l 1,124,-1
 976 651 l 1,125,-1
 949 640 l 1,126,-1
 928 626 l 1,127,-1
 844 601 l 1,128,-1
 803 578 l 1,129,-1
 777 591 l 1,130,-1
 755 580 l 1,131,-1
 740 576 l 1,132,-1
 715 576 l 1,133,-1
 690 570 l 1,134,-1
 667 574 l 1,135,-1
 646 544 l 1,136,-1
 618 479 l 1,137,-1
 600 448 l 1,138,-1
 596 414 l 1,139,-1
 585 391 l 1,140,-1
 578 363 l 1,141,-1
 570 343 l 1,142,-1
 555 348 l 1,143,-1
 552 306 l 1,144,-1
 541 300 l 1,145,-1
 541 277 l 1,146,-1
 525 233 l 1,147,-1
 523 198 l 1,148,-1
 515 171 l 1,149,-1
 519 102 l 1,150,-1
 513 65 l 1,151,-1
 509 53 l 1,152,-1
 508 51 l 1,153,-1
 491 44 l 1,154,-1
 490 32 l 1,155,-1
 487 28 l 1,156,-1
 484 26 l 1,157,-1
 481 26 l 1,158,-1
 479 26 l 1,159,-1
 459 38 l 1,160,-1
 424 55 l 1,161,-1
 392 96 l 1,162,-1
 334 155 l 1,163,-1
 327 172 l 1,164,-1
 325 187 l 1,165,-1
 333 215 l 1,166,-1
 348 238 l 1,167,-1
 355 264 l 1,168,-1
 372 295 l 1,169,-1
 383 321 l 1,170,-1
 394 333 l 1,171,-1
 411 345 l 1,172,-1
 403 366 l 1,173,-1
 403 368 l 1,174,-1
 410 397 l 1,175,-1
 427 432 l 1,176,-1
 474 495 l 1,177,-1
 486 543 l 1,178,-1
 505 597 l 1,179,-1
 502 606 l 1,180,-1
 497 611 l 1,181,-1
 486 614 l 1,182,-1
 466 611 l 1,183,-1
 437 609 l 1,184,-1
 423 610 l 1,185,-1
 415 613 l 1,186,-1
 378 638 l 1,187,-1
 339 639 l 1,188,-1
 318 647 l 1,189,-1
 304 661 l 1,190,-1
 227 646 l 1,191,-1
 217 661 l 1,192,-1
 197 655 l 1,193,-1
 162 650 l 1,194,-1
 148 652 l 1,195,-1
 122 666 l 1,196,-1
 91 684 l 1,197,-1
 68 708 l 1,198,-1
 55 748 l 1,199,-1
 59 766 l 1,200,-1
 65 774 l 1,201,-1
 88 786 l 1,202,-1
 159 850 l 1,0,-1
EndSplineSet
EndChar

StartChar: five
Encoding: 53 53 25
Width: 879
Flags: W
LayerCount: 2
Fore
SplineSet
-136 265 m 1,0,-1
 -135 284 l 1,1,-1
 -110 286 l 1,2,-1
 -55 257 l 1,3,-1
 -38 256 l 1,4,-1
 -13 250 l 1,5,-1
 7 259 l 1,6,-1
 41 251 l 1,7,-1
 65 260 l 1,8,-1
 85 256 l 1,9,-1
 107 270 l 1,10,-1
 125 265 l 1,11,-1
 156 273 l 1,12,-1
 192 275 l 1,13,-1
 216 288 l 1,14,-1
 254 295 l 1,15,-1
 306 321 l 1,16,-1
 327 325 l 1,17,-1
 337 342 l 1,18,-1
 368 358 l 1,19,-1
 389 378 l 1,20,-1
 434 409 l 1,21,-1
 506 458 l 1,22,-1
 532 480 l 1,23,-1
 556 487 l 1,24,-1
 585 518 l 1,25,-1
 605 526 l 1,26,-1
 613 549 l 1,27,-1
 629 565 l 1,28,-1
 657 611 l 1,29,-1
 676 645 l 1,30,-1
 681 666 l 1,31,-1
 689 679 l 1,32,-1
 695 713 l 1,33,-1
 702 749 l 1,34,-1
 699 768 l 1,35,-1
 694 799 l 1,36,-1
 685 810 l 1,37,-1
 665 825 l 1,38,-1
 594 840 l 1,39,-1
 540 835 l 1,40,-1
 514 825 l 1,41,-1
 490 820 l 1,42,-1
 470 809 l 1,43,-1
 436 810 l 1,44,-1
 418 799 l 1,45,-1
 396 792 l 1,46,-1
 389 807 l 1,47,-1
 372 793 l 1,48,-1
 342 776 l 1,49,-1
 314 753 l 1,50,-1
 287 745 l 1,51,-1
 225 702 l 1,52,-1
 202 697 l 1,53,-1
 190 699 l 1,54,-1
 159 728 l 1,55,-1
 118 780 l 1,56,-1
 106 818 l 1,57,-1
 108 833 l 1,58,-1
 123 851 l 1,59,-1
 140 851 l 1,60,-1
 143 874 l 1,61,-1
 164 878 l 1,62,-1
 180 892 l 1,63,-1
 190 898 l 1,64,-1
 219 955 l 1,65,-1
 244 975 l 1,66,-1
 266 1002 l 1,67,-1
 281 1019 l 1,68,-1
 297 1054 l 1,69,-1
 334 1097 l 1,70,-1
 344 1146 l 1,71,-1
 365 1160 l 1,72,-1
 371 1192 l 1,73,-1
 394 1214 l 1,74,-1
 415 1247 l 1,75,-1
 429 1256 l 1,76,-1
 437 1258 l 1,77,-1
 441 1257 l 1,78,-1
 450 1242 l 1,79,-1
 460 1219 l 1,80,-1
 457 1210 l 1,81,-1
 479 1207 l 1,82,-1
 512 1223 l 1,83,-1
 533 1227 l 1,84,-1
 541 1245 l 1,85,-1
 587 1246 l 1,86,-1
 640 1260 l 1,87,-1
 696 1282 l 1,88,-1
 699 1282 l 1,89,-1
 722 1269 l 1,90,-1
 743 1274 l 1,91,-1
 794 1292 l 1,92,-1
 837 1300 l 1,93,-1
 854 1311 l 1,94,-1
 927 1330 l 1,95,-1
 950 1343 l 1,96,-1
 973 1336 l 1,97,-1
 990 1348 l 1,98,-1
 1006 1353 l 1,99,-1
 1021 1349 l 1,100,-1
 1031 1342 l 1,101,-1
 1035 1336 l 1,102,-1
 1039 1273 l 1,103,-1
 1043 1225 l 1,104,-1
 1043 1222 l 1,105,-1
 1038 1203 l 1,106,-1
 1026 1191 l 1,107,-1
 1013 1187 l 1,108,-1
 1011 1187 l 1,109,-1
 976 1197 l 1,110,-1
 944 1184 l 1,111,-1
 891 1167 l 1,112,-1
 815 1146 l 1,113,-1
 782 1146 l 1,114,-1
 745 1132 l 1,115,-1
 707 1130 l 1,116,-1
 605 1090 l 1,117,-1
 568 1083 l 1,118,-1
 541 1074 l 1,119,-1
 518 1074 l 1,120,-1
 483 1063 l 1,121,-1
 443 1069 l 1,122,-1
 416 1049 l 1,123,-1
 393 1042 l 1,124,-1
 372 1016 l 1,125,-1
 350 1021 l 1,126,-1
 352 1000 l 1,127,-1
 349 983 l 1,128,-1
 336 964 l 1,129,-1
 320 948 l 1,130,-1
 318 936 l 1,131,-1
 318 934 l 1,132,-1
 318 919 l 1,133,-1
 341 922 l 1,134,-1
 355 923 l 1,135,-1
 371 937 l 1,136,-1
 394 936 l 1,137,-1
 418 933 l 1,138,-1
 422 933 l 1,139,-1
 440 952 l 1,140,-1
 460 947 l 1,141,-1
 479 943 l 1,142,-1
 581 945 l 1,143,-1
 600 937 l 1,144,-1
 636 929 l 1,145,-1
 659 912 l 1,146,-1
 688 904 l 1,147,-1
 718 884 l 1,148,-1
 741 852 l 1,149,-1
 764 811 l 1,150,-1
 784 727 l 1,151,-1
 802 667 l 1,152,-1
 804 642 l 1,153,-1
 799 604 l 1,154,-1
 785 578 l 1,155,-1
 767 559 l 1,156,-1
 765 536 l 1,157,-1
 763 517 l 1,158,-1
 719 458 l 1,159,-1
 703 421 l 1,160,-1
 696 414 l 1,161,-1
 692 412 l 1,162,-1
 662 415 l 1,163,-1
 647 382 l 1,164,-1
 634 353 l 1,165,-1
 609 344 l 1,166,-1
 588 310 l 1,167,-1
 561 304 l 1,168,-1
 555 301 l 1,169,-1
 539 281 l 1,170,-1
 527 264 l 1,171,-1
 520 264 l 1,172,-1
 509 276 l 1,173,-1
 483 263 l 1,174,-1
 465 243 l 1,175,-1
 450 232 l 1,176,-1
 436 228 l 1,177,-1
 416 230 l 1,178,-1
 377 193 l 1,179,-1
 363 190 l 1,180,-1
 339 194 l 1,181,-1
 326 174 l 1,182,-1
 299 164 l 1,183,-1
 263 134 l 1,184,-1
 255 130 l 1,185,-1
 252 130 l 1,186,-1
 250 130 l 1,187,-1
 233 143 l 1,188,-1
 200 120 l 1,189,-1
 178 120 l 1,190,-1
 157 107 l 1,191,-1
 128 119 l 1,192,-1
 101 104 l 1,193,-1
 62 111 l 1,194,-1
 34 107 l 1,195,-1
 16 114 l 1,196,-1
 1 114 l 1,197,-1
 -10 124 l 1,198,-1
 -34 118 l 1,199,-1
 -37 120 l 1,200,-1
 -67 151 l 1,201,-1
 -100 192 l 1,202,-1
 -134 247 l 1,203,-1
 -137 262 l 1,204,-1
 -136 265 l 1,0,-1
EndSplineSet
EndChar

StartChar: six
Encoding: 54 54 26
Width: 915
Flags: W
LayerCount: 2
Fore
SplineSet
332 303 m 1,0,-1
 349 319 l 1,1,-1
 376 320 l 1,2,-1
 397 344 l 1,3,-1
 417 351 l 1,4,-1
 460 381 l 1,5,-1
 481 405 l 1,6,-1
 546 456 l 1,7,-1
 574 490 l 1,8,-1
 592 502 l 1,9,-1
 611 509 l 1,10,-1
 620 515 l 1,11,-1
 623 521 l 1,12,-1
 627 539 l 1,13,-1
 649 557 l 1,14,-1
 670 584 l 1,15,-1
 687 602 l 1,16,-1
 696 620 l 1,17,-1
 714 635 l 1,18,-1
 716 654 l 1,19,-1
 728 671 l 1,20,-1
 736 688 l 1,21,-1
 734 696 l 1,22,-1
 729 701 l 1,23,-1
 720 705 l 1,24,-1
 698 711 l 1,25,-1
 677 704 l 1,26,-1
 656 712 l 1,27,-1
 630 706 l 1,28,-1
 604 709 l 1,29,-1
 578 697 l 1,30,-1
 560 694 l 1,31,-1
 541 684 l 1,32,-1
 520 691 l 1,33,-1
 496 676 l 1,34,-1
 476 682 l 1,35,-1
 460 666 l 1,36,-1
 448 660 l 1,37,-1
 441 659 l 1,38,-1
 400 660 l 1,39,-1
 356 622 l 1,40,-1
 323 615 l 1,41,-1
 298 592 l 1,42,-1
 285 576 l 1,43,-1
 266 585 l 1,44,-1
 263 586 l 1,45,-1
 255 584 l 1,46,-1
 251 581 l 1,47,-1
 214 534 l 1,48,-1
 189 519 l 1,49,-1
 176 502 l 1,50,-1
 164 484 l 1,51,-1
 150 490 l 1,52,-1
 139 467 l 1,53,-1
 121 431 l 1,54,-1
 93 362 l 1,55,-1
 82 342 l 1,56,-1
 77 317 l 1,57,-1
 67 295 l 1,58,-1
 66 288 l 1,59,-1
 72 268 l 1,60,-1
 93 248 l 1,61,-1
 105 244 l 1,62,-1
 108 244 l 1,63,-1
 182 254 l 1,64,-1
 226 251 l 1,65,-1
 257 260 l 1,66,-1
 283 276 l 1,67,-1
 316 290 l 1,68,-1
 332 303 l 1,0,-1
126 719 m 1,69,-1
 145 727 l 1,70,-1
 156 749 l 1,71,-1
 176 790 l 1,72,-1
 218 838 l 1,73,-1
 232 862 l 1,74,-1
 244 874 l 1,75,-1
 259 881 l 1,76,-1
 280 886 l 1,77,-1
 279 918 l 1,78,-1
 285 934 l 1,79,-1
 292 941 l 1,80,-1
 326 966 l 1,81,-1
 371 1009 l 1,82,-1
 393 1026 l 1,83,-1
 419 1058 l 1,84,-1
 454 1086 l 1,85,-1
 468 1111 l 1,86,-1
 505 1135 l 1,87,-1
 527 1161 l 1,88,-1
 577 1191 l 1,89,-1
 587 1211 l 1,90,-1
 649 1229 l 1,91,-1
 656 1247 l 1,92,-1
 670 1257 l 1,93,-1
 687 1275 l 1,94,-1
 746 1301 l 1,95,-1
 800 1336 l 1,96,-1
 825 1340 l 1,97,-1
 848 1346 l 1,98,-1
 870 1335 l 1,99,-1
 888 1317 l 1,100,-1
 911 1287 l 1,101,-1
 915 1264 l 1,102,-1
 910 1243 l 1,103,-1
 895 1228 l 1,104,-1
 887 1224 l 1,105,-1
 827 1220 l 1,106,-1
 814 1213 l 1,107,-1
 803 1207 l 1,108,-1
 771 1174 l 1,109,-1
 762 1170 l 1,110,-1
 758 1169 l 1,111,-1
 728 1170 l 1,112,-1
 705 1138 l 1,113,-1
 667 1115 l 1,114,-1
 638 1077 l 1,115,-1
 604 1063 l 1,116,-1
 584 1041 l 1,117,-1
 557 1032 l 1,118,-1
 539 1006 l 1,119,-1
 512 989 l 1,120,-1
 500 973 l 1,121,-1
 480 952 l 1,122,-1
 464 906 l 1,123,-1
 436 892 l 1,124,-1
 415 849 l 1,125,-1
 384 827 l 1,126,-1
 363 795 l 1,127,-1
 353 792 l 1,128,-1
 348 793 l 1,129,-1
 328 805 l 1,130,-1
 328 770 l 1,131,-1
 314 757 l 1,132,-1
 306 738 l 1,133,-1
 291 717 l 1,134,-1
 324 718 l 1,135,-1
 343 739 l 1,136,-1
 386 761 l 1,137,-1
 484 783 l 1,138,-1
 525 801 l 1,139,-1
 570 805 l 1,140,-1
 622 812 l 1,141,-1
 645 815 l 1,142,-1
 653 803 l 1,143,-1
 701 809 l 1,144,-1
 707 796 l 1,145,-1
 718 801 l 1,146,-1
 749 787 l 1,147,-1
 760 774 l 1,148,-1
 820 694 l 1,149,-1
 837 640 l 1,150,-1
 842 605 l 1,151,-1
 841 596 l 1,152,-1
 830 566 l 1,153,-1
 827 538 l 1,154,-1
 821 526 l 1,155,-1
 815 521 l 1,156,-1
 794 517 l 1,157,-1
 784 497 l 1,158,-1
 774 477 l 1,159,-1
 764 467 l 1,160,-1
 748 446 l 1,161,-1
 719 431 l 1,162,-1
 693 385 l 1,163,-1
 654 342 l 1,164,-1
 609 302 l 1,165,-1
 574 271 l 1,166,-1
 556 265 l 1,167,-1
 535 258 l 1,168,-1
 539 245 l 1,169,-1
 538 241 l 1,170,-1
 523 226 l 1,171,-1
 513 221 l 1,172,-1
 486 222 l 1,173,-1
 480 207 l 1,174,-1
 458 198 l 1,175,-1
 398 167 l 1,176,-1
 380 155 l 1,177,-1
 357 152 l 1,178,-1
 308 138 l 1,179,-1
 301 137 l 1,180,-1
 286 139 l 1,181,-1
 262 148 l 1,182,-1
 230 139 l 1,183,-1
 205 149 l 1,184,-1
 167 155 l 1,185,-1
 143 168 l 1,186,-1
 126 173 l 1,187,-1
 100 185 l 1,188,-1
 87 203 l 1,189,-1
 60 219 l 1,190,-1
 40 241 l 1,191,-1
 16 270 l 1,192,-1
 12 279 l 1,193,-1
 4 315 l 1,194,-1
 -15 342 l 1,195,-1
 -20 380 l 1,196,-1
 -27 412 l 1,197,-1
 -27 417 l 1,198,-1
 -16 469 l 1,199,-1
 19 538 l 1,200,-1
 22 564 l 1,201,-1
 30 584 l 1,202,-1
 65 631 l 1,203,-1
 86 660 l 1,204,-1
 101 673 l 1,205,-1
 108 693 l 1,206,-1
 116 710 l 1,207,-1
 126 719 l 1,69,-1
EndSplineSet
EndChar

StartChar: seven
Encoding: 55 55 27
Width: 842
Flags: W
LayerCount: 2
Fore
SplineSet
251 607 m 1,0,-1
 264 630 l 1,1,-1
 284 640 l 1,2,-1
 300 651 l 1,3,-1
 303 656 l 1,4,-1
 318 683 l 1,5,-1
 344 710 l 1,6,-1
 436 813 l 1,7,-1
 523 893 l 1,8,-1
 570 936 l 1,9,-1
 614 965 l 1,10,-1
 629 993 l 1,11,-1
 688 1030 l 1,12,-1
 738 1074 l 1,13,-1
 788 1101 l 1,14,-1
 820 1140 l 1,15,-1
 865 1179 l 1,16,-1
 865 1181 l 1,17,-1
 863 1184 l 1,18,-1
 860 1186 l 1,19,-1
 836 1192 l 1,20,-1
 815 1201 l 1,21,-1
 775 1203 l 1,22,-1
 758 1202 l 1,23,-1
 728 1186 l 1,24,-1
 680 1203 l 1,25,-1
 645 1187 l 1,26,-1
 614 1199 l 1,27,-1
 579 1188 l 1,28,-1
 532 1185 l 1,29,-1
 509 1177 l 1,30,-1
 472 1175 l 1,31,-1
 436 1160 l 1,32,-1
 377 1162 l 1,33,-1
 291 1142 l 1,34,-1
 265 1142 l 1,35,-1
 241 1139 l 1,36,-1
 192 1143 l 1,37,-1
 173 1147 l 1,38,-1
 170 1156 l 1,39,-1
 160 1164 l 1,40,-1
 157 1173 l 1,41,-1
 135 1236 l 1,42,-1
 135 1241 l 1,43,-1
 140 1275 l 1,44,-1
 147 1295 l 1,45,-1
 165 1313 l 1,46,-1
 191 1320 l 1,47,-1
 204 1319 l 1,48,-1
 227 1313 l 1,49,-1
 256 1307 l 1,50,-1
 327 1278 l 1,51,-1
 361 1283 l 1,52,-1
 396 1280 l 1,53,-1
 462 1287 l 1,54,-1
 484 1288 l 1,55,-1
 495 1296 l 1,56,-1
 522 1293 l 1,57,-1
 556 1291 l 1,58,-1
 612 1297 l 1,59,-1
 617 1301 l 1,60,-1
 624 1313 l 1,61,-1
 664 1308 l 1,62,-1
 769 1307 l 1,63,-1
 854 1296 l 1,64,-1
 875 1300 l 1,65,-1
 896 1293 l 1,66,-1
 939 1267 l 1,67,-1
 968 1227 l 1,68,-1
 976 1200 l 1,69,-1
 977 1163 l 1,70,-1
 979 1134 l 1,71,-1
 971 1108 l 1,72,-1
 965 1089 l 1,73,-1
 957 1078 l 1,74,-1
 946 1069 l 1,75,-1
 917 1051 l 1,76,-1
 900 1026 l 1,77,-1
 878 1017 l 1,78,-1
 813 950 l 1,79,-1
 769 929 l 1,80,-1
 729 885 l 1,81,-1
 703 883 l 1,82,-1
 681 842 l 1,83,-1
 651 832 l 1,84,-1
 614 786 l 1,85,-1
 591 774 l 1,86,-1
 563 748 l 1,87,-1
 531 707 l 1,88,-1
 459 634 l 1,89,-1
 439 600 l 1,90,-1
 418 598 l 1,91,-1
 401 555 l 1,92,-1
 376 547 l 1,93,-1
 351 501 l 1,94,-1
 294 413 l 1,95,-1
 249 317 l 1,96,-1
 227 296 l 1,97,-1
 219 282 l 1,98,-1
 217 265 l 1,99,-1
 217 256 l 1,100,-1
 226 208 l 1,101,-1
 226 198 l 1,102,-1
 223 179 l 1,103,-1
 216 173 l 1,104,-1
 207 170 l 1,105,-1
 201 172 l 1,106,-1
 196 175 l 1,107,-1
 173 202 l 1,108,-1
 142 229 l 1,109,-1
 118 263 l 1,110,-1
 109 307 l 1,111,-1
 110 312 l 1,112,-1
 115 348 l 1,113,-1
 118 383 l 1,114,-1
 147 433 l 1,115,-1
 150 463 l 1,116,-1
 174 499 l 1,117,-1
 210 548 l 1,118,-1
 242 589 l 1,119,-1
 251 607 l 1,0,-1
EndSplineSet
EndChar

StartChar: eight
Encoding: 56 56 28
Width: 888
Flags: W
LayerCount: 2
Fore
SplineSet
292 268 m 1,0,-1
 319 288 l 1,1,-1
 340 291 l 1,2,-1
 371 311 l 1,3,-1
 409 326 l 1,4,-1
 424 341 l 1,5,-1
 470 374 l 1,6,-1
 492 404 l 1,7,-1
 543 436 l 1,8,-1
 574 466 l 1,9,-1
 595 475 l 1,10,-1
 593 498 l 1,11,-1
 597 513 l 1,12,-1
 601 519 l 1,13,-1
 634 552 l 1,14,-1
 648 573 l 1,15,-1
 657 583 l 1,16,-1
 671 616 l 1,17,-1
 686 643 l 1,18,-1
 693 688 l 1,19,-1
 699 714 l 1,20,-1
 698 745 l 1,21,-1
 692 790 l 1,22,-1
 682 807 l 1,23,-1
 670 830 l 1,24,-1
 652 848 l 1,25,-1
 631 871 l 1,26,-1
 627 871 l 1,27,-1
 624 871 l 1,28,-1
 617 865 l 1,29,-1
 596 841 l 1,30,-1
 577 837 l 1,31,-1
 553 820 l 1,32,-1
 530 809 l 1,33,-1
 506 784 l 1,34,-1
 476 773 l 1,35,-1
 442 742 l 1,36,-1
 415 720 l 1,37,-1
 369 676 l 1,38,-1
 345 667 l 1,39,-1
 328 648 l 1,40,-1
 304 631 l 1,41,-1
 263 581 l 1,42,-1
 235 559 l 1,43,-1
 223 528 l 1,44,-1
 195 522 l 1,45,-1
 185 501 l 1,46,-1
 164 471 l 1,47,-1
 153 438 l 1,48,-1
 132 423 l 1,49,-1
 112 378 l 1,50,-1
 94 359 l 1,51,-1
 92 333 l 1,52,-1
 71 280 l 1,53,-1
 68 259 l 1,54,-1
 73 234 l 1,55,-1
 86 221 l 1,56,-1
 99 217 l 1,57,-1
 123 218 l 1,58,-1
 149 218 l 1,59,-1
 202 241 l 1,60,-1
 292 268 l 1,0,-1
-26 365 m 1,61,-1
 -17 380 l 1,62,-1
 -20 401 l 1,63,-1
 -20 404 l 1,64,-1
 -14 442 l 1,65,-1
 4 481 l 1,66,-1
 28 517 l 1,67,-1
 42 545 l 1,68,-1
 94 603 l 1,69,-1
 105 626 l 1,70,-1
 121 643 l 1,71,-1
 124 659 l 1,72,-1
 146 668 l 1,73,-1
 173 708 l 1,74,-1
 196 714 l 1,75,-1
 218 749 l 1,76,-1
 384 882 l 1,77,-1
 425 910 l 1,78,-1
 462 926 l 1,79,-1
 480 945 l 1,80,-1
 495 957 l 1,81,-1
 485 974 l 1,82,-1
 430 980 l 1,83,-1
 394 988 l 1,84,-1
 333 997 l 1,85,-1
 297 1009 l 1,86,-1
 282 1010 l 1,87,-1
 262 1018 l 1,88,-1
 249 1042 l 1,89,-1
 227 1057 l 1,90,-1
 218 1069 l 1,91,-1
 207 1117 l 1,92,-1
 211 1149 l 1,93,-1
 218 1160 l 1,94,-1
 252 1190 l 1,95,-1
 311 1230 l 1,96,-1
 362 1253 l 1,97,-1
 385 1271 l 1,98,-1
 408 1275 l 1,99,-1
 453 1295 l 1,100,-1
 483 1301 l 1,101,-1
 535 1326 l 1,102,-1
 610 1321 l 1,103,-1
 659 1349 l 1,104,-1
 682 1345 l 1,105,-1
 723 1354 l 1,106,-1
 776 1355 l 1,107,-1
 805 1358 l 1,108,-1
 821 1350 l 1,109,-1
 852 1347 l 1,110,-1
 873 1338 l 1,111,-1
 891 1333 l 1,112,-1
 924 1316 l 1,113,-1
 945 1290 l 1,114,-1
 951 1261 l 1,115,-1
 946 1236 l 1,116,-1
 934 1215 l 1,117,-1
 917 1202 l 1,118,-1
 896 1193 l 1,119,-1
 885 1200 l 1,120,-1
 879 1224 l 1,121,-1
 858 1246 l 1,122,-1
 842 1268 l 1,123,-1
 793 1262 l 1,124,-1
 778 1278 l 1,125,-1
 759 1267 l 1,126,-1
 735 1272 l 1,127,-1
 699 1259 l 1,128,-1
 661 1261 l 1,129,-1
 604 1224 l 1,130,-1
 564 1236 l 1,131,-1
 537 1221 l 1,132,-1
 500 1204 l 1,133,-1
 474 1182 l 1,134,-1
 458 1195 l 1,135,-1
 443 1178 l 1,136,-1
 433 1158 l 1,137,-1
 429 1155 l 1,138,-1
 425 1155 l 1,139,-1
 420 1156 l 1,140,-1
 408 1169 l 1,141,-1
 389 1158 l 1,142,-1
 358 1142 l 1,143,-1
 351 1133 l 1,144,-1
 339 1111 l 1,145,-1
 363 1105 l 1,146,-1
 420 1090 l 1,147,-1
 450 1067 l 1,148,-1
 508 1048 l 1,149,-1
 566 1014 l 1,150,-1
 592 1009 l 1,151,-1
 620 1015 l 1,152,-1
 640 1029 l 1,153,-1
 659 1048 l 1,154,-1
 718 1072 l 1,155,-1
 768 1105 l 1,156,-1
 825 1121 l 1,157,-1
 864 1146 l 1,158,-1
 891 1156 l 1,159,-1
 908 1172 l 1,160,-1
 913 1174 l 1,161,-1
 921 1175 l 1,162,-1
 949 1170 l 1,163,-1
 982 1158 l 1,164,-1
 988 1153 l 1,165,-1
 1012 1116 l 1,166,-1
 1035 1086 l 1,167,-1
 1038 1070 l 1,168,-1
 1034 1056 l 1,169,-1
 1022 1044 l 1,170,-1
 1006 1039 l 1,171,-1
 1002 1039 l 1,172,-1
 978 1046 l 1,173,-1
 964 1028 l 1,174,-1
 920 1027 l 1,175,-1
 877 999 l 1,176,-1
 854 992 l 1,177,-1
 832 976 l 1,178,-1
 813 970 l 1,179,-1
 793 955 l 1,180,-1
 765 956 l 1,181,-1
 745 942 l 1,182,-1
 713 920 l 1,183,-1
 699 904 l 1,184,-1
 711 878 l 1,185,-1
 734 851 l 1,186,-1
 731 826 l 1,187,-1
 748 813 l 1,188,-1
 759 801 l 1,189,-1
 760 796 l 1,190,-1
 765 765 l 1,191,-1
 783 724 l 1,192,-1
 780 705 l 1,193,-1
 787 651 l 1,194,-1
 774 616 l 1,195,-1
 771 576 l 1,196,-1
 764 555 l 1,197,-1
 764 525 l 1,198,-1
 749 511 l 1,199,-1
 732 463 l 1,200,-1
 689 405 l 1,201,-1
 677 373 l 1,202,-1
 660 363 l 1,203,-1
 650 336 l 1,204,-1
 632 333 l 1,205,-1
 611 336 l 1,206,-1
 602 324 l 1,207,-1
 596 294 l 1,208,-1
 589 283 l 1,209,-1
 567 285 l 1,210,-1
 558 264 l 1,211,-1
 549 246 l 1,212,-1
 541 236 l 1,213,-1
 518 237 l 1,214,-1
 512 217 l 1,215,-1
 507 203 l 1,216,-1
 504 201 l 1,217,-1
 471 199 l 1,218,-1
 456 188 l 1,219,-1
 440 183 l 1,220,-1
 418 155 l 1,221,-1
 382 139 l 1,222,-1
 331 101 l 1,223,-1
 295 103 l 1,224,-1
 241 90 l 1,225,-1
 223 91 l 1,226,-1
 198 92 l 1,227,-1
 179 102 l 1,228,-1
 158 103 l 1,229,-1
 114 124 l 1,230,-1
 93 139 l 1,231,-1
 62 161 l 1,232,-1
 51 182 l 1,233,-1
 37 195 l 1,234,-1
 0 252 l 1,235,-1
 -9 269 l 1,236,-1
 -18 296 l 1,237,-1
 -19 317 l 1,238,-1
 -27 352 l 1,239,-1
 -27 355 l 1,240,-1
 -26 365 l 1,61,-1
EndSplineSet
EndChar

StartChar: nine
Encoding: 57 57 29
Width: 854
Flags: W
LayerCount: 2
Fore
SplineSet
173 946 m 1,0,-1
 199 962 l 1,1,-1
 208 986 l 1,2,-1
 216 1000 l 1,3,-1
 250 1027 l 1,4,-1
 262 1046 l 1,5,-1
 275 1055 l 1,6,-1
 287 1068 l 1,7,-1
 306 1073 l 1,8,-1
 371 1138 l 1,9,-1
 406 1156 l 1,10,-1
 431 1179 l 1,11,-1
 451 1191 l 1,12,-1
 475 1224 l 1,13,-1
 549 1271 l 1,14,-1
 618 1320 l 1,15,-1
 671 1343 l 1,16,-1
 692 1362 l 1,17,-1
 795 1398 l 1,18,-1
 837 1410 l 1,19,-1
 839 1410 l 1,20,-1
 863 1400 l 1,21,-1
 885 1386 l 1,22,-1
 888 1381 l 1,23,-1
 890 1371 l 1,24,-1
 879 1315 l 1,25,-1
 875 1308 l 1,26,-1
 861 1293 l 1,27,-1
 845 1289 l 1,28,-1
 839 1289 l 1,29,-1
 835 1291 l 1,30,-1
 811 1308 l 1,31,-1
 775 1298 l 1,32,-1
 747 1295 l 1,33,-1
 717 1276 l 1,34,-1
 691 1260 l 1,35,-1
 658 1239 l 1,36,-1
 626 1215 l 1,37,-1
 594 1200 l 1,38,-1
 575 1176 l 1,39,-1
 555 1168 l 1,40,-1
 539 1158 l 1,41,-1
 515 1138 l 1,42,-1
 505 1118 l 1,43,-1
 480 1115 l 1,44,-1
 467 1083 l 1,45,-1
 446 1063 l 1,46,-1
 429 1047 l 1,47,-1
 420 1042 l 1,48,-1
 392 1042 l 1,49,-1
 389 1023 l 1,50,-1
 385 1013 l 1,51,-1
 373 1001 l 1,52,-1
 345 980 l 1,53,-1
 334 961 l 1,54,-1
 319 948 l 1,55,-1
 305 917 l 1,56,-1
 284 902 l 1,57,-1
 255 863 l 1,58,-1
 219 826 l 1,59,-1
 198 781 l 1,60,-1
 193 759 l 1,61,-1
 215 762 l 1,62,-1
 237 772 l 1,63,-1
 256 788 l 1,64,-1
 285 803 l 1,65,-1
 298 820 l 1,66,-1
 322 826 l 1,67,-1
 465 932 l 1,68,-1
 488 942 l 1,69,-1
 494 960 l 1,70,-1
 503 969 l 1,71,-1
 524 972 l 1,72,-1
 556 1005 l 1,73,-1
 578 1022 l 1,74,-1
 600 1044 l 1,75,-1
 615 1052 l 1,76,-1
 631 1071 l 1,77,-1
 665 1094 l 1,78,-1
 672 1113 l 1,79,-1
 692 1118 l 1,80,-1
 706 1136 l 1,81,-1
 720 1153 l 1,82,-1
 742 1153 l 1,83,-1
 752 1158 l 1,84,-1
 760 1167 l 1,85,-1
 767 1187 l 1,86,-1
 786 1194 l 1,87,-1
 792 1201 l 1,88,-1
 805 1207 l 1,89,-1
 818 1220 l 1,90,-1
 853 1249 l 1,91,-1
 887 1290 l 1,92,-1
 927 1321 l 1,93,-1
 962 1357 l 1,94,-1
 997 1378 l 1,95,-1
 1026 1399 l 1,96,-1
 1038 1401 l 1,97,-1
 1072 1391 l 1,98,-1
 1099 1363 l 1,99,-1
 1113 1308 l 1,100,-1
 1109 1272 l 1,101,-1
 1103 1261 l 1,102,-1
 1064 1210 l 1,103,-1
 1046 1179 l 1,104,-1
 989 1133 l 1,105,-1
 978 1089 l 1,106,-1
 955 1069 l 1,107,-1
 925 1016 l 1,108,-1
 908 1000 l 1,109,-1
 884 961 l 1,110,-1
 840 916 l 1,111,-1
 818 885 l 1,112,-1
 801 866 l 1,113,-1
 798 835 l 1,114,-1
 790 813 l 1,115,-1
 777 797 l 1,116,-1
 754 784 l 1,117,-1
 733 778 l 1,118,-1
 734 748 l 1,119,-1
 713 706 l 1,120,-1
 681 643 l 1,121,-1
 629 571 l 1,122,-1
 619 534 l 1,123,-1
 613 510 l 1,124,-1
 591 500 l 1,125,-1
 583 491 l 1,126,-1
 575 473 l 1,127,-1
 567 440 l 1,128,-1
 534 359 l 1,129,-1
 521 316 l 1,130,-1
 502 258 l 1,131,-1
 502 256 l 1,132,-1
 509 214 l 1,133,-1
 513 178 l 1,134,-1
 523 157 l 1,135,-1
 538 136 l 1,136,-1
 535 128 l 1,137,-1
 511 120 l 1,138,-1
 484 107 l 1,139,-1
 466 112 l 1,140,-1
 409 129 l 1,141,-1
 384 144 l 1,142,-1
 356 184 l 1,143,-1
 343 244 l 1,144,-1
 346 262 l 1,145,-1
 369 338 l 1,146,-1
 378 373 l 1,147,-1
 393 392 l 1,148,-1
 415 451 l 1,149,-1
 444 489 l 1,150,-1
 462 502 l 1,151,-1
 463 546 l 1,152,-1
 480 568 l 1,153,-1
 488 592 l 1,154,-1
 516 631 l 1,155,-1
 522 656 l 1,156,-1
 547 682 l 1,157,-1
 561 705 l 1,158,-1
 570 717 l 1,159,-1
 587 735 l 1,160,-1
 589 766 l 1,161,-1
 608 773 l 1,162,-1
 624 798 l 1,163,-1
 621 814 l 1,164,-1
 631 824 l 1,165,-1
 656 834 l 1,166,-1
 662 854 l 1,167,-1
 676 878 l 1,168,-1
 692 892 l 1,169,-1
 722 930 l 1,170,-1
 731 954 l 1,171,-1
 805 1047 l 1,172,-1
 827 1083 l 1,173,-1
 810 1066 l 1,174,-1
 780 1046 l 1,175,-1
 742 1013 l 1,176,-1
 722 985 l 1,177,-1
 710 987 l 1,178,-1
 704 985 l 1,179,-1
 699 980 l 1,180,-1
 679 955 l 1,181,-1
 660 940 l 1,182,-1
 640 907 l 1,183,-1
 603 882 l 1,184,-1
 589 865 l 1,185,-1
 576 854 l 1,186,-1
 548 842 l 1,187,-1
 524 835 l 1,188,-1
 516 817 l 1,189,-1
 507 806 l 1,190,-1
 478 797 l 1,191,-1
 457 769 l 1,192,-1
 421 767 l 1,193,-1
 410 748 l 1,194,-1
 398 731 l 1,195,-1
 385 720 l 1,196,-1
 365 705 l 1,197,-1
 334 706 l 1,198,-1
 321 701 l 1,199,-1
 312 693 l 1,200,-1
 281 647 l 1,201,-1
 276 643 l 1,202,-1
 265 640 l 1,203,-1
 262 640 l 1,204,-1
 241 647 l 1,205,-1
 222 625 l 1,206,-1
 218 624 l 1,207,-1
 214 625 l 1,208,-1
 183 640 l 1,209,-1
 126 678 l 1,210,-1
 108 692 l 1,211,-1
 85 726 l 1,212,-1
 75 742 l 1,213,-1
 81 792 l 1,214,-1
 82 810 l 1,215,-1
 88 826 l 1,216,-1
 161 920 l 1,217,-1
 173 946 l 1,0,-1
EndSplineSet
EndChar

StartChar: colon
Encoding: 58 58 30
Width: 488
Flags: W
LayerCount: 2
Fore
SplineSet
160 562 m 1,0,-1
 147 582 l 1,1,-1
 164 622 l 1,2,-1
 175 653 l 1,3,-1
 177 655 l 1,4,-1
 203 675 l 1,5,-1
 224 694 l 1,6,-1
 236 697 l 1,7,-1
 242 695 l 1,8,-1
 262 682 l 1,9,-1
 291 665 l 1,10,-1
 297 660 l 1,11,-1
 314 628 l 1,12,-1
 323 612 l 1,13,-1
 346 591 l 1,14,-1
 350 586 l 1,15,-1
 351 576 l 1,16,-1
 340 543 l 1,17,-1
 281 474 l 1,18,-1
 257 467 l 1,19,-1
 229 476 l 1,20,-1
 198 504 l 1,21,-1
 160 562 l 1,0,-1
92 182 m 1,22,-1
 82 198 l 1,23,-1
 96 240 l 1,24,-1
 108 273 l 1,25,-1
 111 276 l 1,26,-1
 138 295 l 1,27,-1
 155 312 l 1,28,-1
 163 315 l 1,29,-1
 167 316 l 1,30,-1
 196 300 l 1,31,-1
 222 285 l 1,32,-1
 252 238 l 1,33,-1
 278 212 l 1,34,-1
 282 202 l 1,35,-1
 284 194 l 1,36,-1
 271 161 l 1,37,-1
 232 109 l 1,38,-1
 213 93 l 1,39,-1
 190 86 l 1,40,-1
 171 91 l 1,41,-1
 148 107 l 1,42,-1
 128 125 l 1,43,-1
 92 182 l 1,22,-1
EndSplineSet
EndChar

StartChar: semicolon
Encoding: 59 59 31
Width: 508
Flags: W
LayerCount: 2
Fore
SplineSet
225 675 m 1,0,-1
 242 692 l 1,1,-1
 259 698 l 1,2,-1
 313 664 l 1,3,-1
 326 645 l 1,4,-1
 343 614 l 1,5,-1
 368 589 l 1,6,-1
 372 574 l 1,7,-1
 358 535 l 1,8,-1
 301 473 l 1,9,-1
 279 467 l 1,10,-1
 253 475 l 1,11,-1
 207 518 l 1,12,-1
 179 565 l 1,13,-1
 170 581 l 1,14,-1
 169 585 l 1,15,-1
 175 603 l 1,16,-1
 185 621 l 1,17,-1
 193 648 l 1,18,-1
 200 659 l 1,19,-1
 205 663 l 1,20,-1
 225 675 l 1,0,-1
101 -13 m 1,21,-1
 82 -1 l 1,22,-1
 94 31 l 1,23,-1
 137 84 l 1,24,-1
 143 104 l 1,25,-1
 129 119 l 1,26,-1
 111 157 l 1,27,-1
 103 204 l 1,28,-1
 104 212 l 1,29,-1
 114 227 l 1,30,-1
 130 252 l 1,31,-1
 168 300 l 1,32,-1
 190 313 l 1,33,-1
 209 316 l 1,34,-1
 230 311 l 1,35,-1
 276 260 l 1,36,-1
 303 220 l 1,37,-1
 304 214 l 1,38,-1
 302 205 l 1,39,-1
 283 175 l 1,40,-1
 261 117 l 1,41,-1
 194 26 l 1,42,-1
 154 -15 l 1,43,-1
 145 -20 l 1,44,-1
 130 -25 l 1,45,-1
 123 -24 l 1,46,-1
 101 -13 l 1,21,-1
EndSplineSet
EndChar

StartChar: less
Encoding: 60 60 32
Width: 1271
Flags: W
LayerCount: 2
Fore
SplineSet
329 664 m 1,0,-1
 312 679 l 1,1,-1
 177 773 l 1,2,-1
 167 784 l 1,3,-1
 163 803 l 1,4,-1
 166 820 l 1,5,-1
 179 841 l 1,6,-1
 198 855 l 1,7,-1
 241 878 l 1,8,-1
 281 904 l 1,9,-1
 312 920 l 1,10,-1
 334 924 l 1,11,-1
 450 990 l 1,12,-1
 475 999 l 1,13,-1
 515 1027 l 1,14,-1
 520 1034 l 1,15,-1
 578 1044 l 1,16,-1
 636 1068 l 1,17,-1
 666 1096 l 1,18,-1
 697 1112 l 1,19,-1
 697 1109 l 1,20,-1
 717 1109 l 1,21,-1
 731 1122 l 1,22,-1
 762 1130 l 1,23,-1
 821 1163 l 1,24,-1
 844 1171 l 1,25,-1
 873 1195 l 1,26,-1
 911 1208 l 1,27,-1
 925 1216 l 1,28,-1
 948 1223 l 1,29,-1
 965 1236 l 1,30,-1
 996 1256 l 1,31,-1
 1017 1259 l 1,32,-1
 1038 1258 l 1,33,-1
 1051 1279 l 1,34,-1
 1061 1286 l 1,35,-1
 1076 1285 l 1,36,-1
 1097 1294 l 1,37,-1
 1110 1293 l 1,38,-1
 1137 1317 l 1,39,-1
 1159 1321 l 1,40,-1
 1185 1337 l 1,41,-1
 1224 1343 l 1,42,-1
 1249 1362 l 1,43,-1
 1284 1374 l 1,44,-1
 1308 1393 l 1,45,-1
 1331 1399 l 1,46,-1
 1352 1408 l 1,47,-1
 1366 1407 l 1,48,-1
 1412 1429 l 1,49,-1
 1428 1425 l 1,50,-1
 1451 1419 l 1,51,-1
 1455 1416 l 1,52,-1
 1458 1413 l 1,53,-1
 1468 1379 l 1,54,-1
 1469 1362 l 1,55,-1
 1461 1326 l 1,56,-1
 1434 1294 l 1,57,-1
 1389 1265 l 1,58,-1
 1359 1251 l 1,59,-1
 1313 1243 l 1,60,-1
 1242 1208 l 1,61,-1
 1142 1182 l 1,62,-1
 1104 1160 l 1,63,-1
 1068 1150 l 1,64,-1
 1013 1126 l 1,65,-1
 994 1124 l 1,66,-1
 977 1117 l 1,67,-1
 942 1107 l 1,68,-1
 901 1086 l 1,69,-1
 873 1081 l 1,70,-1
 823 1052 l 1,71,-1
 803 1046 l 1,72,-1
 776 1031 l 1,73,-1
 755 1029 l 1,74,-1
 718 1006 l 1,75,-1
 695 1008 l 1,76,-1
 673 987 l 1,77,-1
 659 984 l 1,78,-1
 639 978 l 1,79,-1
 636 965 l 1,80,-1
 590 959 l 1,81,-1
 534 935 l 1,82,-1
 474 915 l 1,83,-1
 437 896 l 1,84,-1
 424 898 l 1,85,-1
 411 886 l 1,86,-1
 394 885 l 1,87,-1
 362 866 l 1,88,-1
 317 852 l 1,89,-1
 300 838 l 1,90,-1
 272 817 l 1,91,-1
 267 807 l 1,92,-1
 265 798 l 1,93,-1
 267 789 l 1,94,-1
 277 775 l 1,95,-1
 348 736 l 1,96,-1
 368 729 l 1,97,-1
 401 714 l 1,98,-1
 438 698 l 1,99,-1
 487 676 l 1,100,-1
 463 670 l 1,101,-1
 498 641 l 1,102,-1
 516 630 l 1,103,-1
 549 612 l 1,104,-1
 574 602 l 1,105,-1
 575 584 l 1,106,-1
 618 566 l 1,107,-1
 637 566 l 1,108,-1
 659 545 l 1,109,-1
 693 537 l 1,110,-1
 716 523 l 1,111,-1
 748 507 l 1,112,-1
 765 492 l 1,113,-1
 801 481 l 1,114,-1
 824 459 l 1,115,-1
 851 455 l 1,116,-1
 869 450 l 1,117,-1
 878 444 l 1,118,-1
 891 426 l 1,119,-1
 912 416 l 1,120,-1
 965 392 l 1,121,-1
 972 379 l 1,122,-1
 992 370 l 1,123,-1
 1017 359 l 1,124,-1
 1041 337 l 1,125,-1
 1065 337 l 1,126,-1
 1124 301 l 1,127,-1
 1155 291 l 1,128,-1
 1170 275 l 1,129,-1
 1226 245 l 1,130,-1
 1241 223 l 1,131,-1
 1253 183 l 1,132,-1
 1252 178 l 1,133,-1
 1240 154 l 1,134,-1
 1231 138 l 1,135,-1
 1208 127 l 1,136,-1
 1168 113 l 1,137,-1
 1153 105 l 1,138,-1
 1131 109 l 1,139,-1
 1111 121 l 1,140,-1
 1100 135 l 1,141,-1
 1094 153 l 1,142,-1
 1083 163 l 1,143,-1
 1077 152 l 1,144,-1
 1051 160 l 1,145,-1
 996 208 l 1,146,-1
 942 240 l 1,147,-1
 885 285 l 1,148,-1
 815 325 l 1,149,-1
 787 349 l 1,150,-1
 739 374 l 1,151,-1
 704 404 l 1,152,-1
 685 418 l 1,153,-1
 674 435 l 1,154,-1
 649 453 l 1,155,-1
 621 480 l 1,156,-1
 597 488 l 1,157,-1
 523 543 l 1,158,-1
 463 578 l 1,159,-1
 441 592 l 1,160,-1
 394 626 l 1,161,-1
 329 664 l 1,0,-1
EndSplineSet
EndChar

StartChar: equal
Encoding: 61 61 33
Width: 1024
Flags: W
LayerCount: 2
Fore
SplineSet
471 932 m 1,0,-1
 475 930 l 2,1,2
 492 922 492 922 494 922 c 2,3,-1
 508 924 l 1,4,-1
 532 918 l 1,5,-1
 614 920 l 1,6,-1
 647 918 l 2,7,8
 653 918 653 918 661.5 923 c 128,-1,9
 670 928 670 928 672 928 c 2,10,-1
 715 926 l 1,11,-1
 733 930 l 1,12,13
 743 926 743 926 756 926 c 0,14,15
 770 926 770 926 784 930 c 1,16,17
 792 926 792 926 801 926 c 0,18,19
 814 926 814 926 829 932 c 1,20,-1
 836 932 l 2,21,22
 838 932 838 932 854 924 c 1,23,-1
 868 926 l 1,24,-1
 891 924 l 2,25,26
 897 924 897 924 921.5 935 c 128,-1,27
 946 946 946 946 985 946 c 2,28,-1
 1026 942 l 1,29,-1
 1057 948 l 1,30,-1
 1087 934 l 1,31,-1
 1110 934 l 2,32,33
 1113 934 1113 934 1127 916.5 c 128,-1,34
 1141 899 1141 899 1141 895 c 0,35,36
 1141 840 1141 840 1100.5 821.5 c 128,-1,37
 1060 803 1060 803 1026 803 c 1,38,-1
 993 811 l 1,39,-1
 948 803 l 1,40,41
 919 803 919 803 882 808 c 2,42,-1
 850 813 l 1,43,-1
 807 803 l 2,44,45
 799 803 799 803 774 817 c 1,46,-1
 770 817 l 2,47,48
 768 817 768 817 748.5 809 c 128,-1,49
 729 801 729 801 715 801 c 0,50,51
 696 801 696 801 676.5 808 c 128,-1,52
 657 815 657 815 653 815 c 256,53,54
 649 815 649 815 635 810 c 128,-1,55
 621 805 621 805 614 805 c 2,56,-1
 553 807 l 1,57,-1
 461 815 l 1,58,-1
 429 813 l 2,59,60
 385 813 385 813 385 879 c 0,61,62
 385 920 385 920 427 920 c 0,63,64
 434 920 434 920 471 932 c 1,0,-1
342 649 m 1,65,-1
 346 649 l 1,66,-1
 360 651 l 1,67,-1
 385 643 l 1,68,-1
 467 647 l 1,69,-1
 500 645 l 2,70,71
 504 645 504 645 513 650 c 128,-1,72
 522 655 522 655 524 655 c 2,73,-1
 567 653 l 1,74,-1
 586 655 l 1,75,-1
 608 653 l 1,76,-1
 637 655 l 2,77,78
 672 655 672 655 682 657 c 2,79,-1
 688 657 l 1,80,-1
 743 651 l 1,81,-1
 762 657 l 2,82,83
 811 674 811 674 838 674 c 2,84,-1
 879 670 l 1,85,-1
 909 676 l 1,86,-1
 940 662 l 1,87,-1
 963 662 l 2,88,89
 965 662 965 662 979 644 c 128,-1,90
 993 626 993 626 993 623 c 0,91,92
 993 568 993 568 953 549 c 128,-1,93
 913 530 913 530 879 530 c 1,94,-1
 846 539 l 1,95,-1
 801 528 l 2,96,97
 791 527 791 527 764 531 c 2,98,-1
 702 541 l 1,99,-1
 659 530 l 2,100,101
 651 530 651 530 627 545 c 1,102,-1
 623 545 l 2,103,104
 621 545 621 545 601.5 536.5 c 128,-1,105
 582 528 582 528 567 528 c 0,106,107
 549 528 549 528 529.5 535.5 c 128,-1,108
 510 543 510 543 508 543 c 256,109,110
 506 543 506 543 489.5 536.5 c 128,-1,111
 473 530 473 530 467 530 c 2,112,-1
 426 535 l 1,113,-1
 365 532 l 1,114,-1
 322 541 l 1,115,-1
 313 541 l 1,116,-1
 282 538 l 1,117,118
 238 538 238 538 238 604 c 0,119,120
 238 614 238 614 244.5 628 c 128,-1,121
 251 642 251 642 293 650 c 2,122,-1
 324 657 l 1,123,-1
 342 649 l 1,65,-1
EndSplineSet
EndChar

StartChar: greater
Encoding: 62 62 34
Width: 1271
Flags: W
LayerCount: 2
Fore
SplineSet
1238 626 m 1,0,-1
 1191 592 l 1,1,-1
 1169 578 l 1,2,-1
 1109 543 l 1,3,-1
 1035 488 l 1,4,-1
 1011 480 l 1,5,-1
 983 453 l 1,6,-1
 958 435 l 1,7,-1
 947 418 l 1,8,-1
 928 404 l 1,9,-1
 893 374 l 1,10,-1
 845 349 l 1,11,-1
 817 325 l 1,12,-1
 747 285 l 1,13,-1
 690 240 l 1,14,-1
 636 208 l 1,15,-1
 581 160 l 1,16,-1
 555 152 l 1,17,-1
 549 163 l 1,18,-1
 538 153 l 1,19,-1
 532 135 l 1,20,-1
 521 121 l 1,21,-1
 501 109 l 1,22,-1
 479 105 l 1,23,-1
 464 113 l 1,24,-1
 424 127 l 1,25,-1
 401 138 l 1,26,-1
 392 154 l 1,27,-1
 380 178 l 1,28,-1
 379 183 l 1,29,-1
 391 223 l 1,30,-1
 406 245 l 1,31,-1
 462 275 l 1,32,-1
 477 291 l 1,33,-1
 508 301 l 1,34,-1
 567 337 l 1,35,-1
 591 337 l 1,36,-1
 615 359 l 1,37,-1
 640 370 l 1,38,-1
 660 379 l 1,39,-1
 667 392 l 1,40,-1
 720 416 l 1,41,-1
 741 426 l 1,42,-1
 754 444 l 1,43,-1
 763 450 l 1,44,-1
 781 455 l 1,45,-1
 808 459 l 1,46,-1
 831 481 l 1,47,-1
 867 492 l 1,48,-1
 884 507 l 1,49,-1
 916 523 l 1,50,-1
 939 537 l 1,51,-1
 973 545 l 1,52,-1
 995 566 l 1,53,-1
 1014 566 l 1,54,-1
 1057 584 l 1,55,-1
 1058 602 l 1,56,-1
 1083 612 l 1,57,-1
 1116 630 l 1,58,-1
 1134 641 l 1,59,-1
 1169 670 l 1,60,-1
 1145 676 l 1,61,-1
 1194 698 l 1,62,-1
 1231 714 l 1,63,-1
 1264 729 l 1,64,-1
 1284 736 l 1,65,-1
 1355 775 l 1,66,-1
 1365 789 l 1,67,-1
 1367 798 l 1,68,-1
 1365 807 l 1,69,-1
 1360 817 l 1,70,-1
 1332 838 l 1,71,-1
 1315 852 l 1,72,-1
 1270 866 l 1,73,-1
 1238 885 l 1,74,-1
 1221 886 l 1,75,-1
 1208 898 l 1,76,-1
 1195 896 l 1,77,-1
 1158 915 l 1,78,-1
 1098 935 l 1,79,-1
 1042 959 l 1,80,-1
 996 965 l 1,81,-1
 993 978 l 1,82,-1
 973 984 l 1,83,-1
 959 987 l 1,84,-1
 937 1008 l 1,85,-1
 914 1006 l 1,86,-1
 877 1029 l 1,87,-1
 856 1031 l 1,88,-1
 829 1046 l 1,89,-1
 809 1052 l 1,90,-1
 759 1081 l 1,91,-1
 731 1086 l 1,92,-1
 690 1107 l 1,93,-1
 655 1117 l 1,94,-1
 638 1124 l 1,95,-1
 619 1126 l 1,96,-1
 564 1150 l 1,97,-1
 528 1160 l 1,98,-1
 490 1182 l 1,99,-1
 390 1208 l 1,100,-1
 319 1243 l 1,101,-1
 273 1251 l 1,102,-1
 243 1265 l 1,103,-1
 198 1294 l 1,104,-1
 171 1326 l 1,105,-1
 163 1362 l 1,106,-1
 164 1379 l 1,107,-1
 174 1413 l 1,108,-1
 177 1416 l 1,109,-1
 181 1419 l 1,110,-1
 204 1425 l 1,111,-1
 220 1429 l 1,112,-1
 266 1407 l 1,113,-1
 280 1408 l 1,114,-1
 301 1399 l 1,115,-1
 324 1393 l 1,116,-1
 348 1374 l 1,117,-1
 383 1362 l 1,118,-1
 408 1343 l 1,119,-1
 447 1337 l 1,120,-1
 473 1321 l 1,121,-1
 495 1317 l 1,122,-1
 522 1293 l 1,123,-1
 535 1294 l 1,124,-1
 556 1285 l 1,125,-1
 571 1286 l 1,126,-1
 581 1279 l 1,127,-1
 594 1258 l 1,128,-1
 615 1259 l 1,129,-1
 636 1256 l 1,130,-1
 667 1236 l 1,131,-1
 684 1223 l 1,132,-1
 707 1216 l 1,133,-1
 721 1208 l 1,134,-1
 759 1195 l 1,135,-1
 788 1171 l 1,136,-1
 811 1163 l 1,137,-1
 870 1130 l 1,138,-1
 901 1122 l 1,139,-1
 915 1109 l 1,140,-1
 935 1109 l 1,141,-1
 935 1112 l 1,142,-1
 966 1096 l 1,143,-1
 996 1068 l 1,144,-1
 1054 1044 l 1,145,-1
 1112 1034 l 1,146,-1
 1117 1027 l 1,147,-1
 1157 999 l 1,148,-1
 1182 990 l 1,149,-1
 1298 924 l 1,150,-1
 1320 920 l 1,151,-1
 1351 904 l 1,152,-1
 1391 878 l 1,153,-1
 1434 855 l 1,154,-1
 1453 841 l 1,155,-1
 1466 820 l 1,156,-1
 1469 803 l 1,157,-1
 1465 784 l 1,158,-1
 1455 773 l 1,159,-1
 1320 679 l 1,160,-1
 1303 664 l 1,161,-1
 1238 626 l 1,0,-1
EndSplineSet
EndChar

StartChar: question
Encoding: 63 63 35
Width: 1223
Flags: W
LayerCount: 2
Fore
SplineSet
441 114 m 1,0,-1
 424 99 l 1,1,-1
 402 102 l 1,2,-1
 362 109 l 1,3,-1
 360 112 l 1,4,-1
 342 141 l 1,5,-1
 328 158 l 1,6,-1
 324 178 l 1,7,-1
 313 205 l 1,8,-1
 312 210 l 1,9,-1
 314 220 l 1,10,-1
 319 228 l 1,11,-1
 334 245 l 1,12,-1
 344 266 l 1,13,-1
 365 288 l 1,14,-1
 398 322 l 1,15,-1
 408 329 l 1,16,-1
 422 332 l 1,17,-1
 438 328 l 1,18,-1
 468 307 l 1,19,-1
 492 276 l 1,20,-1
 502 252 l 1,21,-1
 517 218 l 1,22,-1
 503 197 l 1,23,-1
 483 158 l 1,24,-1
 441 114 l 1,0,-1
313 626 m 1,25,-1
 341 683 l 1,26,-1
 362 701 l 1,27,-1
 383 715 l 1,28,-1
 422 748 l 1,29,-1
 441 753 l 1,30,-1
 463 770 l 1,31,-1
 522 805 l 1,32,-1
 552 824 l 1,33,-1
 678 880 l 1,34,-1
 753 918 l 1,35,-1
 808 939 l 1,36,-1
 833 958 l 1,37,-1
 858 959 l 1,38,-1
 899 987 l 1,39,-1
 921 984 l 1,40,-1
 923 984 l 1,41,-1
 974 1003 l 1,42,-1
 1014 1020 l 1,43,-1
 1037 1035 l 1,44,-1
 1070 1046 l 1,45,-1
 1101 1056 l 1,46,-1
 1134 1076 l 1,47,-1
 1179 1085 l 1,48,-1
 1216 1105 l 1,49,-1
 1264 1136 l 1,50,-1
 1274 1169 l 1,51,-1
 1246 1194 l 1,52,-1
 1235 1207 l 1,53,-1
 1229 1211 l 1,54,-1
 1202 1211 l 1,55,-1
 1180 1210 l 1,56,-1
 1176 1210 l 1,57,-1
 1142 1221 l 1,58,-1
 1113 1212 l 1,59,-1
 1096 1210 l 1,60,-1
 1084 1212 l 1,61,-1
 1039 1225 l 1,62,-1
 1005 1212 l 1,63,-1
 943 1211 l 1,64,-1
 898 1192 l 1,65,-1
 867 1197 l 1,66,-1
 836 1185 l 1,67,-1
 735 1174 l 1,68,-1
 686 1159 l 1,69,-1
 646 1170 l 1,70,-1
 613 1151 l 1,71,-1
 583 1143 l 1,72,-1
 552 1116 l 1,73,-1
 531 1111 l 1,74,-1
 519 1075 l 1,75,-1
 507 1059 l 1,76,-1
 485 1045 l 1,77,-1
 468 1041 l 1,78,-1
 445 1045 l 1,79,-1
 424 1051 l 1,80,-1
 410 1061 l 1,81,-1
 402 1074 l 1,82,-1
 399 1088 l 1,83,-1
 410 1141 l 1,84,-1
 418 1173 l 1,85,-1
 427 1189 l 1,86,-1
 458 1208 l 1,87,-1
 546 1233 l 1,88,-1
 575 1226 l 1,89,-1
 585 1242 l 1,90,-1
 612 1243 l 1,91,-1
 644 1252 l 1,92,-1
 659 1248 l 1,93,-1
 686 1253 l 1,94,-1
 708 1249 l 1,95,-1
 724 1262 l 1,96,-1
 749 1273 l 1,97,-1
 762 1263 l 1,98,-1
 784 1272 l 1,99,-1
 820 1279 l 1,100,-1
 860 1291 l 1,101,-1
 904 1293 l 1,102,-1
 934 1294 l 1,103,-1
 947 1295 l 1,104,-1
 968 1291 l 1,105,-1
 979 1281 l 1,106,-1
 1014 1289 l 1,107,-1
 1053 1284 l 1,108,-1
 1079 1287 l 1,109,-1
 1112 1282 l 1,110,-1
 1135 1285 l 1,111,-1
 1164 1285 l 1,112,-1
 1174 1273 l 1,113,-1
 1196 1275 l 1,114,-1
 1218 1265 l 1,115,-1
 1246 1271 l 1,116,-1
 1261 1258 l 1,117,-1
 1276 1255 l 1,118,-1
 1293 1248 l 1,119,-1
 1321 1245 l 1,120,-1
 1339 1231 l 1,121,-1
 1377 1185 l 1,122,-1
 1385 1158 l 1,123,-1
 1387 1137 l 1,124,-1
 1400 1136 l 1,125,-1
 1401 1085 l 1,126,-1
 1392 1044 l 1,127,-1
 1385 1030 l 1,128,-1
 1382 1026 l 1,129,-1
 1364 1011 l 1,130,-1
 1343 984 l 1,131,-1
 1332 976 l 1,132,-1
 1326 974 l 1,133,-1
 1294 969 l 1,134,-1
 1229 919 l 1,135,-1
 1219 918 l 1,136,-1
 1203 921 l 1,137,-1
 1178 932 l 1,138,-1
 1165 916 l 1,139,-1
 1147 898 l 1,140,-1
 1136 892 l 1,141,-1
 1108 882 l 1,142,-1
 1074 851 l 1,143,-1
 1041 850 l 1,144,-1
 1006 833 l 1,145,-1
 965 827 l 1,146,-1
 936 810 l 1,147,-1
 901 798 l 1,148,-1
 870 803 l 1,149,-1
 851 781 l 1,150,-1
 819 760 l 1,151,-1
 787 735 l 1,152,-1
 768 727 l 1,153,-1
 759 725 l 1,154,-1
 720 725 l 1,155,-1
 693 700 l 1,156,-1
 670 687 l 1,157,-1
 637 662 l 1,158,-1
 614 664 l 1,159,-1
 564 634 l 1,160,-1
 543 629 l 1,161,-1
 520 615 l 1,162,-1
 495 604 l 1,163,-1
 473 576 l 1,164,-1
 458 556 l 1,165,-1
 455 551 l 1,166,-1
 452 528 l 1,167,-1
 454 474 l 1,168,-1
 449 428 l 1,169,-1
 431 408 l 1,170,-1
 411 394 l 1,171,-1
 385 413 l 1,172,-1
 364 484 l 1,173,-1
 339 508 l 1,174,-1
 320 537 l 1,175,-1
 301 569 l 1,176,-1
 300 575 l 1,177,-1
 313 626 l 1,25,-1
EndSplineSet
EndChar

StartChar: at
Encoding: 64 64 36
Width: 1493
Flags: W
LayerCount: 2
Fore
SplineSet
1458 541 m 1,0,-1
 1458 537 l 2,1,2
 1458 528 1458 528 1436.5 512 c 128,-1,3
 1415 496 1415 496 1407 485 c 2,4,-1
 1403 481 l 1,5,6
 1363 476 1363 476 1350 455 c 1,7,8
 1324 443 1324 443 1307 442 c 1,9,10
 1297 433 1297 433 1281 430 c 2,11,-1
 1245 424 l 1,12,13
 1219 424 1219 424 1208.5 429 c 128,-1,14
 1198 434 1198 434 1171 441.5 c 128,-1,15
 1144 449 1144 449 1127 482 c 128,-1,16
 1110 515 1110 515 1110 522 c 0,17,18
 1110 530 1110 530 1112 535 c 2,19,-1
 1112 547 l 2,20,21
 1112 560 1112 560 1106 567 c 1,22,-1
 1108 582 l 1,23,-1
 1106 616 l 1,24,-1
 1110 633 l 2,25,26
 1112 635 1112 635 1112 641 c 0,27,28
 1112 651 1112 651 1110 657 c 1,29,30
 1102 653 1102 653 1091.5 645 c 128,-1,31
 1081 637 1081 637 1071 635 c 128,-1,32
 1061 633 1061 633 1060 623.5 c 128,-1,33
 1059 614 1059 614 1047 600 c 0,34,35
 1042 600 1042 600 1026 581.5 c 128,-1,36
 1010 563 1010 563 992.5 558 c 128,-1,37
 975 553 975 553 952 527 c 128,-1,38
 929 501 929 501 842 437 c 128,-1,39
 755 373 755 373 715 373 c 0,40,41
 709 373 709 373 692 375 c 2,42,-1
 678 375 l 2,43,44
 673 375 673 375 641.5 390.5 c 128,-1,45
 610 406 610 406 606 423 c 128,-1,46
 602 440 602 440 594 459.5 c 128,-1,47
 586 479 586 479 586 483 c 2,48,-1
 590 530 l 1,49,-1
 588 555 l 2,50,51
 588 563 588 563 598 571 c 2,52,-1
 604 580 l 1,53,-1
 604 602 l 1,54,55
 623 629 623 629 629 641 c 128,-1,56
 635 653 635 653 644 662.5 c 128,-1,57
 653 672 653 672 658.5 682 c 128,-1,58
 664 692 664 692 672 699.5 c 128,-1,59
 680 707 680 707 691 723 c 128,-1,60
 702 739 702 739 716.5 749.5 c 128,-1,61
 731 760 731 760 760 792 c 0,62,63
 769 802 769 802 832 843 c 2,64,-1
 895 885 l 1,65,66
 934 901 934 901 956 915 c 1,67,-1
 1049 948 l 2,68,69
 1055 948 1055 948 1069 942 c 1,70,71
 1087 950 1087 950 1096 950 c 0,72,73
 1151 950 1151 950 1161 864 c 0,74,75
 1161 850 1161 850 1174 850 c 0,76,77
 1180 850 1180 850 1188 864 c 0,78,79
 1217 920 1217 920 1272 920 c 0,80,81
 1321 920 1321 920 1321 872 c 0,82,83
 1321 843 1321 843 1311.5 818.5 c 128,-1,84
 1302 794 1302 794 1283 766 c 128,-1,85
 1264 738 1264 738 1251.5 702.5 c 128,-1,86
 1239 667 1239 667 1229 649 c 1,87,-1
 1233 610 l 1,88,-1
 1229 600 l 2,89,90
 1225 592 1225 592 1225 590 c 0,91,92
 1225 535 1225 535 1255 535 c 0,93,94
 1257 535 1257 535 1270 539 c 2,95,-1
 1280 541 l 2,96,97
 1282 541 1282 541 1289 538 c 128,-1,98
 1296 535 1296 535 1303 535 c 0,99,100
 1319 535 1319 535 1362 571 c 1,101,-1
 1378 575 l 1,102,103
 1386 584 1386 584 1392.5 594 c 128,-1,104
 1399 604 1399 604 1412 614.5 c 128,-1,105
 1425 625 1425 625 1432 646 c 128,-1,106
 1439 667 1439 667 1452.5 684.5 c 128,-1,107
 1466 702 1466 702 1475 719 c 2,108,-1
 1481 729 l 1,109,-1
 1481 754 l 2,110,111
 1481 770 1481 770 1503 780 c 0,112,113
 1507 784 1507 784 1507 788 c 0,114,115
 1507 793 1507 793 1500 805 c 128,-1,116
 1493 817 1493 817 1493 823 c 2,117,-1
 1493 831 l 2,118,119
 1495 834 1495 834 1495 838 c 2,120,-1
 1493 866 l 1,121,-1
 1499 893 l 1,122,-1
 1485 944 l 1,123,124
 1485 990 1485 990 1463.5 1028 c 128,-1,125
 1442 1066 1442 1066 1419 1079 c 1,126,-1
 1411 1092 l 2,127,128
 1383 1134 1383 1134 1284 1176 c 0,129,130
 1272 1180 1272 1180 1266 1186 c 1,131,132
 1262 1184 1262 1184 1257 1184 c 0,133,134
 1247 1184 1247 1184 1238 1192 c 128,-1,135
 1229 1200 1229 1200 1206 1200 c 1,136,-1
 1180 1206 l 1,137,-1
 1165 1204 l 1,138,-1
 1110 1210 l 1,139,-1
 958 1184 l 2,140,141
 914 1176 914 1176 899 1167 c 0,142,143
 895 1165 895 1165 886 1161 c 128,-1,144
 877 1157 877 1157 863.5 1149 c 128,-1,145
 850 1141 850 1141 831 1139 c 1,146,147
 809 1125 809 1125 785 1118 c 128,-1,148
 761 1111 761 1111 723 1079 c 1,149,-1
 702 1071 l 2,150,151
 692 1069 692 1069 680 1054.5 c 128,-1,152
 668 1040 668 1040 650.5 1030 c 128,-1,153
 633 1020 633 1020 616 1003 c 128,-1,154
 599 986 599 986 565 975 c 1,155,-1
 557 969 l 1,156,157
 555 957 555 957 529 933 c 128,-1,158
 503 909 503 909 487 883 c 1,159,-1
 481 877 l 2,160,161
 475 870 475 870 463 854 c 128,-1,162
 451 838 451 838 438 828.5 c 128,-1,163
 425 819 425 819 406 774 c 1,164,-1
 401 768 l 1,165,-1
 401 750 l 2,166,167
 401 739 401 739 373 711 c 1,168,169
 369 687 369 687 355.5 665 c 128,-1,170
 342 643 342 643 341 617.5 c 128,-1,171
 340 592 340 592 328 559 c 1,172,-1
 326 545 l 2,173,174
 323 538 323 538 319 526 c 1,175,-1
 328 494 l 2,176,177
 326 487 326 487 325 476 c 128,-1,178
 324 465 324 465 321.5 460 c 128,-1,179
 319 455 319 455 319 453 c 2,180,-1
 330 401 l 2,181,182
 330 391 330 391 342 368.5 c 128,-1,183
 354 346 354 346 367.5 313.5 c 128,-1,184
 381 281 381 281 414 248 c 1,185,-1
 418 238 l 2,186,187
 420 229 420 229 434.5 221 c 128,-1,188
 449 213 449 213 459 205 c 128,-1,189
 469 197 469 197 487 188 c 2,190,-1
 508 176 l 1,191,-1
 524 176 l 2,192,193
 527 176 527 176 543 164 c 2,194,-1
 549 160 l 1,195,-1
 563 160 l 1,196,-1
 575 154 l 2,197,198
 584 150 584 150 588 150 c 0,199,200
 594 150 594 150 606 154 c 128,-1,201
 618 158 618 158 625 158 c 0,202,203
 631 158 631 158 643 155 c 128,-1,204
 655 152 655 152 662 152 c 0,205,206
 672 152 672 152 680 154 c 2,207,-1
 707 156 l 2,208,209
 728 158 728 158 780 171 c 128,-1,210
 832 184 832 184 846 193 c 2,211,-1
 877 213 l 2,212,213
 889 217 889 217 913.5 222 c 128,-1,214
 938 227 938 227 946 236 c 1,215,-1
 952 238 l 2,216,217
 954 238 954 238 958.5 231.5 c 128,-1,218
 963 225 963 225 965 225 c 0,219,220
 971 225 971 225 974 241.5 c 128,-1,221
 977 258 977 258 985 264 c 0,222,223
 1024 293 1024 293 1037.5 308.5 c 128,-1,224
 1051 324 1051 324 1075 324 c 0,225,226
 1083 324 1083 324 1105.5 302.5 c 128,-1,227
 1128 281 1128 281 1128 272 c 0,228,229
 1128 270 1128 270 1124 266 c 128,-1,230
 1120 262 1120 262 1120 260 c 2,231,-1
 1124 227 l 2,232,233
 1124 223 1124 223 1117 220 c 2,234,-1
 1072 200 l 2,235,236
 1050 191 1050 191 1020.5 178.5 c 128,-1,237
 991 166 991 166 963.5 150.5 c 128,-1,238
 936 135 936 135 920 135 c 0,239,240
 911 135 911 135 905 138 c 128,-1,241
 899 141 899 141 895 141 c 256,242,243
 891 141 891 141 877 131 c 128,-1,244
 863 121 863 121 841 115 c 128,-1,245
 819 109 819 109 817 109 c 2,246,-1
 801 113 l 2,247,248
 799 113 799 113 793.5 107.5 c 128,-1,249
 788 102 788 102 778 101 c 128,-1,250
 768 100 768 100 750.5 91 c 128,-1,251
 733 82 733 82 709 82 c 1,252,-1
 672 74 l 1,253,-1
 647 78 l 1,254,-1
 631 76 l 2,255,256
 629 78 629 78 621 80 c 2,257,-1
 602 88 l 1,258,-1
 567 96 l 1,259,260
 545 88 545 88 541 88 c 0,261,262
 504 88 504 88 469 115 c 1,263,-1
 442 113 l 2,264,265
 417 113 417 113 407 124 c 128,-1,266
 397 135 397 135 385 141 c 128,-1,267
 373 147 373 147 362.5 158.5 c 128,-1,268
 352 170 352 170 328 182 c 1,269,270
 319 193 319 193 301 221 c 1,271,-1
 281 240 l 2,272,273
 268 250 268 250 262 281 c 1,274,-1
 256 291 l 2,275,276
 241 314 241 314 233 356 c 0,277,278
 228 368 228 368 217 381 c 1,279,-1
 217 395 l 1,280,-1
 215 401 l 2,281,282
 213 408 213 408 213 420 c 0,283,284
 213 424 213 424 215 430 c 128,-1,285
 217 436 217 436 217 438 c 2,286,-1
 209 469 l 1,287,-1
 213 487 l 1,288,-1
 205 559 l 2,289,290
 205 565 205 565 215 584.5 c 128,-1,291
 225 604 225 604 225 610 c 0,292,293
 225 612 225 612 223 618 c 2,294,-1
 223 625 l 2,295,296
 223 629 223 629 228 639 c 128,-1,297
 233 649 233 649 238.5 667.5 c 128,-1,298
 244 686 244 686 258 709 c 1,299,-1
 262 721 l 2,300,301
 262 729 262 729 271.5 739.5 c 128,-1,302
 281 750 281 750 281 760 c 2,303,-1
 281 778 l 2,304,305
 281 797 281 797 346 862 c 1,306,-1
 381 926 l 2,307,308
 389 936 389 936 401 944 c 1,309,-1
 412 965 l 2,310,311
 415 973 415 973 463 1011 c 128,-1,312
 511 1049 511 1049 518 1053 c 2,313,-1
 537 1067 l 2,314,315
 620 1128 620 1128 655 1143 c 1,316,-1
 731 1190 l 1,317,-1
 762 1200 l 1,318,-1
 801 1219 l 1,319,-1
 829 1225 l 1,320,-1
 885 1255 l 1,321,-1
 909 1257 l 1,322,-1
 967 1270 l 1,323,-1
 993 1270 l 1,324,-1
 1024 1278 l 1,325,-1
 1100 1286 l 1,326,-1
 1124 1284 l 2,327,328
 1126 1284 1126 1284 1141 1290 c 1,329,-1
 1161 1292 l 2,330,331
 1169 1292 1169 1292 1193 1284 c 128,-1,332
 1217 1276 1217 1276 1223 1276 c 2,333,-1
 1245 1276 l 2,334,335
 1249 1276 1249 1276 1274 1268 c 1,336,-1
 1296 1266 l 2,337,338
 1313 1266 1313 1266 1323 1259.5 c 128,-1,339
 1333 1253 1333 1253 1344 1250.5 c 128,-1,340
 1355 1248 1355 1248 1382 1233 c 128,-1,341
 1409 1218 1409 1218 1417 1210 c 2,342,-1
 1477 1178 l 1,343,-1
 1506 1147 l 1,344,-1
 1524 1134 l 2,345,346
 1527 1132 1527 1132 1541 1102 c 0,347,348
 1550 1085 1550 1085 1558 1072 c 0,349,350
 1569 1053 1569 1053 1570 1049 c 0,351,352
 1573 1038 1573 1038 1578 1026 c 0,353,354
 1587 1002 1587 1002 1589 998 c 0,355,356
 1593 983 1593 983 1597 961 c 0,357,358
 1599 950 1599 950 1607.5 932.5 c 128,-1,359
 1616 915 1616 915 1616 897 c 2,360,-1
 1614 866 l 1,361,-1
 1618 836 l 1,362,363
 1612 823 1612 823 1612 815 c 2,364,-1
 1594 736 l 2,365,366
 1587 706 1587 706 1580 697.5 c 128,-1,367
 1573 689 1573 689 1544 635 c 1,368,-1
 1530 614 l 1,369,-1
 1526 598 l 2,370,371
 1524 594 1524 594 1511 584 c 2,372,-1
 1501 573 l 2,373,374
 1497 567 1497 567 1483.5 560 c 128,-1,375
 1470 553 1470 553 1458 541 c 1,0,-1
1116 793 m 2,376,-1
 1104 795 l 1,377,-1
 1081 793 l 1,378,-1
 1040 801 l 1,379,380
 991 782 991 782 964.5 777 c 128,-1,381
 938 772 938 772 915.5 755.5 c 128,-1,382
 893 739 893 739 881.5 734 c 128,-1,383
 870 729 870 729 856 715.5 c 128,-1,384
 842 702 842 702 821.5 687 c 128,-1,385
 801 672 801 672 798 664.5 c 128,-1,386
 795 657 795 657 784.5 648 c 128,-1,387
 774 639 774 639 758 610 c 1,388,-1
 748 604 l 2,389,390
 735 596 735 596 721 559 c 1,391,-1
 707 539 l 2,392,393
 705 537 705 537 705 516 c 0,394,395
 705 483 705 483 725 483 c 0,396,397
 739 483 739 483 792.5 512 c 128,-1,398
 846 541 846 541 872.5 564.5 c 128,-1,399
 899 588 899 588 944 611.5 c 128,-1,400
 989 635 989 635 1004 662 c 1,401,-1
 1107 762 l 2,402,403
 1135 789 1135 789 1135 795 c 0,404,405
 1135 799 1135 799 1128 799 c 1,406,407
 1119 792 1119 792 1116 793 c 2,376,-1
EndSplineSet
EndChar

StartChar: A
Encoding: 65 65 37
Width: 1216
Flags: W
LayerCount: 2
Fore
SplineSet
154 325 m 1,0,-1
 167 335 l 1,1,-1
 155 362 l 1,2,-1
 161 377 l 1,3,-1
 168 390 l 1,4,-1
 176 394 l 1,5,-1
 190 381 l 1,6,-1
 195 382 l 1,7,-1
 188 396 l 1,8,-1
 172 407 l 1,9,-1
 167 433 l 1,10,-1
 174 461 l 1,11,-1
 189 520 l 1,12,-1
 203 546 l 1,13,-1
 229 580 l 1,14,-1
 241 642 l 1,15,-1
 262 690 l 1,16,-1
 302 750 l 1,17,-1
 313 779 l 1,18,-1
 338 811 l 1,19,-1
 354 851 l 1,20,-1
 391 892 l 1,21,-1
 398 911 l 1,22,-1
 428 952 l 1,23,-1
 477 1019 l 1,24,-1
 500 1037 l 1,25,-1
 508 1056 l 1,26,-1
 533 1078 l 1,27,-1
 549 1099 l 1,28,-1
 569 1112 l 1,29,-1
 586 1134 l 1,30,-1
 628 1165 l 1,31,-1
 645 1181 l 1,32,-1
 670 1194 l 1,33,-1
 678 1212 l 1,34,-1
 714 1246 l 1,35,-1
 738 1268 l 1,36,-1
 775 1288 l 1,37,-1
 784 1308 l 1,38,-1
 810 1319 l 1,39,-1
 830 1338 l 1,40,-1
 862 1347 l 1,41,-1
 885 1366 l 1,42,-1
 908 1380 l 1,43,-1
 969 1407 l 1,44,-1
 1038 1419 l 1,45,-1
 1078 1413 l 1,46,-1
 1111 1401 l 1,47,-1
 1121 1386 l 1,48,-1
 1140 1355 l 1,49,-1
 1144 1327 l 1,50,-1
 1142 1304 l 1,51,-1
 1129 1217 l 1,52,-1
 1127 1194 l 1,53,-1
 1115 1166 l 1,54,-1
 1105 1123 l 1,55,-1
 1092 1104 l 1,56,-1
 1077 1094 l 1,57,-1
 1061 1091 l 1,58,-1
 1039 1097 l 1,59,-1
 1022 1114 l 1,60,-1
 1014 1146 l 1,61,-1
 1017 1167 l 1,62,-1
 1021 1173 l 1,63,-1
 1061 1210 l 1,64,-1
 1080 1237 l 1,65,-1
 1093 1295 l 1,66,-1
 1092 1305 l 1,67,-1
 1090 1308 l 1,68,-1
 1077 1317 l 1,69,-1
 1056 1313 l 1,70,-1
 1036 1317 l 1,71,-1
 1001 1299 l 1,72,-1
 963 1285 l 1,73,-1
 934 1258 l 1,74,-1
 882 1226 l 1,75,-1
 857 1205 l 1,76,-1
 841 1189 l 1,77,-1
 813 1184 l 1,78,-1
 802 1161 l 1,79,-1
 773 1144 l 1,80,-1
 760 1120 l 1,81,-1
 746 1111 l 1,82,-1
 720 1083 l 1,83,-1
 700 1067 l 1,84,-1
 689 1066 l 1,85,-1
 680 1044 l 1,86,-1
 666 1026 l 1,87,-1
 629 1006 l 1,88,-1
 631 983 l 1,89,-1
 628 974 l 1,90,-1
 625 970 l 1,91,-1
 582 931 l 1,92,-1
 575 903 l 1,93,-1
 559 882 l 1,94,-1
 538 848 l 1,95,-1
 522 831 l 1,96,-1
 511 799 l 1,97,-1
 489 783 l 1,98,-1
 476 753 l 1,99,-1
 454 740 l 1,100,-1
 452 729 l 1,101,-1
 456 706 l 1,102,-1
 456 704 l 1,103,-1
 455 700 l 1,104,-1
 446 690 l 1,105,-1
 428 678 l 1,106,-1
 418 652 l 1,107,-1
 410 639 l 1,108,-1
 384 613 l 1,109,-1
 387 591 l 1,110,-1
 368 544 l 1,111,-1
 345 507 l 1,112,-1
 325 495 l 1,113,-1
 329 463 l 1,114,-1
 315 423 l 1,115,-1
 319 403 l 1,116,-1
 304 391 l 1,117,-1
 305 368 l 1,118,-1
 287 296 l 1,119,-1
 298 261 l 1,120,-1
 289 242 l 1,121,-1
 293 220 l 1,122,-1
 304 173 l 1,123,-1
 310 167 l 1,124,-1
 326 165 l 1,125,-1
 347 167 l 1,126,-1
 367 172 l 1,127,-1
 388 189 l 1,128,-1
 447 234 l 1,129,-1
 462 253 l 1,130,-1
 475 259 l 1,131,-1
 492 270 l 1,132,-1
 503 290 l 1,133,-1
 550 344 l 1,134,-1
 593 405 l 1,135,-1
 609 417 l 1,136,-1
 625 453 l 1,137,-1
 643 469 l 1,138,-1
 666 493 l 1,139,-1
 680 517 l 1,140,-1
 712 552 l 1,141,-1
 732 579 l 1,142,-1
 747 603 l 1,143,-1
 767 618 l 1,144,-1
 779 641 l 1,145,-1
 804 652 l 1,146,-1
 802 681 l 1,147,-1
 806 688 l 1,148,-1
 814 696 l 1,149,-1
 833 706 l 1,150,-1
 836 735 l 1,151,-1
 871 759 l 1,152,-1
 889 805 l 1,153,-1
 930 855 l 1,154,-1
 931 879 l 1,155,-1
 956 897 l 1,156,-1
 956 918 l 1,157,-1
 975 939 l 1,158,-1
 979 950 l 1,159,-1
 995 965 l 1,160,-1
 1000 985 l 1,161,-1
 1031 1031 l 1,162,-1
 1057 1059 l 1,163,-1
 1069 1064 l 1,164,-1
 1079 1065 l 1,165,-1
 1109 1056 l 1,166,-1
 1139 1042 l 1,167,-1
 1154 1019 l 1,168,-1
 1161 998 l 1,169,-1
 1160 994 l 1,170,-1
 1138 936 l 1,171,-1
 1129 887 l 1,172,-1
 1117 855 l 1,173,-1
 1103 823 l 1,174,-1
 1108 801 l 1,175,-1
 1092 768 l 1,176,-1
 1082 717 l 1,177,-1
 1077 707 l 1,178,-1
 1073 703 l 1,179,-1
 1053 696 l 1,180,-1
 1046 672 l 1,181,-1
 1044 608 l 1,182,-1
 1029 586 l 1,183,-1
 1005 545 l 1,184,-1
 992 482 l 1,185,-1
 977 461 l 1,186,-1
 980 442 l 1,187,-1
 965 402 l 1,188,-1
 969 373 l 1,189,-1
 960 349 l 1,190,-1
 963 302 l 1,191,-1
 956 279 l 1,192,-1
 956 269 l 1,193,-1
 960 264 l 1,194,-1
 980 273 l 1,195,-1
 1004 287 l 1,196,-1
 1060 337 l 1,197,-1
 1119 373 l 1,198,-1
 1136 390 l 1,199,-1
 1203 447 l 1,200,-1
 1226 464 l 1,201,-1
 1244 481 l 1,202,-1
 1254 483 l 1,203,-1
 1263 481 l 1,204,-1
 1267 478 l 1,205,-1
 1270 473 l 1,206,-1
 1261 419 l 1,207,-1
 1254 375 l 1,208,-1
 1239 356 l 1,209,-1
 1225 342 l 1,210,-1
 1207 334 l 1,211,-1
 1192 312 l 1,212,-1
 1165 303 l 1,213,-1
 1156 290 l 1,214,-1
 1136 280 l 1,215,-1
 1116 248 l 1,216,-1
 1090 242 l 1,217,-1
 1049 208 l 1,218,-1
 1026 193 l 1,219,-1
 964 182 l 1,220,-1
 940 179 l 1,221,-1
 928 183 l 1,222,-1
 920 198 l 1,223,-1
 899 198 l 1,224,-1
 889 213 l 1,225,-1
 873 223 l 1,226,-1
 860 246 l 1,227,-1
 844 268 l 1,228,-1
 832 325 l 1,229,-1
 828 347 l 1,230,-1
 830 374 l 1,231,-1
 835 419 l 1,232,-1
 845 455 l 1,233,-1
 847 493 l 1,234,-1
 875 601 l 1,235,-1
 877 641 l 1,236,-1
 866 620 l 1,237,-1
 836 580 l 1,238,-1
 801 548 l 1,239,-1
 790 530 l 1,240,-1
 799 517 l 1,241,-1
 785 496 l 1,242,-1
 760 463 l 1,243,-1
 747 437 l 1,244,-1
 720 434 l 1,245,-1
 714 429 l 1,246,-1
 717 404 l 1,247,-1
 691 379 l 1,248,-1
 685 365 l 1,249,-1
 674 357 l 1,250,-1
 676 337 l 1,251,-1
 660 322 l 1,252,-1
 648 295 l 1,253,-1
 643 288 l 1,254,-1
 639 285 l 1,255,-1
 617 284 l 1,256,-1
 618 250 l 1,257,-1
 597 235 l 1,258,-1
 564 187 l 1,259,-1
 512 134 l 1,260,-1
 497 116 l 1,261,-1
 477 102 l 1,262,-1
 456 78 l 1,263,-1
 436 72 l 1,264,-1
 418 60 l 1,265,-1
 371 52 l 1,266,-1
 341 40 l 1,267,-1
 336 40 l 1,268,-1
 306 49 l 1,269,-1
 267 69 l 1,270,-1
 244 74 l 1,271,-1
 230 94 l 1,272,-1
 195 123 l 1,273,-1
 185 139 l 1,274,-1
 163 197 l 1,275,-1
 152 259 l 1,276,-1
 153 273 l 1,277,-1
 161 297 l 1,278,-1
 158 303 l 1,279,-1
 151 313 l 1,280,-1
 150 316 l 1,281,-1
 151 320 l 1,282,-1
 154 325 l 1,0,-1
EndSplineSet
EndChar

StartChar: B
Encoding: 66 66 38
Width: 1197
Flags: W
LayerCount: 2
Fore
SplineSet
189 1213 m 1,0,-1
 215 1211 l 1,1,-1
 238 1227 l 1,2,-1
 286 1243 l 1,3,-1
 309 1247 l 1,4,-1
 351 1257 l 1,5,-1
 395 1258 l 1,6,-1
 436 1270 l 1,7,-1
 446 1270 l 1,8,-1
 453 1270 l 1,9,-1
 476 1263 l 1,10,-1
 491 1280 l 1,11,-1
 525 1289 l 1,12,-1
 597 1301 l 1,13,-1
 626 1300 l 1,14,-1
 672 1307 l 1,15,-1
 754 1306 l 1,16,-1
 861 1308 l 1,17,-1
 929 1298 l 1,18,-1
 975 1292 l 1,19,-1
 995 1285 l 1,20,-1
 1016 1281 l 1,21,-1
 1035 1268 l 1,22,-1
 1103 1224 l 1,23,-1
 1130 1194 l 1,24,-1
 1142 1145 l 1,25,-1
 1134 1108 l 1,26,-1
 1099 1058 l 1,27,-1
 1015 995 l 1,28,-1
 919 940 l 1,29,-1
 848 914 l 1,30,-1
 814 894 l 1,31,-1
 847 883 l 1,32,-1
 885 877 l 1,33,-1
 951 856 l 1,34,-1
 1055 817 l 1,35,-1
 1109 785 l 1,36,-1
 1137 767 l 1,37,-1
 1148 744 l 1,38,-1
 1166 742 l 1,39,-1
 1173 737 l 1,40,-1
 1178 729 l 1,41,-1
 1189 699 l 1,42,-1
 1208 676 l 1,43,-1
 1216 647 l 1,44,-1
 1224 621 l 1,45,-1
 1224 600 l 1,46,-1
 1217 552 l 1,47,-1
 1214 533 l 1,48,-1
 1202 520 l 1,49,-1
 1185 485 l 1,50,-1
 1130 422 l 1,51,-1
 1121 417 l 1,52,-1
 1101 410 l 1,53,-1
 1081 389 l 1,54,-1
 1041 363 l 1,55,-1
 1022 342 l 1,56,-1
 1002 344 l 1,57,-1
 987 328 l 1,58,-1
 967 310 l 1,59,-1
 939 301 l 1,60,-1
 917 297 l 1,61,-1
 914 286 l 1,62,-1
 896 273 l 1,63,-1
 880 272 l 1,64,-1
 844 246 l 1,65,-1
 810 248 l 1,66,-1
 805 246 l 1,67,-1
 787 231 l 1,68,-1
 774 220 l 1,69,-1
 737 224 l 1,70,-1
 720 207 l 1,71,-1
 701 207 l 1,72,-1
 658 183 l 1,73,-1
 640 177 l 1,74,-1
 626 169 l 1,75,-1
 596 163 l 1,76,-1
 562 149 l 1,77,-1
 535 154 l 1,78,-1
 514 143 l 1,79,-1
 496 135 l 1,80,-1
 380 113 l 1,81,-1
 326 99 l 1,82,-1
 308 98 l 1,83,-1
 287 102 l 1,84,-1
 271 115 l 1,85,-1
 256 111 l 1,86,-1
 236 96 l 1,87,-1
 219 99 l 1,88,-1
 195 95 l 1,89,-1
 168 115 l 1,90,-1
 146 110 l 1,91,-1
 144 110 l 1,92,-1
 131 113 l 1,93,-1
 122 119 l 1,94,-1
 110 146 l 1,95,-1
 97 141 l 1,96,-1
 91 143 l 1,97,-1
 84 151 l 1,98,-1
 74 187 l 1,99,-1
 76 199 l 1,100,-1
 95 227 l 1,101,-1
 130 259 l 1,102,-1
 256 348 l 1,103,-1
 310 380 l 1,104,-1
 384 416 l 1,105,-1
 456 455 l 1,106,-1
 489 457 l 1,107,-1
 490 458 l 1,108,-1
 498 478 l 1,109,-1
 529 485 l 1,110,-1
 655 551 l 1,111,-1
 748 585 l 1,112,-1
 790 605 l 1,113,-1
 816 611 l 1,114,-1
 847 622 l 1,115,-1
 856 623 l 1,116,-1
 885 615 l 1,117,-1
 915 584 l 1,118,-1
 923 560 l 1,119,-1
 921 548 l 1,120,-1
 903 514 l 1,121,-1
 891 498 l 1,122,-1
 861 491 l 1,123,-1
 850 501 l 1,124,-1
 820 500 l 1,125,-1
 799 499 l 1,126,-1
 789 500 l 1,127,-1
 775 506 l 1,128,-1
 750 498 l 1,129,-1
 724 495 l 1,130,-1
 698 481 l 1,131,-1
 591 446 l 1,132,-1
 502 405 l 1,133,-1
 461 394 l 1,134,-1
 411 360 l 1,135,-1
 284 287 l 1,136,-1
 266 271 l 1,137,-1
 259 260 l 1,138,-1
 258 255 l 1,139,-1
 259 251 l 1,140,-1
 263 246 l 1,141,-1
 284 241 l 1,142,-1
 373 235 l 1,143,-1
 406 235 l 1,144,-1
 440 238 l 1,145,-1
 475 253 l 1,146,-1
 554 267 l 1,147,-1
 572 280 l 1,148,-1
 595 280 l 1,149,-1
 609 283 l 1,150,-1
 618 287 l 1,151,-1
 633 298 l 1,152,-1
 671 303 l 1,153,-1
 731 330 l 1,154,-1
 780 344 l 1,155,-1
 815 370 l 1,156,-1
 837 373 l 1,157,-1
 890 407 l 1,158,-1
 931 421 l 1,159,-1
 956 450 l 1,160,-1
 985 460 l 1,161,-1
 1011 481 l 1,162,-1
 1037 497 l 1,163,-1
 1047 510 l 1,164,-1
 1098 553 l 1,165,-1
 1113 569 l 1,166,-1
 1125 567 l 1,167,-1
 1132 568 l 1,168,-1
 1131 589 l 1,169,-1
 1148 599 l 1,170,-1
 1141 622 l 1,171,-1
 1144 638 l 1,172,-1
 1123 670 l 1,173,-1
 1121 685 l 1,174,-1
 1100 691 l 1,175,-1
 1086 709 l 1,176,-1
 1079 715 l 1,177,-1
 1050 729 l 1,178,-1
 1013 742 l 1,179,-1
 972 758 l 1,180,-1
 926 763 l 1,181,-1
 833 781 l 1,182,-1
 783 778 l 1,183,-1
 703 791 l 1,184,-1
 663 786 l 1,185,-1
 643 790 l 1,186,-1
 623 792 l 1,187,-1
 587 789 l 1,188,-1
 566 787 l 1,189,-1
 540 792 l 1,190,-1
 530 801 l 1,191,-1
 528 808 l 1,192,-1
 529 812 l 1,193,-1
 534 836 l 1,194,-1
 538 858 l 1,195,-1
 555 879 l 1,196,-1
 586 912 l 1,197,-1
 603 919 l 1,198,-1
 654 943 l 1,199,-1
 734 968 l 1,200,-1
 825 1011 l 1,201,-1
 857 1023 l 1,202,-1
 921 1065 l 1,203,-1
 981 1103 l 1,204,-1
 998 1118 l 1,205,-1
 1016 1127 l 1,206,-1
 1020 1133 l 1,207,-1
 1023 1153 l 1,208,-1
 1019 1174 l 1,209,-1
 1010 1184 l 1,210,-1
 986 1196 l 1,211,-1
 945 1211 l 1,212,-1
 866 1219 l 1,213,-1
 817 1227 l 1,214,-1
 792 1229 l 1,215,-1
 772 1227 l 1,216,-1
 723 1217 l 1,217,-1
 720 1217 l 1,218,-1
 701 1230 l 1,219,-1
 693 1227 l 1,220,-1
 674 1211 l 1,221,-1
 631 1216 l 1,222,-1
 620 1207 l 1,223,-1
 621 1198 l 1,224,-1
 630 1182 l 1,225,-1
 641 1162 l 1,226,-1
 636 1141 l 1,227,-1
 636 1113 l 1,228,-1
 624 1094 l 1,229,-1
 618 1071 l 1,230,-1
 603 1035 l 1,231,-1
 579 981 l 1,232,-1
 556 924 l 1,233,-1
 542 904 l 1,234,-1
 532 869 l 1,235,-1
 496 794 l 1,236,-1
 481 753 l 1,237,-1
 465 729 l 1,238,-1
 423 622 l 1,239,-1
 403 593 l 1,240,-1
 385 517 l 1,241,-1
 352 441 l 1,242,-1
 343 420 l 1,243,-1
 323 422 l 1,244,-1
 304 430 l 1,245,-1
 293 441 l 1,246,-1
 257 498 l 1,247,-1
 244 515 l 1,248,-1
 237 532 l 1,249,-1
 235 541 l 1,250,-1
 262 610 l 1,251,-1
 281 654 l 1,252,-1
 306 707 l 1,253,-1
 328 746 l 1,254,-1
 331 763 l 1,255,-1
 351 788 l 1,256,-1
 351 806 l 1,257,-1
 374 830 l 1,258,-1
 379 854 l 1,259,-1
 394 868 l 1,260,-1
 398 892 l 1,261,-1
 411 898 l 1,262,-1
 414 919 l 1,263,-1
 420 935 l 1,264,-1
 435 945 l 1,265,-1
 454 959 l 1,266,-1
 443 966 l 1,267,-1
 444 989 l 1,268,-1
 464 1009 l 1,269,-1
 458 1035 l 1,270,-1
 472 1064 l 1,271,-1
 493 1107 l 1,272,-1
 514 1127 l 1,273,-1
 509 1155 l 1,274,-1
 525 1171 l 1,275,-1
 540 1180 l 1,276,-1
 550 1199 l 1,277,-1
 526 1207 l 1,278,-1
 508 1201 l 1,279,-1
 463 1196 l 1,280,-1
 435 1182 l 1,281,-1
 417 1186 l 1,282,-1
 392 1176 l 1,283,-1
 296 1165 l 1,284,-1
 277 1158 l 1,285,-1
 258 1156 l 1,286,-1
 242 1149 l 1,287,-1
 219 1142 l 1,288,-1
 203 1148 l 1,289,-1
 181 1130 l 1,290,-1
 161 1117 l 1,291,-1
 128 1111 l 1,292,-1
 97 1087 l 1,293,-1
 87 1065 l 1,294,-1
 50 1037 l 1,295,-1
 30 1025 l 1,296,-1
 12 1033 l 1,297,-1
 -8 1053 l 1,298,-1
 -14 1074 l 1,299,-1
 -4 1110 l 1,300,-1
 34 1157 l 1,301,-1
 73 1180 l 1,302,-1
 122 1192 l 1,303,-1
 189 1213 l 1,0,-1
EndSplineSet
EndChar

StartChar: C
Encoding: 67 67 39
Width: 1048
Flags: W
LayerCount: 2
Fore
SplineSet
150 340 m 1,0,-1
 152 386 l 1,1,-1
 159 405 l 1,2,-1
 173 457 l 1,3,-1
 199 536 l 1,4,-1
 227 604 l 1,5,-1
 233 622 l 1,6,-1
 244 637 l 1,7,-1
 263 685 l 1,8,-1
 278 699 l 1,9,-1
 290 721 l 1,10,-1
 303 723 l 1,11,-1
 295 757 l 1,12,-1
 322 788 l 1,13,-1
 329 812 l 1,14,-1
 340 826 l 1,15,-1
 353 845 l 1,16,-1
 385 855 l 1,17,-1
 397 838 l 1,18,-1
 410 850 l 1,19,-1
 391 859 l 1,20,-1
 376 888 l 1,21,-1
 393 911 l 1,22,-1
 420 923 l 1,23,-1
 409 932 l 1,24,-1
 409 941 l 1,25,-1
 428 961 l 1,26,-1
 438 984 l 1,27,-1
 459 997 l 1,28,-1
 464 993 l 1,29,-1
 473 995 l 1,30,-1
 477 1018 l 1,31,-1
 475 1041 l 1,32,-1
 508 1076 l 1,33,-1
 521 1101 l 1,34,-1
 556 1126 l 1,35,-1
 566 1142 l 1,36,-1
 589 1162 l 1,37,-1
 619 1180 l 1,38,-1
 625 1174 l 1,39,-1
 642 1168 l 1,40,-1
 635 1161 l 1,41,-1
 635 1154 l 1,42,-1
 645 1161 l 1,43,-1
 649 1166 l 1,44,-1
 650 1172 l 1,45,-1
 648 1180 l 1,46,-1
 634 1194 l 1,47,-1
 650 1217 l 1,48,-1
 681 1242 l 1,49,-1
 714 1269 l 1,50,-1
 747 1288 l 1,51,-1
 763 1304 l 1,52,-1
 788 1303 l 1,53,-1
 794 1295 l 1,54,-1
 800 1296 l 1,55,-1
 795 1314 l 1,56,-1
 823 1336 l 1,57,-1
 875 1354 l 1,58,-1
 896 1369 l 1,59,-1
 947 1384 l 1,60,-1
 975 1386 l 1,61,-1
 1003 1398 l 1,62,-1
 1029 1384 l 1,63,-1
 1047 1391 l 1,64,-1
 1068 1370 l 1,65,-1
 1096 1348 l 1,66,-1
 1108 1324 l 1,67,-1
 1117 1295 l 1,68,-1
 1117 1293 l 1,69,-1
 1112 1248 l 1,70,-1
 1114 1212 l 1,71,-1
 1099 1181 l 1,72,-1
 1090 1138 l 1,73,-1
 1076 1109 l 1,74,-1
 1062 1066 l 1,75,-1
 1037 1016 l 1,76,-1
 928 853 l 1,77,-1
 917 838 l 1,78,-1
 893 825 l 1,79,-1
 897 804 l 1,80,-1
 890 787 l 1,81,-1
 871 766 l 1,82,-1
 842 746 l 1,83,-1
 820 741 l 1,84,-1
 794 748 l 1,85,-1
 783 756 l 1,86,-1
 758 786 l 1,87,-1
 753 802 l 1,88,-1
 764 833 l 1,89,-1
 780 857 l 1,90,-1
 844 906 l 1,91,-1
 860 919 l 1,92,-1
 876 920 l 1,93,-1
 884 934 l 1,94,-1
 886 956 l 1,95,-1
 911 977 l 1,96,-1
 918 989 l 1,97,-1
 928 1002 l 1,98,-1
 942 1007 l 1,99,-1
 953 1026 l 1,100,-1
 984 1077 l 1,101,-1
 989 1101 l 1,102,-1
 1008 1112 l 1,103,-1
 1010 1146 l 1,104,-1
 1025 1160 l 1,105,-1
 1028 1180 l 1,106,-1
 1032 1204 l 1,107,-1
 1047 1241 l 1,108,-1
 1047 1266 l 1,109,-1
 1047 1282 l 1,110,-1
 1044 1295 l 1,111,-1
 1035 1304 l 1,112,-1
 1016 1309 l 1,113,-1
 1006 1307 l 1,114,-1
 948 1280 l 1,115,-1
 923 1271 l 1,116,-1
 909 1280 l 1,117,-1
 903 1276 l 1,118,-1
 898 1259 l 1,119,-1
 882 1254 l 1,120,-1
 864 1237 l 1,121,-1
 848 1237 l 1,122,-1
 831 1213 l 1,123,-1
 810 1199 l 1,124,-1
 795 1176 l 1,125,-1
 779 1174 l 1,126,-1
 759 1141 l 1,127,-1
 740 1141 l 1,128,-1
 733 1113 l 1,129,-1
 706 1087 l 1,130,-1
 692 1071 l 1,131,-1
 672 1067 l 1,132,-1
 670 1040 l 1,133,-1
 649 1028 l 1,134,-1
 647 1016 l 1,135,-1
 633 1002 l 1,136,-1
 621 992 l 1,137,-1
 601 981 l 1,138,-1
 607 969 l 1,139,-1
 596 951 l 1,140,-1
 592 943 l 1,141,-1
 589 940 l 1,142,-1
 579 937 l 1,143,-1
 573 905 l 1,144,-1
 557 880 l 1,145,-1
 539 855 l 1,146,-1
 530 833 l 1,147,-1
 517 810 l 1,148,-1
 490 801 l 1,149,-1
 493 770 l 1,150,-1
 477 745 l 1,151,-1
 465 715 l 1,152,-1
 442 684 l 1,153,-1
 440 664 l 1,154,-1
 426 635 l 1,155,-1
 406 583 l 1,156,-1
 382 559 l 1,157,-1
 378 537 l 1,158,-1
 373 514 l 1,159,-1
 353 486 l 1,160,-1
 346 450 l 1,161,-1
 326 433 l 1,162,-1
 336 429 l 1,163,-1
 336 398 l 1,164,-1
 317 364 l 1,165,-1
 302 324 l 1,166,-1
 311 305 l 1,167,-1
 304 241 l 1,168,-1
 310 220 l 1,169,-1
 299 217 l 1,170,-1
 299 204 l 1,171,-1
 316 188 l 1,172,-1
 334 162 l 1,173,-1
 343 144 l 1,174,-1
 367 143 l 1,175,-1
 393 149 l 1,176,-1
 415 151 l 1,177,-1
 446 165 l 1,178,-1
 488 177 l 1,179,-1
 509 200 l 1,180,-1
 548 210 l 1,181,-1
 581 248 l 1,182,-1
 625 272 l 1,183,-1
 649 295 l 1,184,-1
 670 302 l 1,185,-1
 684 321 l 1,186,-1
 698 331 l 1,187,-1
 713 345 l 1,188,-1
 761 387 l 1,189,-1
 773 410 l 1,190,-1
 790 424 l 1,191,-1
 810 420 l 1,192,-1
 812 437 l 1,193,-1
 830 449 l 1,194,-1
 850 462 l 1,195,-1
 860 483 l 1,196,-1
 888 502 l 1,197,-1
 912 529 l 1,198,-1
 933 529 l 1,199,-1
 942 552 l 1,200,-1
 951 566 l 1,201,-1
 969 568 l 1,202,-1
 981 595 l 1,203,-1
 1005 605 l 1,204,-1
 1022 634 l 1,205,-1
 1055 652 l 1,206,-1
 1069 660 l 1,207,-1
 1077 661 l 1,208,-1
 1088 658 l 1,209,-1
 1103 643 l 1,210,-1
 1108 624 l 1,211,-1
 1105 612 l 1,212,-1
 1088 596 l 1,213,-1
 1083 574 l 1,214,-1
 1063 558 l 1,215,-1
 1041 537 l 1,216,-1
 1035 516 l 1,217,-1
 1010 501 l 1,218,-1
 990 473 l 1,219,-1
 974 456 l 1,220,-1
 960 452 l 1,221,-1
 952 429 l 1,222,-1
 915 398 l 1,223,-1
 906 373 l 1,224,-1
 885 369 l 1,225,-1
 869 350 l 1,226,-1
 849 328 l 1,227,-1
 838 310 l 1,228,-1
 819 310 l 1,229,-1
 805 290 l 1,230,-1
 782 284 l 1,231,-1
 763 257 l 1,232,-1
 751 245 l 1,233,-1
 742 231 l 1,234,-1
 738 229 l 1,235,-1
 734 229 l 1,236,-1
 729 229 l 1,237,-1
 726 232 l 1,238,-1
 722 245 l 1,239,-1
 704 231 l 1,240,-1
 712 216 l 1,241,-1
 689 186 l 1,242,-1
 677 176 l 1,243,-1
 665 171 l 1,244,-1
 644 167 l 1,245,-1
 633 145 l 1,246,-1
 612 138 l 1,247,-1
 581 109 l 1,248,-1
 555 108 l 1,249,-1
 538 94 l 1,250,-1
 512 94 l 1,251,-1
 499 80 l 1,252,-1
 483 75 l 1,253,-1
 471 66 l 1,254,-1
 463 64 l 1,255,-1
 456 66 l 1,256,-1
 452 69 l 1,257,-1
 452 90 l 1,258,-1
 445 67 l 1,259,-1
 440 53 l 1,260,-1
 436 49 l 1,261,-1
 428 48 l 1,262,-1
 424 48 l 1,263,-1
 403 56 l 1,264,-1
 374 44 l 1,265,-1
 300 66 l 1,266,-1
 282 67 l 1,267,-1
 269 75 l 1,268,-1
 250 85 l 1,269,-1
 244 105 l 1,270,-1
 222 116 l 1,271,-1
 213 140 l 1,272,-1
 196 157 l 1,273,-1
 191 171 l 1,274,-1
 181 190 l 1,275,-1
 177 208 l 1,276,-1
 167 225 l 1,277,-1
 158 262 l 1,278,-1
 150 340 l 1,0,-1
EndSplineSet
EndChar

StartChar: D
Encoding: 68 68 40
Width: 1290
Flags: W
LayerCount: 2
Fore
SplineSet
299 745 m 1,0,-1
 295 731 l 1,1,-1
 306 730 l 1,2,-1
 329 756 l 1,3,-1
 347 759 l 1,4,-1
 356 759 l 1,5,-1
 378 756 l 1,6,-1
 393 767 l 1,7,-1
 471 782 l 1,8,-1
 501 792 l 1,9,-1
 505 820 l 1,10,-1
 535 863 l 1,11,-1
 547 916 l 1,12,-1
 555 935 l 1,13,-1
 579 941 l 1,14,-1
 569 976 l 1,15,-1
 586 986 l 1,16,-1
 576 1005 l 1,17,-1
 566 1049 l 1,18,-1
 572 1074 l 1,19,-1
 585 1088 l 1,20,-1
 600 1092 l 1,21,-1
 635 1085 l 1,22,-1
 651 1077 l 1,23,-1
 695 1032 l 1,24,-1
 714 976 l 1,25,-1
 711 958 l 1,26,-1
 677 866 l 1,27,-1
 671 842 l 1,28,-1
 693 841 l 1,29,-1
 712 845 l 1,30,-1
 747 847 l 1,31,-1
 836 879 l 1,32,-1
 886 885 l 1,33,-1
 911 897 l 1,34,-1
 926 887 l 1,35,-1
 937 905 l 1,36,-1
 982 929 l 1,37,-1
 1000 949 l 1,38,-1
 1026 963 l 1,39,-1
 1057 984 l 1,40,-1
 1080 989 l 1,41,-1
 1096 987 l 1,42,-1
 1116 980 l 1,43,-1
 1122 956 l 1,44,-1
 1123 941 l 1,45,-1
 1115 913 l 1,46,-1
 1079 875 l 1,47,-1
 1054 859 l 1,48,-1
 1031 848 l 1,49,-1
 952 825 l 1,50,-1
 904 816 l 1,51,-1
 898 817 l 1,52,-1
 894 818 l 1,53,-1
 889 825 l 1,54,-1
 871 821 l 1,55,-1
 862 807 l 1,56,-1
 840 816 l 1,57,-1
 828 805 l 1,58,-1
 765 785 l 1,59,-1
 657 766 l 1,60,-1
 635 760 l 1,61,-1
 619 724 l 1,62,-1
 604 689 l 1,63,-1
 568 622 l 1,64,-1
 569 607 l 1,65,-1
 556 590 l 1,66,-1
 520 532 l 1,67,-1
 431 340 l 1,68,-1
 409 304 l 1,69,-1
 401 279 l 1,70,-1
 383 240 l 1,71,-1
 384 232 l 1,72,-1
 396 235 l 1,73,-1
 416 244 l 1,74,-1
 468 243 l 1,75,-1
 483 251 l 1,76,-1
 527 252 l 1,77,-1
 556 261 l 1,78,-1
 567 265 l 1,79,-1
 579 263 l 1,80,-1
 593 278 l 1,81,-1
 608 271 l 1,82,-1
 616 284 l 1,83,-1
 638 283 l 1,84,-1
 669 288 l 1,85,-1
 745 321 l 1,86,-1
 790 335 l 1,87,-1
 834 362 l 1,88,-1
 867 374 l 1,89,-1
 884 390 l 1,90,-1
 905 394 l 1,91,-1
 942 426 l 1,92,-1
 969 436 l 1,93,-1
 1005 463 l 1,94,-1
 1031 473 l 1,95,-1
 1054 506 l 1,96,-1
 1092 531 l 1,97,-1
 1103 551 l 1,98,-1
 1123 567 l 1,99,-1
 1123 587 l 1,100,-1
 1141 594 l 1,101,-1
 1148 626 l 1,102,-1
 1164 632 l 1,103,-1
 1163 667 l 1,104,-1
 1190 694 l 1,105,-1
 1188 747 l 1,106,-1
 1196 759 l 1,107,-1
 1215 772 l 1,108,-1
 1200 783 l 1,109,-1
 1209 816 l 1,110,-1
 1200 845 l 1,111,-1
 1209 869 l 1,112,-1
 1212 889 l 1,113,-1
 1198 897 l 1,114,-1
 1197 923 l 1,115,-1
 1199 944 l 1,116,-1
 1193 966 l 1,117,-1
 1184 995 l 1,118,-1
 1168 1017 l 1,119,-1
 1171 1036 l 1,120,-1
 1152 1057 l 1,121,-1
 1137 1074 l 1,122,-1
 1120 1094 l 1,123,-1
 1099 1108 l 1,124,-1
 1084 1122 l 1,125,-1
 1066 1128 l 1,126,-1
 1009 1156 l 1,127,-1
 980 1164 l 1,128,-1
 946 1179 l 1,129,-1
 922 1178 l 1,130,-1
 908 1183 l 1,131,-1
 888 1180 l 1,132,-1
 837 1187 l 1,133,-1
 802 1189 l 1,134,-1
 752 1186 l 1,135,-1
 656 1171 l 1,136,-1
 565 1141 l 1,137,-1
 539 1143 l 1,138,-1
 523 1127 l 1,139,-1
 468 1108 l 1,140,-1
 453 1095 l 1,141,-1
 433 1090 l 1,142,-1
 420 1079 l 1,143,-1
 392 1074 l 1,144,-1
 373 1052 l 1,145,-1
 324 1026 l 1,146,-1
 305 1010 l 1,147,-1
 284 1001 l 1,148,-1
 277 991 l 1,149,-1
 247 979 l 1,150,-1
 239 958 l 1,151,-1
 216 946 l 1,152,-1
 207 921 l 1,153,-1
 169 885 l 1,154,-1
 144 850 l 1,155,-1
 131 801 l 1,156,-1
 138 778 l 1,157,-1
 155 757 l 1,158,-1
 165 752 l 1,159,-1
 196 747 l 1,160,-1
 231 741 l 1,161,-1
 286 753 l 1,162,-1
 296 749 l 1,163,-1
 298 747 l 1,164,-1
 299 745 l 1,0,-1
14 796 m 1,165,-1
 25 841 l 1,166,-1
 39 856 l 1,167,-1
 44 876 l 1,168,-1
 70 902 l 1,169,-1
 76 921 l 1,170,-1
 103 947 l 1,171,-1
 109 962 l 1,172,-1
 122 975 l 1,173,-1
 141 985 l 1,174,-1
 144 999 l 1,175,-1
 163 1019 l 1,176,-1
 183 1017 l 1,177,-1
 203 1039 l 1,178,-1
 226 1048 l 1,179,-1
 264 1085 l 1,180,-1
 292 1089 l 1,181,-1
 315 1117 l 1,182,-1
 338 1121 l 1,183,-1
 352 1131 l 1,184,-1
 405 1155 l 1,185,-1
 440 1175 l 1,186,-1
 461 1177 l 1,187,-1
 485 1192 l 1,188,-1
 499 1194 l 1,189,-1
 528 1204 l 1,190,-1
 548 1206 l 1,191,-1
 584 1219 l 1,192,-1
 607 1224 l 1,193,-1
 626 1233 l 1,194,-1
 657 1234 l 1,195,-1
 679 1244 l 1,196,-1
 732 1249 l 1,197,-1
 793 1263 l 1,198,-1
 848 1261 l 1,199,-1
 874 1267 l 1,200,-1
 952 1255 l 1,201,-1
 1027 1244 l 1,202,-1
 1057 1229 l 1,203,-1
 1077 1227 l 1,204,-1
 1145 1185 l 1,205,-1
 1160 1181 l 1,206,-1
 1243 1109 l 1,207,-1
 1320 998 l 1,208,-1
 1345 919 l 1,209,-1
 1356 883 l 1,210,-1
 1355 839 l 1,211,-1
 1359 826 l 1,212,-1
 1353 779 l 1,213,-1
 1355 759 l 1,214,-1
 1341 696 l 1,215,-1
 1342 675 l 1,216,-1
 1326 657 l 1,217,-1
 1328 639 l 1,218,-1
 1314 618 l 1,219,-1
 1287 569 l 1,220,-1
 1278 563 l 1,221,-1
 1278 551 l 1,222,-1
 1259 534 l 1,223,-1
 1245 515 l 1,224,-1
 1223 489 l 1,225,-1
 1211 483 l 1,226,-1
 1202 462 l 1,227,-1
 1179 439 l 1,228,-1
 1105 379 l 1,229,-1
 1079 366 l 1,230,-1
 1063 345 l 1,231,-1
 1036 325 l 1,232,-1
 1017 310 l 1,233,-1
 1001 309 l 1,234,-1
 995 299 l 1,235,-1
 966 280 l 1,236,-1
 954 280 l 1,237,-1
 935 263 l 1,238,-1
 906 251 l 1,239,-1
 888 240 l 1,240,-1
 873 246 l 1,241,-1
 859 224 l 1,242,-1
 847 221 l 1,243,-1
 828 214 l 1,244,-1
 807 215 l 1,245,-1
 791 201 l 1,246,-1
 777 192 l 1,247,-1
 703 177 l 1,248,-1
 686 164 l 1,249,-1
 666 165 l 1,250,-1
 619 152 l 1,251,-1
 585 159 l 1,252,-1
 588 146 l 1,253,-1
 585 140 l 1,254,-1
 580 136 l 1,255,-1
 575 135 l 1,256,-1
 574 135 l 1,257,-1
 542 138 l 1,258,-1
 526 136 l 1,259,-1
 511 152 l 1,260,-1
 498 133 l 1,261,-1
 482 122 l 1,262,-1
 467 118 l 1,263,-1
 440 116 l 1,264,-1
 380 103 l 1,265,-1
 355 105 l 1,266,-1
 328 111 l 1,267,-1
 324 101 l 1,268,-1
 272 96 l 1,269,-1
 252 100 l 1,270,-1
 232 102 l 1,271,-1
 200 104 l 1,272,-1
 190 112 l 1,273,-1
 175 112 l 1,274,-1
 173 112 l 1,275,-1
 146 119 l 1,276,-1
 115 152 l 1,277,-1
 107 181 l 1,278,-1
 111 199 l 1,279,-1
 133 219 l 1,280,-1
 153 226 l 1,281,-1
 157 225 l 1,282,-1
 187 219 l 1,283,-1
 210 218 l 1,284,-1
 210 248 l 1,285,-1
 229 290 l 1,286,-1
 236 317 l 1,287,-1
 245 328 l 1,288,-1
 263 346 l 1,289,-1
 268 367 l 1,290,-1
 294 424 l 1,291,-1
 309 439 l 1,292,-1
 313 462 l 1,293,-1
 337 486 l 1,294,-1
 343 511 l 1,295,-1
 356 518 l 1,296,-1
 357 546 l 1,297,-1
 387 563 l 1,298,-1
 379 577 l 1,299,-1
 389 599 l 1,300,-1
 399 625 l 1,301,-1
 420 641 l 1,302,-1
 415 656 l 1,303,-1
 434 655 l 1,304,-1
 438 673 l 1,305,-1
 437 693 l 1,306,-1
 458 705 l 1,307,-1
 463 714 l 1,308,-1
 434 719 l 1,309,-1
 403 705 l 1,310,-1
 382 705 l 1,311,-1
 361 708 l 1,312,-1
 357 694 l 1,313,-1
 333 697 l 1,314,-1
 320 703 l 1,315,-1
 289 680 l 1,316,-1
 267 684 l 1,317,-1
 250 679 l 1,318,-1
 216 678 l 1,319,-1
 202 674 l 1,320,-1
 186 675 l 1,321,-1
 171 674 l 1,322,-1
 143 689 l 1,323,-1
 122 688 l 1,324,-1
 92 702 l 1,325,-1
 69 705 l 1,326,-1
 42 729 l 1,327,-1
 25 739 l 1,328,-1
 18 748 l 1,329,-1
 17 753 l 1,330,-1
 17 754 l 1,331,-1
 18 777 l 1,332,-1
 14 796 l 1,165,-1
EndSplineSet
EndChar

StartChar: E
Encoding: 69 69 41
Width: 1156
Flags: W
LayerCount: 2
Fore
SplineSet
147 202 m 1,0,-1
 137 212 l 1,1,-1
 146 244 l 1,2,-1
 137 254 l 1,3,-1
 137 258 l 1,4,-1
 138 266 l 1,5,-1
 142 275 l 1,6,-1
 143 288 l 1,7,-1
 163 311 l 1,8,-1
 152 322 l 1,9,-1
 161 344 l 1,10,-1
 171 377 l 1,11,-1
 191 393 l 1,12,-1
 191 424 l 1,13,-1
 193 434 l 1,14,-1
 195 437 l 1,15,-1
 222 462 l 1,16,-1
 285 548 l 1,17,-1
 321 571 l 1,18,-1
 331 589 l 1,19,-1
 354 607 l 1,20,-1
 389 644 l 1,21,-1
 402 655 l 1,22,-1
 417 661 l 1,23,-1
 442 665 l 1,24,-1
 454 688 l 1,25,-1
 471 699 l 1,26,-1
 488 711 l 1,27,-1
 525 727 l 1,28,-1
 553 746 l 1,29,-1
 591 766 l 1,30,-1
 608 782 l 1,31,-1
 629 785 l 1,32,-1
 660 796 l 1,33,-1
 665 811 l 1,34,-1
 653 802 l 1,35,-1
 617 797 l 1,36,-1
 600 785 l 1,37,-1
 591 784 l 1,38,-1
 579 785 l 1,39,-1
 557 786 l 1,40,-1
 542 795 l 1,41,-1
 497 818 l 1,42,-1
 492 822 l 1,43,-1
 489 827 l 1,44,-1
 486 851 l 1,45,-1
 487 863 l 1,46,-1
 492 905 l 1,47,-1
 494 925 l 1,48,-1
 513 952 l 1,49,-1
 541 1005 l 1,50,-1
 573 1040 l 1,51,-1
 586 1066 l 1,52,-1
 604 1078 l 1,53,-1
 623 1106 l 1,54,-1
 649 1120 l 1,55,-1
 651 1132 l 1,56,-1
 679 1153 l 1,57,-1
 697 1166 l 1,58,-1
 717 1193 l 1,59,-1
 736 1195 l 1,60,-1
 752 1208 l 1,61,-1
 765 1226 l 1,62,-1
 834 1272 l 1,63,-1
 855 1295 l 1,64,-1
 866 1298 l 1,65,-1
 884 1292 l 1,66,-1
 925 1331 l 1,67,-1
 934 1335 l 1,68,-1
 939 1336 l 1,69,-1
 960 1329 l 1,70,-1
 961 1341 l 1,71,-1
 982 1352 l 1,72,-1
 1001 1363 l 1,73,-1
 1028 1366 l 1,74,-1
 1047 1376 l 1,75,-1
 1074 1384 l 1,76,-1
 1093 1382 l 1,77,-1
 1103 1389 l 1,78,-1
 1120 1394 l 1,79,-1
 1130 1392 l 1,80,-1
 1153 1381 l 1,81,-1
 1176 1384 l 1,82,-1
 1205 1366 l 1,83,-1
 1226 1362 l 1,84,-1
 1240 1346 l 1,85,-1
 1259 1317 l 1,86,-1
 1261 1305 l 1,87,-1
 1265 1253 l 1,88,-1
 1265 1235 l 1,89,-1
 1265 1233 l 1,90,-1
 1253 1204 l 1,91,-1
 1252 1182 l 1,92,-1
 1236 1153 l 1,93,-1
 1226 1126 l 1,94,-1
 1210 1108 l 1,95,-1
 1204 1089 l 1,96,-1
 1198 1079 l 1,97,-1
 1191 1075 l 1,98,-1
 1176 1072 l 1,99,-1
 1165 1073 l 1,100,-1
 1146 1077 l 1,101,-1
 1133 1098 l 1,102,-1
 1122 1134 l 1,103,-1
 1124 1147 l 1,104,-1
 1141 1167 l 1,105,-1
 1169 1186 l 1,106,-1
 1190 1189 l 1,107,-1
 1190 1207 l 1,108,-1
 1205 1217 l 1,109,-1
 1210 1239 l 1,110,-1
 1213 1256 l 1,111,-1
 1202 1286 l 1,112,-1
 1193 1304 l 1,113,-1
 1185 1312 l 1,114,-1
 1180 1314 l 1,115,-1
 1177 1313 l 1,116,-1
 1162 1309 l 1,117,-1
 1132 1309 l 1,118,-1
 1108 1300 l 1,119,-1
 1085 1295 l 1,120,-1
 1049 1275 l 1,121,-1
 1016 1272 l 1,122,-1
 1007 1261 l 1,123,-1
 998 1257 l 1,124,-1
 971 1225 l 1,125,-1
 900 1186 l 1,126,-1
 858 1144 l 1,127,-1
 814 1109 l 1,128,-1
 783 1068 l 1,129,-1
 748 1033 l 1,130,-1
 722 986 l 1,131,-1
 707 968 l 1,132,-1
 689 958 l 1,133,-1
 658 887 l 1,134,-1
 643 870 l 1,135,-1
 641 857 l 1,136,-1
 664 864 l 1,137,-1
 685 877 l 1,138,-1
 761 904 l 1,139,-1
 861 958 l 1,140,-1
 887 965 l 1,141,-1
 970 994 l 1,142,-1
 1017 1003 l 1,143,-1
 1056 993 l 1,144,-1
 1073 977 l 1,145,-1
 1078 958 l 1,146,-1
 1077 949 l 1,147,-1
 1074 940 l 1,148,-1
 1060 920 l 1,149,-1
 1043 894 l 1,150,-1
 1004 861 l 1,151,-1
 993 851 l 1,152,-1
 983 845 l 1,153,-1
 977 844 l 1,154,-1
 962 845 l 1,155,-1
 909 833 l 1,156,-1
 881 827 l 1,157,-1
 819 789 l 1,158,-1
 805 787 l 1,159,-1
 771 757 l 1,160,-1
 741 747 l 1,161,-1
 700 717 l 1,162,-1
 679 713 l 1,163,-1
 662 683 l 1,164,-1
 643 672 l 1,165,-1
 632 681 l 1,166,-1
 625 666 l 1,167,-1
 597 630 l 1,168,-1
 566 620 l 1,169,-1
 563 600 l 1,170,-1
 560 591 l 1,171,-1
 557 588 l 1,172,-1
 530 585 l 1,173,-1
 530 564 l 1,174,-1
 501 548 l 1,175,-1
 492 539 l 1,176,-1
 489 539 l 1,177,-1
 474 547 l 1,178,-1
 477 526 l 1,179,-1
 453 486 l 1,180,-1
 438 479 l 1,181,-1
 422 448 l 1,182,-1
 412 446 l 1,183,-1
 398 423 l 1,184,-1
 398 407 l 1,185,-1
 394 395 l 1,186,-1
 387 387 l 1,187,-1
 375 378 l 1,188,-1
 364 362 l 1,189,-1
 359 341 l 1,190,-1
 351 324 l 1,191,-1
 342 271 l 1,192,-1
 331 247 l 1,193,-1
 329 237 l 1,194,-1
 340 192 l 1,195,-1
 347 170 l 1,196,-1
 361 165 l 1,197,-1
 373 151 l 1,198,-1
 393 151 l 1,199,-1
 401 157 l 1,200,-1
 421 151 l 1,201,-1
 439 153 l 1,202,-1
 455 150 l 1,203,-1
 477 159 l 1,204,-1
 487 152 l 1,205,-1
 507 164 l 1,206,-1
 527 167 l 1,207,-1
 543 184 l 1,208,-1
 562 181 l 1,209,-1
 579 193 l 1,210,-1
 694 245 l 1,211,-1
 710 264 l 1,212,-1
 755 296 l 1,213,-1
 804 335 l 1,214,-1
 831 347 l 1,215,-1
 851 361 l 1,216,-1
 866 369 l 1,217,-1
 888 400 l 1,218,-1
 922 406 l 1,219,-1
 944 434 l 1,220,-1
 969 447 l 1,221,-1
 973 463 l 1,222,-1
 995 472 l 1,223,-1
 1001 498 l 1,224,-1
 1020 507 l 1,225,-1
 1044 528 l 1,226,-1
 1075 547 l 1,227,-1
 1096 573 l 1,228,-1
 1117 586 l 1,229,-1
 1145 615 l 1,230,-1
 1184 643 l 1,231,-1
 1210 668 l 1,232,-1
 1226 680 l 1,233,-1
 1249 685 l 1,234,-1
 1247 664 l 1,235,-1
 1235 597 l 1,236,-1
 1231 592 l 1,237,-1
 1152 524 l 1,238,-1
 1132 499 l 1,239,-1
 1112 480 l 1,240,-1
 1099 464 l 1,241,-1
 1083 462 l 1,242,-1
 1070 444 l 1,243,-1
 1042 424 l 1,244,-1
 1023 402 l 1,245,-1
 1005 395 l 1,246,-1
 946 328 l 1,247,-1
 910 302 l 1,248,-1
 896 288 l 1,249,-1
 879 280 l 1,250,-1
 841 239 l 1,251,-1
 822 225 l 1,252,-1
 810 222 l 1,253,-1
 776 233 l 1,254,-1
 765 231 l 1,255,-1
 768 204 l 1,256,-1
 752 198 l 1,257,-1
 740 175 l 1,258,-1
 701 144 l 1,259,-1
 686 129 l 1,260,-1
 670 124 l 1,261,-1
 652 112 l 1,262,-1
 611 93 l 1,263,-1
 589 81 l 1,264,-1
 574 86 l 1,265,-1
 568 92 l 1,266,-1
 550 64 l 1,267,-1
 539 52 l 1,268,-1
 535 51 l 1,269,-1
 473 31 l 1,270,-1
 431 11 l 1,271,-1
 412 14 l 1,272,-1
 386 8 l 1,273,-1
 360 11 l 1,274,-1
 336 6 l 1,275,-1
 321 13 l 1,276,-1
 285 25 l 1,277,-1
 266 31 l 1,278,-1
 258 37 l 1,279,-1
 255 45 l 1,280,-1
 245 45 l 1,281,-1
 241 57 l 1,282,-1
 221 68 l 1,283,-1
 201 83 l 1,284,-1
 198 88 l 1,285,-1
 189 107 l 1,286,-1
 156 139 l 1,287,-1
 143 173 l 1,288,-1
 138 188 l 1,289,-1
 147 202 l 1,0,-1
EndSplineSet
EndChar

StartChar: F
Encoding: 70 70 42
Width: 1023
Flags: W
LayerCount: 2
Fore
SplineSet
324 625 m 1,0,-1
 341 638 l 1,1,-1
 363 647 l 1,2,-1
 373 657 l 1,3,-1
 409 668 l 1,4,-1
 428 682 l 1,5,-1
 467 695 l 1,6,-1
 500 714 l 1,7,-1
 542 728 l 1,8,-1
 561 736 l 1,9,-1
 586 737 l 1,10,-1
 602 753 l 1,11,-1
 630 754 l 1,12,-1
 650 765 l 1,13,-1
 667 767 l 1,14,-1
 689 784 l 1,15,-1
 710 786 l 1,16,-1
 719 789 l 1,17,-1
 723 793 l 1,18,-1
 741 818 l 1,19,-1
 777 838 l 1,20,-1
 779 851 l 1,21,-1
 801 874 l 1,22,-1
 825 909 l 1,23,-1
 846 926 l 1,24,-1
 863 945 l 1,25,-1
 879 950 l 1,26,-1
 883 974 l 1,27,-1
 914 1000 l 1,28,-1
 919 1021 l 1,29,-1
 935 1039 l 1,30,-1
 940 1054 l 1,31,-1
 956 1073 l 1,32,-1
 968 1091 l 1,33,-1
 1018 1134 l 1,34,-1
 1047 1171 l 1,35,-1
 1063 1175 l 1,36,-1
 1078 1199 l 1,37,-1
 1111 1231 l 1,38,-1
 1133 1260 l 1,39,-1
 1147 1279 l 1,40,-1
 1091 1288 l 1,41,-1
 1072 1283 l 1,42,-1
 1060 1284 l 1,43,-1
 1037 1273 l 1,44,-1
 1009 1274 l 1,45,-1
 918 1235 l 1,46,-1
 884 1231 l 1,47,-1
 840 1201 l 1,48,-1
 808 1202 l 1,49,-1
 795 1184 l 1,50,-1
 756 1158 l 1,51,-1
 752 1157 l 1,52,-1
 751 1157 l 1,53,-1
 728 1159 l 1,54,-1
 724 1160 l 1,55,-1
 659 1119 l 1,56,-1
 641 1106 l 1,57,-1
 634 1103 l 1,58,-1
 618 1104 l 1,59,-1
 597 1083 l 1,60,-1
 580 1070 l 1,61,-1
 569 1049 l 1,62,-1
 548 1046 l 1,63,-1
 538 1040 l 1,64,-1
 534 1034 l 1,65,-1
 529 1019 l 1,66,-1
 509 995 l 1,67,-1
 502 959 l 1,68,-1
 491 949 l 1,69,-1
 471 937 l 1,70,-1
 467 937 l 1,71,-1
 458 939 l 1,72,-1
 422 974 l 1,73,-1
 413 1002 l 1,74,-1
 415 1014 l 1,75,-1
 422 1038 l 1,76,-1
 433 1078 l 1,77,-1
 455 1103 l 1,78,-1
 480 1118 l 1,79,-1
 530 1134 l 1,80,-1
 571 1158 l 1,81,-1
 591 1163 l 1,82,-1
 597 1179 l 1,83,-1
 627 1192 l 1,84,-1
 642 1207 l 1,85,-1
 671 1221 l 1,86,-1
 695 1233 l 1,87,-1
 716 1233 l 1,88,-1
 735 1248 l 1,89,-1
 765 1268 l 1,90,-1
 849 1302 l 1,91,-1
 1022 1359 l 1,92,-1
 1150 1379 l 1,93,-1
 1197 1381 l 1,94,-1
 1239 1374 l 1,95,-1
 1277 1329 l 1,96,-1
 1296 1271 l 1,97,-1
 1295 1263 l 1,98,-1
 1291 1257 l 1,99,-1
 1257 1223 l 1,100,-1
 1238 1172 l 1,101,-1
 1184 1126 l 1,102,-1
 1166 1089 l 1,103,-1
 1145 1075 l 1,104,-1
 1124 1045 l 1,105,-1
 1115 1040 l 1,106,-1
 1095 1031 l 1,107,-1
 1093 1010 l 1,108,-1
 1059 990 l 1,109,-1
 1051 960 l 1,110,-1
 1030 946 l 1,111,-1
 1024 921 l 1,112,-1
 1015 901 l 1,113,-1
 1007 894 l 1,114,-1
 1000 891 l 1,115,-1
 979 891 l 1,116,-1
 970 859 l 1,117,-1
 944 843 l 1,118,-1
 942 837 l 1,119,-1
 965 842 l 1,120,-1
 1000 850 l 1,121,-1
 1023 857 l 1,122,-1
 1044 855 l 1,123,-1
 1064 866 l 1,124,-1
 1087 868 l 1,125,-1
 1124 881 l 1,126,-1
 1158 886 l 1,127,-1
 1189 893 l 1,128,-1
 1236 883 l 1,129,-1
 1259 861 l 1,130,-1
 1269 820 l 1,131,-1
 1267 791 l 1,132,-1
 1262 769 l 1,133,-1
 1242 755 l 1,134,-1
 1206 735 l 1,135,-1
 1186 732 l 1,136,-1
 1162 735 l 1,137,-1
 1139 741 l 1,138,-1
 1132 758 l 1,139,-1
 1110 760 l 1,140,-1
 1092 768 l 1,141,-1
 1075 769 l 1,142,-1
 1065 771 l 1,143,-1
 1035 760 l 1,144,-1
 1003 764 l 1,145,-1
 989 748 l 1,146,-1
 967 753 l 1,147,-1
 946 745 l 1,148,-1
 928 748 l 1,149,-1
 907 745 l 1,150,-1
 889 724 l 1,151,-1
 862 718 l 1,152,-1
 843 681 l 1,153,-1
 829 681 l 1,154,-1
 824 672 l 1,155,-1
 818 646 l 1,156,-1
 799 642 l 1,157,-1
 790 618 l 1,158,-1
 782 590 l 1,159,-1
 764 573 l 1,160,-1
 751 538 l 1,161,-1
 727 500 l 1,162,-1
 701 468 l 1,163,-1
 679 424 l 1,164,-1
 656 405 l 1,165,-1
 646 365 l 1,166,-1
 590 278 l 1,167,-1
 584 253 l 1,168,-1
 577 234 l 1,169,-1
 569 226 l 1,170,-1
 552 222 l 1,171,-1
 548 189 l 1,172,-1
 527 140 l 1,173,-1
 519 119 l 1,174,-1
 501 109 l 1,175,-1
 499 107 l 1,176,-1
 497 92 l 1,177,-1
 494 70 l 1,178,-1
 477 61 l 1,179,-1
 477 38 l 1,180,-1
 474 26 l 1,181,-1
 472 22 l 1,182,-1
 454 12 l 1,183,-1
 450 -15 l 1,184,-1
 432 -25 l 1,185,-1
 438 -58 l 1,186,-1
 422 -72 l 1,187,-1
 430 -94 l 1,188,-1
 420 -113 l 1,189,-1
 426 -133 l 1,190,-1
 428 -145 l 1,191,-1
 427 -151 l 1,192,-1
 423 -163 l 1,193,-1
 422 -167 l 1,194,-1
 424 -173 l 1,195,-1
 428 -177 l 1,196,-1
 434 -179 l 1,197,-1
 440 -178 l 1,198,-1
 453 -171 l 1,199,-1
 472 -160 l 1,200,-1
 483 -179 l 1,201,-1
 485 -204 l 1,202,-1
 477 -212 l 1,203,-1
 481 -234 l 1,204,-1
 476 -246 l 1,205,-1
 465 -255 l 1,206,-1
 420 -263 l 1,207,-1
 366 -255 l 1,208,-1
 336 -236 l 1,209,-1
 314 -216 l 1,210,-1
 308 -207 l 1,211,-1
 291 -162 l 1,212,-1
 277 -120 l 1,213,-1
 274 -100 l 1,214,-1
 276 -85 l 1,215,-1
 287 -44 l 1,216,-1
 296 6 l 1,217,-1
 307 32 l 1,218,-1
 328 99 l 1,219,-1
 342 118 l 1,220,-1
 370 152 l 1,221,-1
 393 168 l 1,222,-1
 380 171 l 1,223,-1
 377 175 l 1,224,-1
 376 179 l 1,225,-1
 376 182 l 1,226,-1
 384 198 l 1,227,-1
 397 226 l 1,228,-1
 418 240 l 1,229,-1
 416 253 l 1,230,-1
 430 272 l 1,231,-1
 425 288 l 1,232,-1
 444 305 l 1,233,-1
 463 350 l 1,234,-1
 485 370 l 1,235,-1
 488 406 l 1,236,-1
 510 441 l 1,237,-1
 536 480 l 1,238,-1
 565 537 l 1,239,-1
 633 648 l 1,240,-1
 644 672 l 1,241,-1
 618 667 l 1,242,-1
 546 631 l 1,243,-1
 522 636 l 1,244,-1
 490 605 l 1,245,-1
 460 602 l 1,246,-1
 425 590 l 1,247,-1
 395 573 l 1,248,-1
 375 575 l 1,249,-1
 357 558 l 1,250,-1
 346 555 l 1,251,-1
 330 540 l 1,252,-1
 311 533 l 1,253,-1
 297 519 l 1,254,-1
 269 519 l 1,255,-1
 254 501 l 1,256,-1
 203 465 l 1,257,-1
 177 422 l 1,258,-1
 163 410 l 1,259,-1
 147 387 l 1,260,-1
 142 384 l 1,261,-1
 136 383 l 1,262,-1
 126 386 l 1,263,-1
 106 409 l 1,264,-1
 96 442 l 1,265,-1
 101 466 l 1,266,-1
 112 494 l 1,267,-1
 139 540 l 1,268,-1
 160 552 l 1,269,-1
 218 573 l 1,270,-1
 282 617 l 1,271,-1
 303 616 l 1,272,-1
 324 625 l 1,0,-1
EndSplineSet
EndChar

StartChar: G
Encoding: 71 71 43
Width: 1031
Flags: W
LayerCount: 2
Fore
SplineSet
430 -432 m 1,0,-1
 444 -407 l 1,1,-1
 459 -406 l 1,2,-1
 465 -401 l 1,3,-1
 465 -367 l 1,4,-1
 476 -338 l 1,5,-1
 480 -318 l 1,6,-1
 495 -303 l 1,7,-1
 498 -286 l 1,8,-1
 512 -270 l 1,9,-1
 532 -211 l 1,10,-1
 552 -179 l 1,11,-1
 562 -163 l 1,12,-1
 581 -154 l 1,13,-1
 582 -138 l 1,14,-1
 588 -128 l 1,15,-1
 590 -108 l 1,16,-1
 594 -94 l 1,17,-1
 601 -85 l 1,18,-1
 625 -67 l 1,19,-1
 622 -42 l 1,20,-1
 655 25 l 1,21,-1
 660 58 l 1,22,-1
 675 69 l 1,23,-1
 690 87 l 1,24,-1
 685 113 l 1,25,-1
 681 110 l 1,26,-1
 677 95 l 1,27,-1
 655 83 l 1,28,-1
 633 67 l 1,29,-1
 619 43 l 1,30,-1
 592 31 l 1,31,-1
 586 2 l 1,32,-1
 580 -4 l 1,33,-1
 555 -11 l 1,34,-1
 543 -18 l 1,35,-1
 526 -53 l 1,36,-1
 517 -76 l 1,37,-1
 497 -80 l 1,38,-1
 486 -83 l 1,39,-1
 484 -85 l 1,40,-1
 477 -103 l 1,41,-1
 441 -153 l 1,42,-1
 426 -188 l 1,43,-1
 401 -223 l 1,44,-1
 385 -289 l 1,45,-1
 359 -323 l 1,46,-1
 355 -348 l 1,47,-1
 331 -413 l 1,48,-1
 332 -434 l 1,49,-1
 328 -456 l 1,50,-1
 331 -475 l 1,51,-1
 329 -531 l 1,52,-1
 339 -543 l 1,53,-1
 342 -543 l 1,54,-1
 358 -530 l 1,55,-1
 372 -517 l 1,56,-1
 411 -468 l 1,57,-1
 430 -432 l 1,0,-1
150 247 m 1,58,-1
 152 318 l 1,59,-1
 161 339 l 1,60,-1
 173 373 l 1,61,-1
 179 399 l 1,62,-1
 199 423 l 1,63,-1
 214 421 l 1,64,-1
 209 431 l 1,65,-1
 211 440 l 1,66,-1
 220 440 l 1,67,-1
 217 452 l 1,68,-1
 206 452 l 1,69,-1
 204 475 l 1,70,-1
 217 495 l 1,71,-1
 220 518 l 1,72,-1
 237 543 l 1,73,-1
 246 560 l 1,74,-1
 270 566 l 1,75,-1
 270 588 l 1,76,-1
 285 622 l 1,77,-1
 295 624 l 1,78,-1
 299 659 l 1,79,-1
 317 671 l 1,80,-1
 315 690 l 1,81,-1
 331 716 l 1,82,-1
 358 752 l 1,83,-1
 391 818 l 1,84,-1
 428 858 l 1,85,-1
 440 876 l 1,86,-1
 455 880 l 1,87,-1
 462 899 l 1,88,-1
 475 920 l 1,89,-1
 481 923 l 1,90,-1
 495 920 l 1,91,-1
 496 941 l 1,92,-1
 511 956 l 1,93,-1
 518 974 l 1,94,-1
 641 1091 l 1,95,-1
 667 1123 l 1,96,-1
 702 1135 l 1,97,-1
 718 1156 l 1,98,-1
 735 1163 l 1,99,-1
 759 1187 l 1,100,-1
 774 1191 l 1,101,-1
 798 1195 l 1,102,-1
 801 1217 l 1,103,-1
 825 1216 l 1,104,-1
 836 1235 l 1,105,-1
 861 1250 l 1,106,-1
 876 1261 l 1,107,-1
 909 1273 l 1,108,-1
 943 1294 l 1,109,-1
 959 1294 l 1,110,-1
 978 1311 l 1,111,-1
 994 1312 l 1,112,-1
 1014 1321 l 1,113,-1
 1036 1317 l 1,114,-1
 1061 1323 l 1,115,-1
 1077 1316 l 1,116,-1
 1109 1306 l 1,117,-1
 1128 1298 l 1,118,-1
 1136 1274 l 1,119,-1
 1150 1246 l 1,120,-1
 1156 1217 l 1,121,-1
 1163 1196 l 1,122,-1
 1153 1175 l 1,123,-1
 1151 1147 l 1,124,-1
 1116 1064 l 1,125,-1
 1106 1043 l 1,126,-1
 1091 1022 l 1,127,-1
 1066 1025 l 1,128,-1
 1041 1033 l 1,129,-1
 1034 1041 l 1,130,-1
 1026 1060 l 1,131,-1
 1040 1100 l 1,132,-1
 1091 1154 l 1,133,-1
 1105 1180 l 1,134,-1
 1113 1197 l 1,135,-1
 1114 1202 l 1,136,-1
 1111 1212 l 1,137,-1
 1104 1219 l 1,138,-1
 1093 1221 l 1,139,-1
 1085 1220 l 1,140,-1
 1076 1217 l 1,141,-1
 1058 1205 l 1,142,-1
 1035 1202 l 1,143,-1
 983 1182 l 1,144,-1
 939 1152 l 1,145,-1
 913 1145 l 1,146,-1
 866 1102 l 1,147,-1
 816 1058 l 1,148,-1
 800 1037 l 1,149,-1
 775 1035 l 1,150,-1
 764 1016 l 1,151,-1
 745 1002 l 1,152,-1
 701 952 l 1,153,-1
 671 937 l 1,154,-1
 661 919 l 1,155,-1
 636 898 l 1,156,-1
 608 846 l 1,157,-1
 585 826 l 1,158,-1
 570 805 l 1,159,-1
 550 781 l 1,160,-1
 542 760 l 1,161,-1
 520 748 l 1,162,-1
 508 726 l 1,163,-1
 482 695 l 1,164,-1
 463 669 l 1,165,-1
 431 645 l 1,166,-1
 434 613 l 1,167,-1
 414 582 l 1,168,-1
 369 514 l 1,169,-1
 359 469 l 1,170,-1
 339 436 l 1,171,-1
 329 406 l 1,172,-1
 313 384 l 1,173,-1
 288 316 l 1,174,-1
 278 293 l 1,175,-1
 278 292 l 1,176,-1
 281 270 l 1,177,-1
 273 248 l 1,178,-1
 271 228 l 1,179,-1
 266 193 l 1,180,-1
 286 160 l 1,181,-1
 318 171 l 1,182,-1
 337 186 l 1,183,-1
 365 200 l 1,184,-1
 402 238 l 1,185,-1
 428 251 l 1,186,-1
 442 265 l 1,187,-1
 467 268 l 1,188,-1
 481 298 l 1,189,-1
 490 312 l 1,190,-1
 493 314 l 1,191,-1
 523 323 l 1,192,-1
 531 353 l 1,193,-1
 664 501 l 1,194,-1
 682 536 l 1,195,-1
 712 543 l 1,196,-1
 719 563 l 1,197,-1
 740 598 l 1,198,-1
 757 612 l 1,199,-1
 769 633 l 1,200,-1
 783 643 l 1,201,-1
 847 740 l 1,202,-1
 883 779 l 1,203,-1
 898 816 l 1,204,-1
 934 865 l 1,205,-1
 959 905 l 1,206,-1
 981 922 l 1,207,-1
 1006 928 l 1,208,-1
 1021 925 l 1,209,-1
 1036 911 l 1,210,-1
 1064 857 l 1,211,-1
 1086 805 l 1,212,-1
 1086 804 l 1,213,-1
 1079 767 l 1,214,-1
 1072 720 l 1,215,-1
 1045 676 l 1,216,-1
 1037 645 l 1,217,-1
 1017 616 l 1,218,-1
 989 539 l 1,219,-1
 972 518 l 1,220,-1
 948 435 l 1,221,-1
 925 395 l 1,222,-1
 919 370 l 1,223,-1
 926 369 l 1,224,-1
 934 372 l 1,225,-1
 948 389 l 1,226,-1
 973 405 l 1,227,-1
 983 421 l 1,228,-1
 999 431 l 1,229,-1
 1012 439 l 1,230,-1
 1025 440 l 1,231,-1
 1049 458 l 1,232,-1
 1066 474 l 1,233,-1
 1129 504 l 1,234,-1
 1154 521 l 1,235,-1
 1173 538 l 1,236,-1
 1182 537 l 1,237,-1
 1207 545 l 1,238,-1
 1209 513 l 1,239,-1
 1183 496 l 1,240,-1
 1182 467 l 1,241,-1
 1175 446 l 1,242,-1
 1159 427 l 1,243,-1
 1143 418 l 1,244,-1
 1119 414 l 1,245,-1
 1105 389 l 1,246,-1
 1074 387 l 1,247,-1
 1058 373 l 1,248,-1
 1035 359 l 1,249,-1
 1022 347 l 1,250,-1
 1005 329 l 1,251,-1
 990 327 l 1,252,-1
 971 313 l 1,253,-1
 943 289 l 1,254,-1
 906 274 l 1,255,-1
 885 262 l 1,256,-1
 880 256 l 1,257,-1
 864 230 l 1,258,-1
 846 203 l 1,259,-1
 815 112 l 1,260,-1
 798 88 l 1,261,-1
 800 63 l 1,262,-1
 764 -1 l 1,263,-1
 740 -85 l 1,264,-1
 713 -122 l 1,265,-1
 701 -162 l 1,266,-1
 683 -182 l 1,267,-1
 653 -262 l 1,268,-1
 605 -335 l 1,269,-1
 597 -364 l 1,270,-1
 582 -392 l 1,271,-1
 556 -420 l 1,272,-1
 537 -455 l 1,273,-1
 496 -508 l 1,274,-1
 470 -555 l 1,275,-1
 449 -563 l 1,276,-1
 443 -590 l 1,277,-1
 424 -597 l 1,278,-1
 410 -620 l 1,279,-1
 405 -624 l 1,280,-1
 395 -627 l 1,281,-1
 367 -629 l 1,282,-1
 360 -644 l 1,283,-1
 357 -645 l 1,284,-1
 350 -646 l 1,285,-1
 304 -633 l 1,286,-1
 287 -624 l 1,287,-1
 284 -619 l 1,288,-1
 272 -582 l 1,289,-1
 260 -563 l 1,290,-1
 255 -539 l 1,291,-1
 246 -519 l 1,292,-1
 251 -502 l 1,293,-1
 247 -482 l 1,294,-1
 256 -446 l 1,295,-1
 255 -405 l 1,296,-1
 273 -362 l 1,297,-1
 283 -330 l 1,298,-1
 299 -303 l 1,299,-1
 335 -211 l 1,300,-1
 359 -178 l 1,301,-1
 379 -144 l 1,302,-1
 384 -122 l 1,303,-1
 419 -96 l 1,304,-1
 450 -38 l 1,305,-1
 476 -26 l 1,306,-1
 481 -12 l 1,307,-1
 481 6 l 1,308,-1
 496 21 l 1,309,-1
 534 63 l 1,310,-1
 544 78 l 1,311,-1
 605 130 l 1,312,-1
 646 178 l 1,313,-1
 683 213 l 1,314,-1
 723 251 l 1,315,-1
 735 255 l 1,316,-1
 743 278 l 1,317,-1
 748 300 l 1,318,-1
 767 336 l 1,319,-1
 771 357 l 1,320,-1
 794 392 l 1,321,-1
 796 418 l 1,322,-1
 813 444 l 1,323,-1
 825 475 l 1,324,-1
 836 496 l 1,325,-1
 840 518 l 1,326,-1
 861 552 l 1,327,-1
 872 584 l 1,328,-1
 873 599 l 1,329,-1
 858 582 l 1,330,-1
 843 562 l 1,331,-1
 802 534 l 1,332,-1
 743 465 l 1,333,-1
 722 460 l 1,334,-1
 710 452 l 1,335,-1
 703 442 l 1,336,-1
 702 438 l 1,337,-1
 705 418 l 1,338,-1
 705 417 l 1,339,-1
 704 413 l 1,340,-1
 702 410 l 1,341,-1
 698 407 l 1,342,-1
 680 402 l 1,343,-1
 680 384 l 1,344,-1
 677 374 l 1,345,-1
 671 368 l 1,346,-1
 647 355 l 1,347,-1
 635 334 l 1,348,-1
 614 321 l 1,349,-1
 607 301 l 1,350,-1
 598 285 l 1,351,-1
 592 279 l 1,352,-1
 573 270 l 1,353,-1
 546 235 l 1,354,-1
 521 225 l 1,355,-1
 513 198 l 1,356,-1
 496 193 l 1,357,-1
 488 176 l 1,358,-1
 450 141 l 1,359,-1
 426 111 l 1,360,-1
 403 106 l 1,361,-1
 372 94 l 1,362,-1
 353 88 l 1,363,-1
 325 88 l 1,364,-1
 302 89 l 1,365,-1
 278 108 l 1,366,-1
 244 112 l 1,367,-1
 221 130 l 1,368,-1
 198 143 l 1,369,-1
 173 176 l 1,370,-1
 154 201 l 1,371,-1
 152 205 l 1,372,-1
 150 238 l 1,373,-1
 150 247 l 1,58,-1
EndSplineSet
EndChar

StartChar: H
Encoding: 72 72 44
Width: 1438
Flags: W
LayerCount: 2
Fore
SplineSet
727 705 m 1,0,-1
 685 631 l 1,1,-1
 710 630 l 1,2,-1
 785 609 l 1,3,-1
 799 611 l 1,4,-1
 833 601 l 1,5,-1
 856 594 l 1,6,-1
 869 584 l 1,7,-1
 909 575 l 1,8,-1
 952 546 l 1,9,-1
 981 526 l 1,10,-1
 992 515 l 1,11,-1
 1007 485 l 1,12,-1
 1031 416 l 1,13,-1
 1043 397 l 1,14,-1
 1050 419 l 1,15,-1
 1093 517 l 1,16,-1
 1101 532 l 1,17,-1
 1118 545 l 1,18,-1
 1117 560 l 1,19,-1
 1131 579 l 1,20,-1
 1140 594 l 1,21,-1
 1149 621 l 1,22,-1
 1171 648 l 1,23,-1
 1198 706 l 1,24,-1
 1216 719 l 1,25,-1
 1219 740 l 1,26,-1
 1236 772 l 1,27,-1
 1214 777 l 1,28,-1
 1186 769 l 1,29,-1
 1159 773 l 1,30,-1
 1130 760 l 1,31,-1
 1120 768 l 1,32,-1
 1117 769 l 1,33,-1
 1109 768 l 1,34,-1
 1060 757 l 1,35,-1
 1019 755 l 1,36,-1
 998 750 l 1,37,-1
 978 753 l 1,38,-1
 954 751 l 1,39,-1
 933 759 l 1,40,-1
 909 741 l 1,41,-1
 898 736 l 1,42,-1
 890 735 l 1,43,-1
 865 739 l 1,44,-1
 852 744 l 1,45,-1
 848 756 l 1,46,-1
 840 756 l 1,47,-1
 834 737 l 1,48,-1
 828 730 l 1,49,-1
 821 727 l 1,50,-1
 788 721 l 1,51,-1
 763 710 l 1,52,-1
 749 707 l 1,53,-1
 727 705 l 1,0,-1
848 1347 m 1,54,-1
 869 1353 l 1,55,-1
 892 1348 l 1,56,-1
 954 1319 l 1,57,-1
 983 1282 l 1,58,-1
 994 1238 l 1,59,-1
 992 1220 l 1,60,-1
 988 1199 l 1,61,-1
 988 1180 l 1,62,-1
 977 1157 l 1,63,-1
 971 1128 l 1,64,-1
 937 1065 l 1,65,-1
 922 1028 l 1,66,-1
 859 935 l 1,67,-1
 851 913 l 1,68,-1
 836 909 l 1,69,-1
 836 886 l 1,70,-1
 825 865 l 1,71,-1
 809 833 l 1,72,-1
 796 800 l 1,73,-1
 821 797 l 1,74,-1
 873 817 l 1,75,-1
 950 832 l 1,76,-1
 965 834 l 1,77,-1
 988 832 l 1,78,-1
 1019 848 l 1,79,-1
 1021 848 l 1,80,-1
 1042 847 l 1,81,-1
 1093 856 l 1,82,-1
 1120 867 l 1,83,-1
 1233 880 l 1,84,-1
 1292 892 l 1,85,-1
 1314 896 l 1,86,-1
 1324 915 l 1,87,-1
 1329 935 l 1,88,-1
 1351 955 l 1,89,-1
 1360 977 l 1,90,-1
 1374 997 l 1,91,-1
 1385 1028 l 1,92,-1
 1406 1065 l 1,93,-1
 1416 1093 l 1,94,-1
 1428 1110 l 1,95,-1
 1442 1126 l 1,96,-1
 1443 1146 l 1,97,-1
 1463 1164 l 1,98,-1
 1463 1195 l 1,99,-1
 1468 1208 l 1,100,-1
 1483 1211 l 1,101,-1
 1488 1215 l 1,102,-1
 1491 1221 l 1,103,-1
 1492 1256 l 1,104,-1
 1506 1282 l 1,105,-1
 1527 1357 l 1,106,-1
 1533 1406 l 1,107,-1
 1538 1417 l 1,108,-1
 1556 1433 l 1,109,-1
 1591 1442 l 1,110,-1
 1614 1436 l 1,111,-1
 1646 1403 l 1,112,-1
 1654 1391 l 1,113,-1
 1661 1358 l 1,114,-1
 1633 1251 l 1,115,-1
 1606 1202 l 1,116,-1
 1594 1180 l 1,117,-1
 1579 1180 l 1,118,-1
 1580 1152 l 1,119,-1
 1568 1141 l 1,120,-1
 1569 1126 l 1,121,-1
 1566 1113 l 1,122,-1
 1555 1097 l 1,123,-1
 1538 1080 l 1,124,-1
 1536 1059 l 1,125,-1
 1517 1023 l 1,126,-1
 1511 999 l 1,127,-1
 1481 947 l 1,128,-1
 1474 916 l 1,129,-1
 1535 913 l 1,130,-1
 1572 914 l 1,131,-1
 1576 914 l 1,132,-1
 1608 908 l 1,133,-1
 1631 906 l 1,134,-1
 1635 894 l 1,135,-1
 1656 890 l 1,136,-1
 1665 880 l 1,137,-1
 1669 860 l 1,138,-1
 1662 832 l 1,139,-1
 1657 826 l 1,140,-1
 1629 806 l 1,141,-1
 1610 793 l 1,142,-1
 1602 789 l 1,143,-1
 1593 787 l 1,144,-1
 1584 790 l 1,145,-1
 1559 801 l 1,146,-1
 1526 799 l 1,147,-1
 1504 807 l 1,148,-1
 1485 804 l 1,149,-1
 1437 806 l 1,150,-1
 1417 797 l 1,151,-1
 1399 797 l 1,152,-1
 1383 762 l 1,153,-1
 1341 684 l 1,154,-1
 1329 651 l 1,155,-1
 1316 638 l 1,156,-1
 1305 606 l 1,157,-1
 1287 600 l 1,158,-1
 1283 575 l 1,159,-1
 1277 543 l 1,160,-1
 1255 529 l 1,161,-1
 1249 522 l 1,162,-1
 1241 493 l 1,163,-1
 1236 467 l 1,164,-1
 1224 443 l 1,165,-1
 1214 417 l 1,166,-1
 1204 406 l 1,167,-1
 1186 376 l 1,168,-1
 1173 363 l 1,169,-1
 1158 349 l 1,170,-1
 1164 327 l 1,171,-1
 1164 322 l 1,172,-1
 1163 313 l 1,173,-1
 1161 309 l 1,174,-1
 1143 296 l 1,175,-1
 1142 272 l 1,176,-1
 1122 263 l 1,177,-1
 1127 243 l 1,178,-1
 1127 240 l 1,179,-1
 1126 233 l 1,180,-1
 1124 229 l 1,181,-1
 1103 215 l 1,182,-1
 1113 191 l 1,183,-1
 1105 147 l 1,184,-1
 1121 125 l 1,185,-1
 1121 103 l 1,186,-1
 1134 90 l 1,187,-1
 1136 87 l 1,188,-1
 1127 65 l 1,189,-1
 1118 49 l 1,190,-1
 1104 41 l 1,191,-1
 1070 34 l 1,192,-1
 1038 40 l 1,193,-1
 999 62 l 1,194,-1
 990 82 l 1,195,-1
 971 107 l 1,196,-1
 969 110 l 1,197,-1
 962 168 l 1,198,-1
 964 201 l 1,199,-1
 968 235 l 1,200,-1
 968 237 l 1,201,-1
 966 275 l 1,202,-1
 974 300 l 1,203,-1
 965 347 l 1,204,-1
 957 399 l 1,205,-1
 939 431 l 1,206,-1
 937 443 l 1,207,-1
 938 450 l 1,208,-1
 949 468 l 1,209,-1
 927 475 l 1,210,-1
 917 480 l 1,211,-1
 913 484 l 1,212,-1
 894 514 l 1,213,-1
 856 528 l 1,214,-1
 830 547 l 1,215,-1
 773 571 l 1,216,-1
 764 585 l 1,217,-1
 736 591 l 1,218,-1
 717 605 l 1,219,-1
 688 604 l 1,220,-1
 661 596 l 1,221,-1
 617 517 l 1,222,-1
 605 495 l 1,223,-1
 592 495 l 1,224,-1
 587 453 l 1,225,-1
 561 429 l 1,226,-1
 561 408 l 1,227,-1
 552 393 l 1,228,-1
 544 366 l 1,229,-1
 511 331 l 1,230,-1
 510 310 l 1,231,-1
 489 247 l 1,232,-1
 478 219 l 1,233,-1
 458 202 l 1,234,-1
 462 169 l 1,235,-1
 459 163 l 1,236,-1
 453 159 l 1,237,-1
 430 153 l 1,238,-1
 437 123 l 1,239,-1
 418 103 l 1,240,-1
 425 66 l 1,241,-1
 404 39 l 1,242,-1
 406 -3 l 1,243,-1
 400 -17 l 1,244,-1
 387 -29 l 1,245,-1
 376 -33 l 1,246,-1
 365 -30 l 1,247,-1
 350 -18 l 1,248,-1
 304 34 l 1,249,-1
 294 49 l 1,250,-1
 277 106 l 1,251,-1
 281 147 l 1,252,-1
 289 198 l 1,253,-1
 309 238 l 1,254,-1
 321 268 l 1,255,-1
 346 308 l 1,256,-1
 381 394 l 1,257,-1
 406 429 l 1,258,-1
 411 455 l 1,259,-1
 437 487 l 1,260,-1
 456 528 l 1,261,-1
 491 589 l 1,262,-1
 504 606 l 1,263,-1
 495 624 l 1,264,-1
 472 620 l 1,265,-1
 436 614 l 1,266,-1
 400 608 l 1,267,-1
 394 609 l 1,268,-1
 361 622 l 1,269,-1
 368 642 l 1,270,-1
 374 653 l 1,271,-1
 378 656 l 1,272,-1
 420 683 l 1,273,-1
 434 693 l 1,274,-1
 491 712 l 1,275,-1
 522 734 l 1,276,-1
 551 738 l 1,277,-1
 564 745 l 1,278,-1
 574 744 l 1,279,-1
 587 760 l 1,280,-1
 609 789 l 1,281,-1
 611 794 l 1,282,-1
 616 817 l 1,283,-1
 651 858 l 1,284,-1
 658 888 l 1,285,-1
 677 909 l 1,286,-1
 703 961 l 1,287,-1
 719 979 l 1,288,-1
 739 1018 l 1,289,-1
 792 1100 l 1,290,-1
 804 1129 l 1,291,-1
 821 1154 l 1,292,-1
 836 1192 l 1,293,-1
 859 1236 l 1,294,-1
 858 1267 l 1,295,-1
 832 1264 l 1,296,-1
 775 1255 l 1,297,-1
 755 1254 l 1,298,-1
 729 1243 l 1,299,-1
 709 1239 l 1,300,-1
 663 1216 l 1,301,-1
 628 1213 l 1,302,-1
 607 1197 l 1,303,-1
 574 1187 l 1,304,-1
 565 1171 l 1,305,-1
 536 1169 l 1,306,-1
 514 1143 l 1,307,-1
 471 1120 l 1,308,-1
 457 1106 l 1,309,-1
 437 1101 l 1,310,-1
 421 1080 l 1,311,-1
 396 1051 l 1,312,-1
 370 1010 l 1,313,-1
 350 989 l 1,314,-1
 327 982 l 1,315,-1
 314 961 l 1,316,-1
 285 962 l 1,317,-1
 261 975 l 1,318,-1
 239 1002 l 1,319,-1
 232 1031 l 1,320,-1
 235 1051 l 1,321,-1
 251 1078 l 1,322,-1
 263 1088 l 1,323,-1
 347 1134 l 1,324,-1
 392 1160 l 1,325,-1
 417 1165 l 1,326,-1
 613 1278 l 1,327,-1
 640 1281 l 1,328,-1
 700 1312 l 1,329,-1
 724 1315 l 1,330,-1
 796 1340 l 1,331,-1
 848 1347 l 1,54,-1
EndSplineSet
EndChar

StartChar: I
Encoding: 73 73 45
Width: 715
Flags: W
LayerCount: 2
Fore
SplineSet
503 1369 m 1,0,-1
 535 1376 l 1,1,-1
 555 1396 l 1,2,-1
 577 1394 l 1,3,-1
 583 1410 l 1,4,-1
 602 1413 l 1,5,-1
 681 1426 l 1,6,-1
 687 1427 l 1,7,-1
 724 1422 l 1,8,-1
 768 1413 l 1,9,-1
 789 1406 l 1,10,-1
 807 1389 l 1,11,-1
 822 1384 l 1,12,-1
 831 1371 l 1,13,-1
 879 1321 l 1,14,-1
 903 1285 l 1,15,-1
 911 1245 l 1,16,-1
 911 1244 l 1,17,-1
 909 1222 l 1,18,-1
 920 1216 l 1,19,-1
 915 1195 l 1,20,-1
 912 1130 l 1,21,-1
 902 1098 l 1,22,-1
 902 1081 l 1,23,-1
 889 1055 l 1,24,-1
 890 1028 l 1,25,-1
 874 1006 l 1,26,-1
 857 951 l 1,27,-1
 816 885 l 1,28,-1
 766 763 l 1,29,-1
 745 744 l 1,30,-1
 734 724 l 1,31,-1
 726 689 l 1,32,-1
 717 678 l 1,33,-1
 703 670 l 1,34,-1
 680 651 l 1,35,-1
 678 620 l 1,36,-1
 656 591 l 1,37,-1
 621 516 l 1,38,-1
 611 505 l 1,39,-1
 593 502 l 1,40,-1
 591 480 l 1,41,-1
 588 468 l 1,42,-1
 587 466 l 1,43,-1
 548 420 l 1,44,-1
 531 371 l 1,45,-1
 503 330 l 1,46,-1
 503 316 l 1,47,-1
 491 295 l 1,48,-1
 474 298 l 1,49,-1
 476 269 l 1,50,-1
 473 247 l 1,51,-1
 448 199 l 1,52,-1
 443 171 l 1,53,-1
 427 152 l 1,54,-1
 421 137 l 1,55,-1
 415 128 l 1,56,-1
 412 124 l 1,57,-1
 398 118 l 1,58,-1
 404 109 l 1,59,-1
 398 88 l 1,60,-1
 401 38 l 1,61,-1
 393 19 l 1,62,-1
 423 -26 l 1,63,-1
 424 -37 l 1,64,-1
 418 -61 l 1,65,-1
 401 -78 l 1,66,-1
 363 -88 l 1,67,-1
 319 -78 l 1,68,-1
 301 -68 l 1,69,-1
 278 -44 l 1,70,-1
 245 -7 l 1,71,-1
 237 6 l 1,72,-1
 226 57 l 1,73,-1
 226 79 l 1,74,-1
 236 90 l 1,75,-1
 236 101 l 1,76,-1
 244 141 l 1,77,-1
 250 167 l 1,78,-1
 281 223 l 1,79,-1
 306 280 l 1,80,-1
 319 296 l 1,81,-1
 330 332 l 1,82,-1
 359 381 l 1,83,-1
 367 402 l 1,84,-1
 384 408 l 1,85,-1
 384 431 l 1,86,-1
 410 471 l 1,87,-1
 426 506 l 1,88,-1
 438 517 l 1,89,-1
 452 549 l 1,90,-1
 484 563 l 1,91,-1
 478 587 l 1,92,-1
 490 615 l 1,93,-1
 499 638 l 1,94,-1
 535 686 l 1,95,-1
 546 713 l 1,96,-1
 558 722 l 1,97,-1
 566 746 l 1,98,-1
 581 774 l 1,99,-1
 608 809 l 1,100,-1
 616 834 l 1,101,-1
 630 854 l 1,102,-1
 646 855 l 1,103,-1
 646 879 l 1,104,-1
 652 900 l 1,105,-1
 668 920 l 1,106,-1
 686 935 l 1,107,-1
 680 953 l 1,108,-1
 700 970 l 1,109,-1
 714 990 l 1,110,-1
 716 1020 l 1,111,-1
 750 1074 l 1,112,-1
 755 1103 l 1,113,-1
 773 1131 l 1,114,-1
 779 1144 l 1,115,-1
 780 1152 l 1,116,-1
 780 1153 l 1,117,-1
 778 1184 l 1,118,-1
 789 1195 l 1,119,-1
 795 1205 l 1,120,-1
 797 1217 l 1,121,-1
 795 1229 l 1,122,-1
 791 1242 l 1,123,-1
 786 1267 l 1,124,-1
 772 1285 l 1,125,-1
 742 1299 l 1,126,-1
 721 1313 l 1,127,-1
 688 1315 l 1,128,-1
 668 1315 l 1,129,-1
 646 1316 l 1,130,-1
 642 1312 l 1,131,-1
 618 1314 l 1,132,-1
 562 1294 l 1,133,-1
 528 1287 l 1,134,-1
 507 1281 l 1,135,-1
 504 1278 l 1,136,-1
 488 1258 l 1,137,-1
 483 1254 l 1,138,-1
 479 1253 l 1,139,-1
 478 1254 l 1,140,-1
 467 1259 l 1,141,-1
 457 1252 l 1,142,-1
 452 1229 l 1,143,-1
 410 1200 l 1,144,-1
 373 1164 l 1,145,-1
 359 1153 l 1,146,-1
 338 1129 l 1,147,-1
 305 1092 l 1,148,-1
 287 1060 l 1,149,-1
 269 1044 l 1,150,-1
 257 1027 l 1,151,-1
 253 1017 l 1,152,-1
 248 977 l 1,153,-1
 228 954 l 1,154,-1
 237 922 l 1,155,-1
 238 916 l 1,156,-1
 236 903 l 1,157,-1
 226 880 l 1,158,-1
 251 855 l 1,159,-1
 257 834 l 1,160,-1
 247 803 l 1,161,-1
 218 773 l 1,162,-1
 188 765 l 1,163,-1
 159 773 l 1,164,-1
 143 787 l 1,165,-1
 137 819 l 1,166,-1
 137 839 l 1,167,-1
 140 877 l 1,168,-1
 146 899 l 1,169,-1
 150 933 l 1,170,-1
 182 997 l 1,171,-1
 194 1030 l 1,172,-1
 217 1066 l 1,173,-1
 230 1090 l 1,174,-1
 249 1108 l 1,175,-1
 263 1144 l 1,176,-1
 289 1171 l 1,177,-1
 297 1191 l 1,178,-1
 329 1213 l 1,179,-1
 334 1227 l 1,180,-1
 338 1235 l 1,181,-1
 344 1241 l 1,182,-1
 388 1273 l 1,183,-1
 408 1301 l 1,184,-1
 446 1324 l 1,185,-1
 460 1341 l 1,186,-1
 480 1349 l 1,187,-1
 503 1369 l 1,0,-1
EndSplineSet
EndChar

StartChar: J
Encoding: 74 74 46
Width: 692
Flags: W
LayerCount: 2
Fore
SplineSet
37 -371 m 1,0,-1
 45 -409 l 1,1,-1
 62 -397 l 1,2,-1
 76 -377 l 1,3,-1
 105 -347 l 1,4,-1
 127 -297 l 1,5,-1
 155 -276 l 1,6,-1
 157 -255 l 1,7,-1
 166 -229 l 1,8,-1
 207 -177 l 1,9,-1
 216 -147 l 1,10,-1
 234 -124 l 1,11,-1
 251 -87 l 1,12,-1
 264 -72 l 1,13,-1
 268 -44 l 1,14,-1
 308 26 l 1,15,-1
 338 93 l 1,16,-1
 352 117 l 1,17,-1
 388 165 l 1,18,-1
 396 178 l 1,19,-1
 409 200 l 1,20,-1
 403 201 l 1,21,-1
 380 189 l 1,22,-1
 361 181 l 1,23,-1
 334 151 l 1,24,-1
 311 140 l 1,25,-1
 300 114 l 1,26,-1
 256 75 l 1,27,-1
 251 59 l 1,28,-1
 230 34 l 1,29,-1
 213 10 l 1,30,-1
 197 5 l 1,31,-1
 188 -24 l 1,32,-1
 172 -34 l 1,33,-1
 159 -75 l 1,34,-1
 138 -79 l 1,35,-1
 131 -110 l 1,36,-1
 114 -116 l 1,37,-1
 108 -136 l 1,38,-1
 94 -155 l 1,39,-1
 89 -187 l 1,40,-1
 75 -203 l 1,41,-1
 69 -230 l 1,42,-1
 56 -252 l 1,43,-1
 50 -295 l 1,44,-1
 30 -312 l 1,45,-1
 29 -347 l 1,46,-1
 29 -354 l 1,47,-1
 37 -371 l 1,0,-1
164 86 m 1,48,-1
 197 100 l 1,49,-1
 214 133 l 1,50,-1
 237 146 l 1,51,-1
 263 173 l 1,52,-1
 285 184 l 1,53,-1
 324 223 l 1,54,-1
 338 229 l 1,55,-1
 400 273 l 1,56,-1
 433 294 l 1,57,-1
 443 315 l 1,58,-1
 463 351 l 1,59,-1
 469 375 l 1,60,-1
 482 393 l 1,61,-1
 495 410 l 1,62,-1
 490 427 l 1,63,-1
 501 446 l 1,64,-1
 508 468 l 1,65,-1
 527 495 l 1,66,-1
 535 537 l 1,67,-1
 551 562 l 1,68,-1
 565 580 l 1,69,-1
 562 605 l 1,70,-1
 584 641 l 1,71,-1
 594 678 l 1,72,-1
 603 697 l 1,73,-1
 621 692 l 1,74,-1
 633 679 l 1,75,-1
 634 693 l 1,76,-1
 618 707 l 1,77,-1
 614 714 l 1,78,-1
 613 722 l 1,79,-1
 614 731 l 1,80,-1
 617 739 l 1,81,-1
 626 753 l 1,82,-1
 630 773 l 1,83,-1
 644 790 l 1,84,-1
 646 813 l 1,85,-1
 650 833 l 1,86,-1
 665 854 l 1,87,-1
 676 873 l 1,88,-1
 691 885 l 1,89,-1
 676 905 l 1,90,-1
 699 926 l 1,91,-1
 694 946 l 1,92,-1
 694 948 l 1,93,-1
 695 957 l 1,94,-1
 698 961 l 1,95,-1
 729 977 l 1,96,-1
 719 1001 l 1,97,-1
 730 1031 l 1,98,-1
 748 1029 l 1,99,-1
 747 1034 l 1,100,-1
 737 1046 l 1,101,-1
 735 1056 l 1,102,-1
 743 1078 l 1,103,-1
 745 1098 l 1,104,-1
 764 1112 l 1,105,-1
 768 1133 l 1,106,-1
 770 1154 l 1,107,-1
 778 1164 l 1,108,-1
 774 1186 l 1,109,-1
 784 1217 l 1,110,-1
 781 1242 l 1,111,-1
 771 1291 l 1,112,-1
 748 1312 l 1,113,-1
 723 1323 l 1,114,-1
 699 1327 l 1,115,-1
 687 1326 l 1,116,-1
 675 1320 l 1,117,-1
 657 1312 l 1,118,-1
 638 1315 l 1,119,-1
 626 1299 l 1,120,-1
 608 1302 l 1,121,-1
 592 1278 l 1,122,-1
 557 1255 l 1,123,-1
 496 1208 l 1,124,-1
 481 1198 l 1,125,-1
 464 1170 l 1,126,-1
 440 1159 l 1,127,-1
 433 1140 l 1,128,-1
 407 1114 l 1,129,-1
 357 1035 l 1,130,-1
 312 972 l 1,131,-1
 294 923 l 1,132,-1
 280 908 l 1,133,-1
 283 889 l 1,134,-1
 260 874 l 1,135,-1
 260 837 l 1,136,-1
 247 805 l 1,137,-1
 246 770 l 1,138,-1
 237 746 l 1,139,-1
 235 712 l 1,140,-1
 226 673 l 1,141,-1
 240 640 l 1,142,-1
 234 555 l 1,143,-1
 262 505 l 1,144,-1
 263 480 l 1,145,-1
 282 459 l 1,146,-1
 300 421 l 1,147,-1
 332 405 l 1,148,-1
 351 380 l 1,149,-1
 368 317 l 1,150,-1
 367 307 l 1,151,-1
 357 287 l 1,152,-1
 337 287 l 1,153,-1
 314 292 l 1,154,-1
 296 317 l 1,155,-1
 273 355 l 1,156,-1
 258 401 l 1,157,-1
 223 464 l 1,158,-1
 213 497 l 1,159,-1
 199 516 l 1,160,-1
 196 561 l 1,161,-1
 184 588 l 1,162,-1
 180 624 l 1,163,-1
 167 644 l 1,164,-1
 162 726 l 1,165,-1
 156 782 l 1,166,-1
 160 805 l 1,167,-1
 160 847 l 1,168,-1
 177 946 l 1,169,-1
 185 970 l 1,170,-1
 217 1058 l 1,171,-1
 260 1126 l 1,172,-1
 272 1150 l 1,173,-1
 290 1163 l 1,174,-1
 309 1196 l 1,175,-1
 325 1203 l 1,176,-1
 347 1231 l 1,177,-1
 369 1236 l 1,178,-1
 381 1264 l 1,179,-1
 429 1290 l 1,180,-1
 453 1314 l 1,181,-1
 475 1316 l 1,182,-1
 490 1328 l 1,183,-1
 511 1335 l 1,184,-1
 534 1345 l 1,185,-1
 560 1351 l 1,186,-1
 585 1359 l 1,187,-1
 595 1346 l 1,188,-1
 602 1346 l 1,189,-1
 608 1359 l 1,190,-1
 621 1366 l 1,191,-1
 628 1374 l 1,192,-1
 652 1372 l 1,193,-1
 739 1379 l 1,194,-1
 791 1369 l 1,195,-1
 811 1364 l 1,196,-1
 838 1336 l 1,197,-1
 887 1289 l 1,198,-1
 891 1283 l 1,199,-1
 895 1262 l 1,200,-1
 897 1231 l 1,201,-1
 902 1210 l 1,202,-1
 905 1189 l 1,203,-1
 902 1172 l 1,204,-1
 896 1154 l 1,205,-1
 886 1036 l 1,206,-1
 859 948 l 1,207,-1
 839 891 l 1,208,-1
 813 877 l 1,209,-1
 821 855 l 1,210,-1
 819 845 l 1,211,-1
 817 822 l 1,212,-1
 805 794 l 1,213,-1
 799 766 l 1,214,-1
 790 753 l 1,215,-1
 773 741 l 1,216,-1
 781 725 l 1,217,-1
 770 675 l 1,218,-1
 753 663 l 1,219,-1
 751 642 l 1,220,-1
 747 625 l 1,221,-1
 730 605 l 1,222,-1
 714 591 l 1,223,-1
 715 567 l 1,224,-1
 704 537 l 1,225,-1
 698 512 l 1,226,-1
 682 491 l 1,227,-1
 670 456 l 1,228,-1
 656 436 l 1,229,-1
 647 412 l 1,230,-1
 665 419 l 1,231,-1
 684 442 l 1,232,-1
 727 464 l 1,233,-1
 756 491 l 1,234,-1
 781 501 l 1,235,-1
 834 547 l 1,236,-1
 883 577 l 1,237,-1
 903 591 l 1,238,-1
 917 595 l 1,239,-1
 929 591 l 1,240,-1
 936 585 l 1,241,-1
 938 577 l 1,242,-1
 938 576 l 1,243,-1
 929 547 l 1,244,-1
 925 524 l 1,245,-1
 917 503 l 1,246,-1
 900 495 l 1,247,-1
 886 481 l 1,248,-1
 862 483 l 1,249,-1
 851 462 l 1,250,-1
 841 450 l 1,251,-1
 837 448 l 1,252,-1
 788 432 l 1,253,-1
 768 405 l 1,254,-1
 749 398 l 1,255,-1
 716 379 l 1,256,-1
 684 363 l 1,257,-1
 660 342 l 1,258,-1
 629 334 l 1,259,-1
 606 316 l 1,260,-1
 592 302 l 1,261,-1
 587 283 l 1,262,-1
 579 264 l 1,263,-1
 566 253 l 1,264,-1
 565 229 l 1,265,-1
 548 210 l 1,266,-1
 550 182 l 1,267,-1
 516 129 l 1,268,-1
 513 102 l 1,269,-1
 495 90 l 1,270,-1
 487 70 l 1,271,-1
 466 22 l 1,272,-1
 449 -1 l 1,273,-1
 408 -85 l 1,274,-1
 354 -174 l 1,275,-1
 336 -212 l 1,276,-1
 326 -227 l 1,277,-1
 317 -247 l 1,278,-1
 302 -256 l 1,279,-1
 293 -270 l 1,280,-1
 279 -281 l 1,281,-1
 280 -300 l 1,282,-1
 278 -305 l 1,283,-1
 275 -309 l 1,284,-1
 254 -320 l 1,285,-1
 247 -340 l 1,286,-1
 231 -361 l 1,287,-1
 217 -396 l 1,288,-1
 198 -402 l 1,289,-1
 192 -424 l 1,290,-1
 171 -435 l 1,291,-1
 162 -463 l 1,292,-1
 134 -480 l 1,293,-1
 118 -511 l 1,294,-1
 75 -535 l 1,295,-1
 37 -564 l 1,296,-1
 34 -564 l 1,297,-1
 20 -563 l 1,298,-1
 -2 -562 l 1,299,-1
 -20 -548 l 1,300,-1
 -38 -516 l 1,301,-1
 -64 -472 l 1,302,-1
 -67 -467 l 1,303,-1
 -68 -452 l 1,304,-1
 -68 -451 l 1,305,-1
 -67 -395 l 1,306,-1
 -66 -354 l 1,307,-1
 -49 -322 l 1,308,-1
 -45 -306 l 1,309,-1
 -45 -302 l 1,310,-1
 -49 -271 l 1,311,-1
 -50 -264 l 1,312,-1
 -48 -250 l 1,313,-1
 -43 -239 l 1,314,-1
 -17 -195 l 1,315,-1
 -2 -152 l 1,316,-1
 11 -142 l 1,317,-1
 27 -104 l 1,318,-1
 76 -36 l 1,319,-1
 83 -11 l 1,320,-1
 91 4 l 1,321,-1
 95 8 l 1,322,-1
 124 27 l 1,323,-1
 164 86 l 1,48,-1
EndSplineSet
EndChar

StartChar: K
Encoding: 75 75 47
Width: 1271
Flags: W
LayerCount: 2
Fore
SplineSet
348 736 m 1,0,-1
 368 729 l 1,1,-1
 437 896 l 1,2,-1
 424 898 l 1,3,-1
 411 886 l 1,4,-1
 394 885 l 1,5,-1
 362 866 l 1,6,-1
 317 852 l 1,7,-1
 300 838 l 1,8,-1
 272 817 l 1,9,-1
 267 807 l 1,10,-1
 265 798 l 1,11,-1
 267 789 l 1,12,-1
 277 775 l 1,13,-1
 348 736 l 1,0,-1
211 414 m 1,14,-1
 217 436 l 1,15,-1
 227 445 l 1,16,-1
 235 465 l 1,17,-1
 249 496 l 1,18,-1
 256 517 l 1,19,-1
 271 529 l 1,20,-1
 280 555 l 1,21,-1
 315 618 l 1,22,-1
 321 645 l 1,23,-1
 329 664 l 1,24,-1
 312 679 l 1,25,-1
 177 773 l 1,26,-1
 167 784 l 1,27,-1
 163 803 l 1,28,-1
 166 820 l 1,29,-1
 179 841 l 1,30,-1
 198 855 l 1,31,-1
 241 878 l 1,32,-1
 281 904 l 1,33,-1
 312 920 l 1,34,-1
 334 924 l 1,35,-1
 450 990 l 1,36,-1
 475 999 l 1,37,-1
 515 1027 l 1,38,-1
 520 1034 l 1,39,-1
 533 1074 l 1,40,-1
 541 1089 l 1,41,-1
 550 1097 l 1,42,-1
 573 1107 l 1,43,-1
 579 1116 l 1,44,-1
 566 1132 l 1,45,-1
 572 1156 l 1,46,-1
 579 1184 l 1,47,-1
 597 1218 l 1,48,-1
 599 1239 l 1,49,-1
 607 1284 l 1,50,-1
 588 1375 l 1,51,-1
 598 1400 l 1,52,-1
 617 1418 l 1,53,-1
 629 1422 l 1,54,-1
 652 1418 l 1,55,-1
 693 1411 l 1,56,-1
 703 1407 l 1,57,-1
 713 1395 l 1,58,-1
 730 1365 l 1,59,-1
 750 1343 l 1,60,-1
 760 1324 l 1,61,-1
 766 1280 l 1,62,-1
 761 1239 l 1,63,-1
 757 1232 l 1,64,-1
 741 1213 l 1,65,-1
 725 1183 l 1,66,-1
 714 1173 l 1,67,-1
 710 1167 l 1,68,-1
 709 1164 l 1,69,-1
 711 1132 l 1,70,-1
 697 1112 l 1,71,-1
 697 1109 l 1,72,-1
 717 1109 l 1,73,-1
 731 1122 l 1,74,-1
 762 1130 l 1,75,-1
 821 1163 l 1,76,-1
 844 1171 l 1,77,-1
 873 1195 l 1,78,-1
 911 1208 l 1,79,-1
 925 1216 l 1,80,-1
 948 1223 l 1,81,-1
 965 1236 l 1,82,-1
 996 1256 l 1,83,-1
 1017 1259 l 1,84,-1
 1038 1258 l 1,85,-1
 1051 1279 l 1,86,-1
 1061 1286 l 1,87,-1
 1076 1285 l 1,88,-1
 1097 1294 l 1,89,-1
 1110 1293 l 1,90,-1
 1137 1317 l 1,91,-1
 1159 1321 l 1,92,-1
 1185 1337 l 1,93,-1
 1224 1343 l 1,94,-1
 1249 1362 l 1,95,-1
 1284 1374 l 1,96,-1
 1308 1393 l 1,97,-1
 1331 1399 l 1,98,-1
 1352 1408 l 1,99,-1
 1366 1407 l 1,100,-1
 1412 1429 l 1,101,-1
 1428 1425 l 1,102,-1
 1451 1419 l 1,103,-1
 1455 1416 l 1,104,-1
 1458 1413 l 1,105,-1
 1468 1379 l 1,106,-1
 1469 1362 l 1,107,-1
 1461 1326 l 1,108,-1
 1434 1294 l 1,109,-1
 1389 1265 l 1,110,-1
 1359 1251 l 1,111,-1
 1313 1243 l 1,112,-1
 1242 1208 l 1,113,-1
 1142 1182 l 1,114,-1
 1104 1160 l 1,115,-1
 1068 1150 l 1,116,-1
 1013 1126 l 1,117,-1
 994 1124 l 1,118,-1
 977 1117 l 1,119,-1
 942 1107 l 1,120,-1
 901 1086 l 1,121,-1
 873 1081 l 1,122,-1
 823 1052 l 1,123,-1
 803 1046 l 1,124,-1
 776 1031 l 1,125,-1
 755 1029 l 1,126,-1
 718 1006 l 1,127,-1
 695 1008 l 1,128,-1
 673 987 l 1,129,-1
 659 984 l 1,130,-1
 639 978 l 1,131,-1
 636 965 l 1,132,-1
 622 946 l 1,133,-1
 615 922 l 1,134,-1
 595 903 l 1,135,-1
 588 880 l 1,136,-1
 573 855 l 1,137,-1
 560 826 l 1,138,-1
 549 809 l 1,139,-1
 537 781 l 1,140,-1
 532 768 l 1,141,-1
 520 761 l 1,142,-1
 522 731 l 1,143,-1
 487 676 l 1,144,-1
 479 653 l 1,145,-1
 498 641 l 1,146,-1
 516 630 l 1,147,-1
 549 612 l 1,148,-1
 574 602 l 1,149,-1
 575 584 l 1,150,-1
 618 566 l 1,151,-1
 637 566 l 1,152,-1
 659 545 l 1,153,-1
 693 537 l 1,154,-1
 716 523 l 1,155,-1
 748 507 l 1,156,-1
 765 492 l 1,157,-1
 801 481 l 1,158,-1
 824 459 l 1,159,-1
 851 455 l 1,160,-1
 869 450 l 1,161,-1
 878 444 l 1,162,-1
 891 426 l 1,163,-1
 912 416 l 1,164,-1
 965 392 l 1,165,-1
 972 379 l 1,166,-1
 992 370 l 1,167,-1
 1017 359 l 1,168,-1
 1041 337 l 1,169,-1
 1065 337 l 1,170,-1
 1124 301 l 1,171,-1
 1155 291 l 1,172,-1
 1170 275 l 1,173,-1
 1226 245 l 1,174,-1
 1241 223 l 1,175,-1
 1253 183 l 1,176,-1
 1252 178 l 1,177,-1
 1240 154 l 1,178,-1
 1231 138 l 1,179,-1
 1208 127 l 1,180,-1
 1168 113 l 1,181,-1
 1153 105 l 1,182,-1
 1131 109 l 1,183,-1
 1111 121 l 1,184,-1
 1100 135 l 1,185,-1
 1094 153 l 1,186,-1
 1083 163 l 1,187,-1
 1077 152 l 1,188,-1
 1051 160 l 1,189,-1
 996 208 l 1,190,-1
 942 240 l 1,191,-1
 885 285 l 1,192,-1
 815 325 l 1,193,-1
 787 349 l 1,194,-1
 739 374 l 1,195,-1
 704 404 l 1,196,-1
 685 418 l 1,197,-1
 674 435 l 1,198,-1
 649 453 l 1,199,-1
 621 480 l 1,200,-1
 597 488 l 1,201,-1
 523 543 l 1,202,-1
 463 578 l 1,203,-1
 441 592 l 1,204,-1
 440 563 l 1,205,-1
 430 543 l 1,206,-1
 415 547 l 1,207,-1
 408 527 l 1,208,-1
 404 493 l 1,209,-1
 392 460 l 1,210,-1
 386 434 l 1,211,-1
 379 421 l 1,212,-1
 373 415 l 1,213,-1
 360 410 l 1,214,-1
 358 394 l 1,215,-1
 339 359 l 1,216,-1
 287 206 l 1,217,-1
 267 153 l 1,218,-1
 269 138 l 1,219,-1
 263 99 l 1,220,-1
 273 75 l 1,221,-1
 264 51 l 1,222,-1
 254 30 l 1,223,-1
 243 22 l 1,224,-1
 231 19 l 1,225,-1
 218 22 l 1,226,-1
 203 36 l 1,227,-1
 181 41 l 1,228,-1
 162 54 l 1,229,-1
 143 79 l 1,230,-1
 138 98 l 1,231,-1
 137 116 l 1,232,-1
 124 154 l 1,233,-1
 123 166 l 1,234,-1
 124 175 l 1,235,-1
 132 214 l 1,236,-1
 138 244 l 1,237,-1
 153 271 l 1,238,-1
 188 373 l 1,239,-1
 211 414 l 1,14,-1
EndSplineSet
EndChar

StartChar: L
Encoding: 76 76 48
Width: 1361
Flags: W
LayerCount: 2
Fore
SplineSet
1017 1157 m 1,0,-1
 1009 1133 l 1,1,-1
 1052 1170 l 1,2,-1
 1073 1204 l 1,3,-1
 1107 1230 l 1,4,-1
 1127 1259 l 1,5,-1
 1157 1322 l 1,6,-1
 1172 1362 l 1,7,-1
 1170 1385 l 1,8,-1
 1151 1373 l 1,9,-1
 1139 1366 l 1,10,-1
 1105 1320 l 1,11,-1
 1084 1294 l 1,12,-1
 1057 1241 l 1,13,-1
 1047 1223 l 1,14,-1
 1017 1157 l 1,0,-1
66 86 m 1,15,-1
 70 80 l 1,16,-1
 88 76 l 1,17,-1
 109 63 l 1,18,-1
 111 62 l 1,19,-1
 150 56 l 1,20,-1
 183 53 l 1,21,-1
 186 54 l 1,22,-1
 188 55 l 1,23,-1
 212 70 l 1,24,-1
 239 72 l 1,25,-1
 257 85 l 1,26,-1
 274 94 l 1,27,-1
 287 111 l 1,28,-1
 306 127 l 1,29,-1
 315 146 l 1,30,-1
 319 167 l 1,31,-1
 297 165 l 1,32,-1
 271 161 l 1,33,-1
 232 146 l 1,34,-1
 213 145 l 1,35,-1
 149 121 l 1,36,-1
 107 109 l 1,37,-1
 93 101 l 1,38,-1
 70 94 l 1,39,-1
 66 89 l 1,40,-1
 66 86 l 1,15,-1
571 547 m 1,41,-1
 589 562 l 1,42,-1
 588 579 l 1,43,-1
 596 593 l 1,44,-1
 603 612 l 1,45,-1
 617 630 l 1,46,-1
 619 653 l 1,47,-1
 650 702 l 1,48,-1
 672 761 l 1,49,-1
 687 787 l 1,50,-1
 694 806 l 1,51,-1
 675 797 l 1,52,-1
 637 777 l 1,53,-1
 610 754 l 1,54,-1
 593 747 l 1,55,-1
 546 717 l 1,56,-1
 511 709 l 1,57,-1
 465 684 l 1,58,-1
 436 698 l 1,59,-1
 434 675 l 1,60,-1
 417 665 l 1,61,-1
 399 661 l 1,62,-1
 387 664 l 1,63,-1
 361 686 l 1,64,-1
 349 702 l 1,65,-1
 350 724 l 1,66,-1
 354 740 l 1,67,-1
 357 745 l 1,68,-1
 382 768 l 1,69,-1
 403 787 l 1,70,-1
 412 791 l 1,71,-1
 434 792 l 1,72,-1
 454 791 l 1,73,-1
 475 789 l 1,74,-1
 491 776 l 1,75,-1
 498 775 l 1,76,-1
 508 777 l 1,77,-1
 528 780 l 1,78,-1
 547 801 l 1,79,-1
 549 802 l 1,80,-1
 570 808 l 1,81,-1
 600 818 l 1,82,-1
 640 841 l 1,83,-1
 666 850 l 1,84,-1
 679 867 l 1,85,-1
 692 875 l 1,86,-1
 700 887 l 1,87,-1
 720 895 l 1,88,-1
 748 908 l 1,89,-1
 751 911 l 1,90,-1
 773 951 l 1,91,-1
 779 963 l 1,92,-1
 777 973 l 1,93,-1
 790 994 l 1,94,-1
 799 1021 l 1,95,-1
 846 1064 l 1,96,-1
 844 1084 l 1,97,-1
 844 1087 l 1,98,-1
 851 1115 l 1,99,-1
 866 1138 l 1,100,-1
 885 1149 l 1,101,-1
 887 1172 l 1,102,-1
 896 1198 l 1,103,-1
 901 1204 l 1,104,-1
 921 1216 l 1,105,-1
 926 1225 l 1,106,-1
 924 1247 l 1,107,-1
 933 1258 l 1,108,-1
 947 1260 l 1,109,-1
 954 1280 l 1,110,-1
 976 1310 l 1,111,-1
 990 1334 l 1,112,-1
 1000 1342 l 1,113,-1
 1010 1347 l 1,114,-1
 1032 1349 l 1,115,-1
 1029 1371 l 1,116,-1
 1048 1398 l 1,117,-1
 1064 1415 l 1,118,-1
 1085 1428 l 1,119,-1
 1107 1437 l 1,120,-1
 1145 1444 l 1,121,-1
 1154 1443 l 1,122,-1
 1177 1426 l 1,123,-1
 1198 1413 l 1,124,-1
 1216 1361 l 1,125,-1
 1215 1345 l 1,126,-1
 1207 1297 l 1,127,-1
 1207 1273 l 1,128,-1
 1192 1270 l 1,129,-1
 1191 1249 l 1,130,-1
 1185 1217 l 1,131,-1
 1179 1209 l 1,132,-1
 1153 1198 l 1,133,-1
 1150 1171 l 1,134,-1
 1122 1162 l 1,135,-1
 1119 1150 l 1,136,-1
 1122 1128 l 1,137,-1
 1103 1107 l 1,138,-1
 1085 1106 l 1,139,-1
 1073 1101 l 1,140,-1
 1068 1080 l 1,141,-1
 1048 1067 l 1,142,-1
 1031 1045 l 1,143,-1
 1004 1024 l 1,144,-1
 982 1001 l 1,145,-1
 960 987 l 1,146,-1
 923 960 l 1,147,-1
 905 949 l 1,148,-1
 898 919 l 1,149,-1
 849 816 l 1,150,-1
 848 793 l 1,151,-1
 837 787 l 1,152,-1
 836 773 l 1,153,-1
 825 748 l 1,154,-1
 818 725 l 1,155,-1
 801 692 l 1,156,-1
 789 657 l 1,157,-1
 764 615 l 1,158,-1
 748 574 l 1,159,-1
 729 547 l 1,160,-1
 720 527 l 1,161,-1
 692 518 l 1,162,-1
 703 508 l 1,163,-1
 706 500 l 1,164,-1
 698 483 l 1,165,-1
 696 469 l 1,166,-1
 662 422 l 1,167,-1
 656 404 l 1,168,-1
 643 393 l 1,169,-1
 638 371 l 1,170,-1
 621 342 l 1,171,-1
 619 319 l 1,172,-1
 639 315 l 1,173,-1
 675 324 l 1,174,-1
 693 320 l 1,175,-1
 713 323 l 1,176,-1
 714 323 l 1,177,-1
 732 319 l 1,178,-1
 756 316 l 1,179,-1
 811 322 l 1,180,-1
 829 324 l 1,181,-1
 832 324 l 1,182,-1
 881 319 l 1,183,-1
 902 327 l 1,184,-1
 929 320 l 1,185,-1
 957 323 l 1,186,-1
 994 316 l 1,187,-1
 1017 318 l 1,188,-1
 1021 318 l 1,189,-1
 1084 305 l 1,190,-1
 1151 287 l 1,191,-1
 1174 281 l 1,192,-1
 1195 285 l 1,193,-1
 1212 287 l 1,194,-1
 1242 282 l 1,195,-1
 1255 277 l 1,196,-1
 1318 232 l 1,197,-1
 1334 221 l 1,198,-1
 1345 199 l 1,199,-1
 1347 180 l 1,200,-1
 1337 130 l 1,201,-1
 1329 112 l 1,202,-1
 1312 94 l 1,203,-1
 1294 91 l 1,204,-1
 1233 110 l 1,205,-1
 1212 122 l 1,206,-1
 1200 137 l 1,207,-1
 1180 152 l 1,208,-1
 1172 172 l 1,209,-1
 1140 173 l 1,210,-1
 1111 181 l 1,211,-1
 1078 203 l 1,212,-1
 1061 203 l 1,213,-1
 1049 213 l 1,214,-1
 1027 216 l 1,215,-1
 1001 218 l 1,216,-1
 997 220 l 1,217,-1
 987 236 l 1,218,-1
 944 239 l 1,219,-1
 927 248 l 1,220,-1
 908 244 l 1,221,-1
 889 250 l 1,222,-1
 876 246 l 1,223,-1
 856 247 l 1,224,-1
 812 249 l 1,225,-1
 799 255 l 1,226,-1
 774 255 l 1,227,-1
 740 248 l 1,228,-1
 704 248 l 1,229,-1
 696 255 l 1,230,-1
 677 241 l 1,231,-1
 646 233 l 1,232,-1
 595 227 l 1,233,-1
 571 226 l 1,234,-1
 559 209 l 1,235,-1
 543 187 l 1,236,-1
 523 180 l 1,237,-1
 517 154 l 1,238,-1
 496 134 l 1,239,-1
 486 124 l 1,240,-1
 474 121 l 1,241,-1
 463 101 l 1,242,-1
 439 73 l 1,243,-1
 427 68 l 1,244,-1
 410 70 l 1,245,-1
 419 56 l 1,246,-1
 420 54 l 1,247,-1
 419 49 l 1,248,-1
 416 46 l 1,249,-1
 391 36 l 1,250,-1
 374 20 l 1,251,-1
 352 16 l 1,252,-1
 334 1 l 1,253,-1
 287 -9 l 1,254,-1
 263 -23 l 1,255,-1
 242 -21 l 1,256,-1
 212 -23 l 1,257,-1
 191 -16 l 1,258,-1
 185 -23 l 1,259,-1
 165 -17 l 1,260,-1
 128 -12 l 1,261,-1
 111 2 l 1,262,-1
 65 14 l 1,263,-1
 59 18 l 1,264,-1
 32 54 l 1,265,-1
 15 80 l 1,266,-1
 14 89 l 1,267,-1
 15 99 l 1,268,-1
 21 108 l 1,269,-1
 28 114 l 1,270,-1
 84 143 l 1,271,-1
 130 170 l 1,272,-1
 163 177 l 1,273,-1
 214 201 l 1,274,-1
 272 204 l 1,275,-1
 287 219 l 1,276,-1
 309 231 l 1,277,-1
 329 240 l 1,278,-1
 374 246 l 1,279,-1
 393 276 l 1,280,-1
 410 293 l 1,281,-1
 439 336 l 1,282,-1
 459 364 l 1,283,-1
 460 367 l 1,284,-1
 462 384 l 1,285,-1
 466 399 l 1,286,-1
 476 413 l 1,287,-1
 503 439 l 1,288,-1
 518 480 l 1,289,-1
 542 499 l 1,290,-1
 571 547 l 1,41,-1
EndSplineSet
EndChar

StartChar: M
Encoding: 77 77 49
Width: 1924
Flags: W
LayerCount: 2
Fore
SplineSet
106 741 m 1,0,-1
 153 787 l 1,1,-1
 173 795 l 1,2,-1
 278 846 l 1,3,-1
 314 859 l 1,4,-1
 334 874 l 1,5,-1
 363 885 l 1,6,-1
 405 904 l 1,7,-1
 414 907 l 1,8,-1
 420 920 l 1,9,-1
 457 923 l 1,10,-1
 490 950 l 1,11,-1
 539 968 l 1,12,-1
 564 987 l 1,13,-1
 596 994 l 1,14,-1
 655 1020 l 1,15,-1
 703 1033 l 1,16,-1
 730 1043 l 1,17,-1
 768 1046 l 1,18,-1
 789 1050 l 1,19,-1
 807 1051 l 1,20,-1
 848 1041 l 1,21,-1
 878 1009 l 1,22,-1
 901 953 l 1,23,-1
 895 928 l 1,24,-1
 886 902 l 1,25,-1
 856 862 l 1,26,-1
 844 829 l 1,27,-1
 823 797 l 1,28,-1
 807 766 l 1,29,-1
 771 725 l 1,30,-1
 740 663 l 1,31,-1
 726 652 l 1,32,-1
 717 628 l 1,33,-1
 673 557 l 1,34,-1
 665 540 l 1,35,-1
 650 521 l 1,36,-1
 635 467 l 1,37,-1
 623 446 l 1,38,-1
 653 466 l 1,39,-1
 655 485 l 1,40,-1
 674 495 l 1,41,-1
 690 520 l 1,42,-1
 708 536 l 1,43,-1
 752 575 l 1,44,-1
 774 587 l 1,45,-1
 805 637 l 1,46,-1
 831 653 l 1,47,-1
 858 678 l 1,48,-1
 901 727 l 1,49,-1
 913 747 l 1,50,-1
 962 784 l 1,51,-1
 974 802 l 1,52,-1
 986 803 l 1,53,-1
 998 809 l 1,54,-1
 1002 815 l 1,55,-1
 1012 842 l 1,56,-1
 1051 869 l 1,57,-1
 1075 893 l 1,58,-1
 1082 896 l 1,59,-1
 1085 897 l 1,60,-1
 1086 897 l 1,61,-1
 1095 890 l 1,62,-1
 1104 898 l 1,63,-1
 1105 921 l 1,64,-1
 1113 940 l 1,65,-1
 1124 947 l 1,66,-1
 1155 958 l 1,67,-1
 1195 999 l 1,68,-1
 1228 1007 l 1,69,-1
 1240 1027 l 1,70,-1
 1254 1037 l 1,71,-1
 1273 1052 l 1,72,-1
 1293 1053 l 1,73,-1
 1313 1067 l 1,74,-1
 1334 1073 l 1,75,-1
 1356 1080 l 1,76,-1
 1357 1080 l 1,77,-1
 1402 1070 l 1,78,-1
 1415 1065 l 1,79,-1
 1437 1046 l 1,80,-1
 1456 1024 l 1,81,-1
 1461 995 l 1,82,-1
 1471 987 l 1,83,-1
 1474 981 l 1,84,-1
 1464 963 l 1,85,-1
 1459 916 l 1,86,-1
 1441 868 l 1,87,-1
 1429 820 l 1,88,-1
 1394 768 l 1,89,-1
 1389 751 l 1,90,-1
 1380 735 l 1,91,-1
 1381 708 l 1,92,-1
 1391 708 l 1,93,-1
 1406 717 l 1,94,-1
 1414 750 l 1,95,-1
 1443 768 l 1,96,-1
 1479 815 l 1,97,-1
 1503 832 l 1,98,-1
 1522 843 l 1,99,-1
 1527 862 l 1,100,-1
 1548 881 l 1,101,-1
 1574 908 l 1,102,-1
 1606 928 l 1,103,-1
 1633 967 l 1,104,-1
 1679 990 l 1,105,-1
 1697 1017 l 1,106,-1
 1736 1049 l 1,107,-1
 1775 1078 l 1,108,-1
 1792 1082 l 1,109,-1
 1822 1104 l 1,110,-1
 1858 1117 l 1,111,-1
 1890 1134 l 1,112,-1
 1909 1135 l 1,113,-1
 1933 1142 l 1,114,-1
 1947 1143 l 1,115,-1
 1974 1135 l 1,116,-1
 2016 1092 l 1,117,-1
 2034 1040 l 1,118,-1
 2034 1037 l 1,119,-1
 2032 1010 l 1,120,-1
 2032 963 l 1,121,-1
 2009 920 l 1,122,-1
 2006 891 l 1,123,-1
 1989 866 l 1,124,-1
 1976 843 l 1,125,-1
 1965 833 l 1,126,-1
 1963 831 l 1,127,-1
 1955 806 l 1,128,-1
 1950 794 l 1,129,-1
 1937 784 l 1,130,-1
 1934 760 l 1,131,-1
 1920 747 l 1,132,-1
 1910 732 l 1,133,-1
 1898 725 l 1,134,-1
 1890 699 l 1,135,-1
 1872 682 l 1,136,-1
 1856 648 l 1,137,-1
 1838 630 l 1,138,-1
 1835 609 l 1,139,-1
 1822 590 l 1,140,-1
 1808 563 l 1,141,-1
 1795 551 l 1,142,-1
 1781 525 l 1,143,-1
 1770 517 l 1,144,-1
 1761 482 l 1,145,-1
 1738 475 l 1,146,-1
 1746 450 l 1,147,-1
 1735 435 l 1,148,-1
 1723 418 l 1,149,-1
 1722 389 l 1,150,-1
 1696 341 l 1,151,-1
 1688 307 l 1,152,-1
 1684 272 l 1,153,-1
 1693 252 l 1,154,-1
 1719 194 l 1,155,-1
 1721 181 l 1,156,-1
 1719 164 l 1,157,-1
 1712 137 l 1,158,-1
 1702 128 l 1,159,-1
 1667 122 l 1,160,-1
 1638 126 l 1,161,-1
 1628 131 l 1,162,-1
 1606 149 l 1,163,-1
 1583 159 l 1,164,-1
 1585 175 l 1,165,-1
 1554 184 l 1,166,-1
 1544 199 l 1,167,-1
 1531 214 l 1,168,-1
 1524 239 l 1,169,-1
 1516 292 l 1,170,-1
 1517 307 l 1,171,-1
 1529 366 l 1,172,-1
 1536 409 l 1,173,-1
 1558 453 l 1,174,-1
 1565 480 l 1,175,-1
 1587 502 l 1,176,-1
 1616 559 l 1,177,-1
 1637 560 l 1,178,-1
 1626 578 l 1,179,-1
 1641 602 l 1,180,-1
 1656 602 l 1,181,-1
 1663 609 l 1,182,-1
 1660 638 l 1,183,-1
 1662 643 l 1,184,-1
 1668 649 l 1,185,-1
 1685 660 l 1,186,-1
 1691 693 l 1,187,-1
 1711 712 l 1,188,-1
 1709 729 l 1,189,-1
 1726 752 l 1,190,-1
 1779 838 l 1,191,-1
 1798 858 l 1,192,-1
 1815 894 l 1,193,-1
 1845 913 l 1,194,-1
 1836 933 l 1,195,-1
 1853 959 l 1,196,-1
 1870 984 l 1,197,-1
 1883 1016 l 1,198,-1
 1842 1009 l 1,199,-1
 1829 987 l 1,200,-1
 1796 969 l 1,201,-1
 1775 947 l 1,202,-1
 1753 940 l 1,203,-1
 1730 922 l 1,204,-1
 1715 915 l 1,205,-1
 1684 885 l 1,206,-1
 1634 843 l 1,207,-1
 1601 811 l 1,208,-1
 1572 792 l 1,209,-1
 1553 761 l 1,210,-1
 1537 745 l 1,211,-1
 1521 748 l 1,212,-1
 1504 738 l 1,213,-1
 1512 729 l 1,214,-1
 1500 707 l 1,215,-1
 1475 691 l 1,216,-1
 1446 654 l 1,217,-1
 1426 642 l 1,218,-1
 1407 621 l 1,219,-1
 1396 600 l 1,220,-1
 1360 559 l 1,221,-1
 1341 539 l 1,222,-1
 1328 532 l 1,223,-1
 1312 508 l 1,224,-1
 1298 496 l 1,225,-1
 1274 463 l 1,226,-1
 1266 445 l 1,227,-1
 1252 439 l 1,228,-1
 1245 424 l 1,229,-1
 1234 417 l 1,230,-1
 1231 394 l 1,231,-1
 1211 383 l 1,232,-1
 1162 348 l 1,233,-1
 1142 346 l 1,234,-1
 1126 339 l 1,235,-1
 1125 338 l 1,236,-1
 1108 345 l 1,237,-1
 1080 363 l 1,238,-1
 1073 383 l 1,239,-1
 1065 405 l 1,240,-1
 1072 428 l 1,241,-1
 1071 461 l 1,242,-1
 1087 484 l 1,243,-1
 1115 566 l 1,244,-1
 1135 595 l 1,245,-1
 1142 628 l 1,246,-1
 1153 632 l 1,247,-1
 1160 642 l 1,248,-1
 1175 657 l 1,249,-1
 1217 730 l 1,250,-1
 1231 747 l 1,251,-1
 1239 779 l 1,252,-1
 1268 822 l 1,253,-1
 1282 854 l 1,254,-1
 1294 870 l 1,255,-1
 1298 900 l 1,256,-1
 1265 902 l 1,257,-1
 1226 869 l 1,258,-1
 1206 862 l 1,259,-1
 1185 853 l 1,260,-1
 1162 831 l 1,261,-1
 1127 810 l 1,262,-1
 1110 789 l 1,263,-1
 1079 775 l 1,264,-1
 1012 719 l 1,265,-1
 986 706 l 1,266,-1
 967 689 l 1,267,-1
 944 672 l 1,268,-1
 916 638 l 1,269,-1
 900 633 l 1,270,-1
 880 624 l 1,271,-1
 870 596 l 1,272,-1
 844 576 l 1,273,-1
 822 544 l 1,274,-1
 785 512 l 1,275,-1
 770 491 l 1,276,-1
 738 473 l 1,277,-1
 732 446 l 1,278,-1
 702 422 l 1,279,-1
 697 401 l 1,280,-1
 690 390 l 1,281,-1
 673 388 l 1,282,-1
 652 378 l 1,283,-1
 651 350 l 1,284,-1
 646 338 l 1,285,-1
 635 324 l 1,286,-1
 619 309 l 1,287,-1
 604 287 l 1,288,-1
 590 284 l 1,289,-1
 580 256 l 1,290,-1
 538 213 l 1,291,-1
 443 83 l 1,292,-1
 434 74 l 1,293,-1
 422 67 l 1,294,-1
 398 57 l 1,295,-1
 375 47 l 1,296,-1
 369 47 l 1,297,-1
 352 49 l 1,298,-1
 330 56 l 1,299,-1
 323 66 l 1,300,-1
 306 78 l 1,301,-1
 303 106 l 1,302,-1
 293 115 l 1,303,-1
 291 125 l 1,304,-1
 293 134 l 1,305,-1
 337 241 l 1,306,-1
 341 270 l 1,307,-1
 362 287 l 1,308,-1
 385 305 l 1,309,-1
 384 329 l 1,310,-1
 391 342 l 1,311,-1
 397 358 l 1,312,-1
 420 366 l 1,313,-1
 414 392 l 1,314,-1
 442 416 l 1,315,-1
 440 441 l 1,316,-1
 443 452 l 1,317,-1
 448 460 l 1,318,-1
 467 482 l 1,319,-1
 483 526 l 1,320,-1
 503 561 l 1,321,-1
 516 583 l 1,322,-1
 535 595 l 1,323,-1
 542 620 l 1,324,-1
 554 651 l 1,325,-1
 574 666 l 1,326,-1
 583 687 l 1,327,-1
 598 719 l 1,328,-1
 602 722 l 1,329,-1
 619 725 l 1,330,-1
 638 727 l 1,331,-1
 642 734 l 1,332,-1
 638 740 l 1,333,-1
 628 730 l 1,334,-1
 614 731 l 1,335,-1
 637 777 l 1,336,-1
 643 799 l 1,337,-1
 672 837 l 1,338,-1
 697 903 l 1,339,-1
 715 937 l 1,340,-1
 716 972 l 1,341,-1
 683 963 l 1,342,-1
 655 959 l 1,343,-1
 589 922 l 1,344,-1
 561 916 l 1,345,-1
 512 895 l 1,346,-1
 482 886 l 1,347,-1
 459 874 l 1,348,-1
 440 872 l 1,349,-1
 422 849 l 1,350,-1
 378 818 l 1,351,-1
 319 780 l 1,352,-1
 257 748 l 1,353,-1
 243 734 l 1,354,-1
 225 724 l 1,355,-1
 223 699 l 1,356,-1
 200 674 l 1,357,-1
 171 653 l 1,358,-1
 162 651 l 1,359,-1
 158 651 l 1,360,-1
 129 662 l 1,361,-1
 113 665 l 1,362,-1
 106 670 l 1,363,-1
 100 680 l 1,364,-1
 96 705 l 1,365,-1
 99 727 l 1,366,-1
 106 741 l 1,0,-1
EndSplineSet
EndChar

StartChar: N
Encoding: 78 78 50
Width: 1522
Flags: W
LayerCount: 2
Fore
SplineSet
539 1040 m 1,0,-1
 562 1054 l 1,1,-1
 580 1057 l 1,2,-1
 603 1071 l 1,3,-1
 643 1081 l 1,4,-1
 662 1087 l 1,5,-1
 677 1077 l 1,6,-1
 694 1100 l 1,7,-1
 729 1101 l 1,8,-1
 752 1113 l 1,9,-1
 781 1111 l 1,10,-1
 789 1109 l 1,11,-1
 792 1108 l 1,12,-1
 799 1095 l 1,13,-1
 807 1108 l 1,14,-1
 812 1111 l 1,15,-1
 816 1112 l 1,16,-1
 819 1111 l 1,17,-1
 854 1098 l 1,18,-1
 870 1098 l 1,19,-1
 887 1093 l 1,20,-1
 893 1087 l 1,21,-1
 901 1066 l 1,22,-1
 933 1015 l 1,23,-1
 935 1009 l 1,24,-1
 936 1005 l 1,25,-1
 909 942 l 1,26,-1
 885 893 l 1,27,-1
 857 859 l 1,28,-1
 849 844 l 1,29,-1
 820 814 l 1,30,-1
 811 771 l 1,31,-1
 763 725 l 1,32,-1
 717 640 l 1,33,-1
 685 611 l 1,34,-1
 662 574 l 1,35,-1
 653 552 l 1,36,-1
 675 573 l 1,37,-1
 712 619 l 1,38,-1
 778 678 l 1,39,-1
 817 718 l 1,40,-1
 833 725 l 1,41,-1
 842 738 l 1,42,-1
 889 777 l 1,43,-1
 909 807 l 1,44,-1
 931 816 l 1,45,-1
 934 832 l 1,46,-1
 942 841 l 1,47,-1
 960 842 l 1,48,-1
 962 864 l 1,49,-1
 987 869 l 1,50,-1
 992 881 l 1,51,-1
 1000 885 l 1,52,-1
 1008 903 l 1,53,-1
 1051 941 l 1,54,-1
 1061 959 l 1,55,-1
 1088 974 l 1,56,-1
 1101 986 l 1,57,-1
 1114 985 l 1,58,-1
 1121 979 l 1,59,-1
 1124 998 l 1,60,-1
 1130 1007 l 1,61,-1
 1149 1021 l 1,62,-1
 1204 1051 l 1,63,-1
 1261 1089 l 1,64,-1
 1294 1102 l 1,65,-1
 1350 1134 l 1,66,-1
 1421 1137 l 1,67,-1
 1463 1139 l 1,68,-1
 1483 1134 l 1,69,-1
 1510 1116 l 1,70,-1
 1541 1090 l 1,71,-1
 1558 1063 l 1,72,-1
 1563 1033 l 1,73,-1
 1554 996 l 1,74,-1
 1519 933 l 1,75,-1
 1507 905 l 1,76,-1
 1483 865 l 1,77,-1
 1472 832 l 1,78,-1
 1436 782 l 1,79,-1
 1397 699 l 1,80,-1
 1372 668 l 1,81,-1
 1362 635 l 1,82,-1
 1332 599 l 1,83,-1
 1301 517 l 1,84,-1
 1288 508 l 1,85,-1
 1287 505 l 1,86,-1
 1277 470 l 1,87,-1
 1264 440 l 1,88,-1
 1247 407 l 1,89,-1
 1233 378 l 1,90,-1
 1217 356 l 1,91,-1
 1214 330 l 1,92,-1
 1203 307 l 1,93,-1
 1199 257 l 1,94,-1
 1194 229 l 1,95,-1
 1196 220 l 1,96,-1
 1203 213 l 1,97,-1
 1215 210 l 1,98,-1
 1224 212 l 1,99,-1
 1244 222 l 1,100,-1
 1290 251 l 1,101,-1
 1322 281 l 1,102,-1
 1366 313 l 1,103,-1
 1420 358 l 1,104,-1
 1442 362 l 1,105,-1
 1451 382 l 1,106,-1
 1477 418 l 1,107,-1
 1504 435 l 1,108,-1
 1520 439 l 1,109,-1
 1530 437 l 1,110,-1
 1548 421 l 1,111,-1
 1538 412 l 1,112,-1
 1544 387 l 1,113,-1
 1540 366 l 1,114,-1
 1533 343 l 1,115,-1
 1516 331 l 1,116,-1
 1508 315 l 1,117,-1
 1487 302 l 1,118,-1
 1470 290 l 1,119,-1
 1453 290 l 1,120,-1
 1446 271 l 1,121,-1
 1427 258 l 1,122,-1
 1381 219 l 1,123,-1
 1362 210 l 1,124,-1
 1341 195 l 1,125,-1
 1299 180 l 1,126,-1
 1276 161 l 1,127,-1
 1246 157 l 1,128,-1
 1215 149 l 1,129,-1
 1186 148 l 1,130,-1
 1158 150 l 1,131,-1
 1125 169 l 1,132,-1
 1076 202 l 1,133,-1
 1048 232 l 1,134,-1
 1032 302 l 1,135,-1
 1030 348 l 1,136,-1
 1032 356 l 1,137,-1
 1063 419 l 1,138,-1
 1068 439 l 1,139,-1
 1090 451 l 1,140,-1
 1089 477 l 1,141,-1
 1095 491 l 1,142,-1
 1098 509 l 1,143,-1
 1147 585 l 1,144,-1
 1163 614 l 1,145,-1
 1187 679 l 1,146,-1
 1210 707 l 1,147,-1
 1222 747 l 1,148,-1
 1247 777 l 1,149,-1
 1262 803 l 1,150,-1
 1280 827 l 1,151,-1
 1301 869 l 1,152,-1
 1341 925 l 1,153,-1
 1347 944 l 1,154,-1
 1358 967 l 1,155,-1
 1360 985 l 1,156,-1
 1379 1012 l 1,157,-1
 1380 1037 l 1,158,-1
 1350 1030 l 1,159,-1
 1316 1009 l 1,160,-1
 1237 973 l 1,161,-1
 1209 950 l 1,162,-1
 1171 927 l 1,163,-1
 1157 912 l 1,164,-1
 1136 911 l 1,165,-1
 1124 893 l 1,166,-1
 1105 881 l 1,167,-1
 1087 856 l 1,168,-1
 1053 846 l 1,169,-1
 1017 798 l 1,170,-1
 974 784 l 1,171,-1
 958 742 l 1,172,-1
 907 710 l 1,173,-1
 885 667 l 1,174,-1
 862 660 l 1,175,-1
 849 644 l 1,176,-1
 817 605 l 1,177,-1
 794 590 l 1,178,-1
 759 556 l 1,179,-1
 731 520 l 1,180,-1
 693 492 l 1,181,-1
 666 458 l 1,182,-1
 614 404 l 1,183,-1
 596 372 l 1,184,-1
 577 357 l 1,185,-1
 561 339 l 1,186,-1
 540 334 l 1,187,-1
 525 316 l 1,188,-1
 491 269 l 1,189,-1
 451 227 l 1,190,-1
 429 197 l 1,191,-1
 410 186 l 1,192,-1
 403 165 l 1,193,-1
 376 145 l 1,194,-1
 357 110 l 1,195,-1
 345 100 l 1,196,-1
 304 87 l 1,197,-1
 285 92 l 1,198,-1
 267 106 l 1,199,-1
 248 137 l 1,200,-1
 234 166 l 1,201,-1
 233 207 l 1,202,-1
 232 226 l 1,203,-1
 232 229 l 1,204,-1
 233 232 l 1,205,-1
 264 281 l 1,206,-1
 281 321 l 1,207,-1
 298 341 l 1,208,-1
 322 384 l 1,209,-1
 344 389 l 1,210,-1
 349 397 l 1,211,-1
 347 422 l 1,212,-1
 360 439 l 1,213,-1
 374 468 l 1,214,-1
 392 479 l 1,215,-1
 401 498 l 1,216,-1
 425 539 l 1,217,-1
 439 554 l 1,218,-1
 451 578 l 1,219,-1
 465 587 l 1,220,-1
 466 604 l 1,221,-1
 486 628 l 1,222,-1
 504 641 l 1,223,-1
 512 667 l 1,224,-1
 537 693 l 1,225,-1
 562 733 l 1,226,-1
 578 747 l 1,227,-1
 601 779 l 1,228,-1
 617 793 l 1,229,-1
 623 817 l 1,230,-1
 644 821 l 1,231,-1
 653 845 l 1,232,-1
 663 860 l 1,233,-1
 672 882 l 1,234,-1
 701 893 l 1,235,-1
 700 919 l 1,236,-1
 732 956 l 1,237,-1
 747 989 l 1,238,-1
 749 997 l 1,239,-1
 747 1005 l 1,240,-1
 743 1010 l 1,241,-1
 738 1011 l 1,242,-1
 737 1011 l 1,243,-1
 711 1005 l 1,244,-1
 689 1007 l 1,245,-1
 663 997 l 1,246,-1
 617 988 l 1,247,-1
 598 977 l 1,248,-1
 577 979 l 1,249,-1
 531 951 l 1,250,-1
 529 951 l 1,251,-1
 517 952 l 1,252,-1
 493 955 l 1,253,-1
 479 940 l 1,254,-1
 463 936 l 1,255,-1
 443 931 l 1,256,-1
 430 915 l 1,257,-1
 406 915 l 1,258,-1
 378 889 l 1,259,-1
 281 839 l 1,260,-1
 263 820 l 1,261,-1
 244 803 l 1,262,-1
 216 757 l 1,263,-1
 191 745 l 1,264,-1
 170 727 l 1,265,-1
 166 726 l 1,266,-1
 141 729 l 1,267,-1
 122 735 l 1,268,-1
 107 751 l 1,269,-1
 96 793 l 1,270,-1
 99 813 l 1,271,-1
 114 835 l 1,272,-1
 133 849 l 1,273,-1
 221 892 l 1,274,-1
 257 911 l 1,275,-1
 284 916 l 1,276,-1
 335 944 l 1,277,-1
 422 986 l 1,278,-1
 441 1001 l 1,279,-1
 539 1040 l 1,0,-1
EndSplineSet
EndChar

StartChar: O
Encoding: 79 79 51
Width: 1085
Flags: W
LayerCount: 2
Fore
SplineSet
660 311 m 1,0,-1
 685 321 l 1,1,-1
 692 350 l 1,2,-1
 716 362 l 1,3,-1
 741 404 l 1,4,-1
 759 407 l 1,5,-1
 766 414 l 1,6,-1
 771 440 l 1,7,-1
 790 459 l 1,8,-1
 820 497 l 1,9,-1
 844 520 l 1,10,-1
 880 573 l 1,11,-1
 899 592 l 1,12,-1
 907 612 l 1,13,-1
 937 632 l 1,14,-1
 938 654 l 1,15,-1
 944 674 l 1,16,-1
 952 684 l 1,17,-1
 990 716 l 1,18,-1
 995 723 l 1,19,-1
 999 735 l 1,20,-1
 1002 754 l 1,21,-1
 1021 781 l 1,22,-1
 1030 799 l 1,23,-1
 1044 812 l 1,24,-1
 1060 838 l 1,25,-1
 1070 860 l 1,26,-1
 1094 889 l 1,27,-1
 1108 931 l 1,28,-1
 1127 943 l 1,29,-1
 1126 971 l 1,30,-1
 1142 993 l 1,31,-1
 1166 1057 l 1,32,-1
 1179 1080 l 1,33,-1
 1175 1100 l 1,34,-1
 1185 1130 l 1,35,-1
 1179 1163 l 1,36,-1
 1187 1188 l 1,37,-1
 1186 1207 l 1,38,-1
 1188 1223 l 1,39,-1
 1188 1227 l 1,40,-1
 1167 1264 l 1,41,-1
 1158 1281 l 1,42,-1
 1128 1285 l 1,43,-1
 1098 1284 l 1,44,-1
 1063 1288 l 1,45,-1
 992 1262 l 1,46,-1
 970 1259 l 1,47,-1
 953 1253 l 1,48,-1
 942 1246 l 1,49,-1
 930 1228 l 1,50,-1
 908 1231 l 1,51,-1
 899 1202 l 1,52,-1
 863 1179 l 1,53,-1
 821 1137 l 1,54,-1
 763 1070 l 1,55,-1
 747 1043 l 1,56,-1
 741 1017 l 1,57,-1
 713 974 l 1,58,-1
 711 953 l 1,59,-1
 706 947 l 1,60,-1
 696 946 l 1,61,-1
 701 923 l 1,62,-1
 698 878 l 1,63,-1
 707 821 l 1,64,-1
 699 783 l 1,65,-1
 677 761 l 1,66,-1
 646 752 l 1,67,-1
 623 758 l 1,68,-1
 606 775 l 1,69,-1
 597 814 l 1,70,-1
 594 849 l 1,71,-1
 604 903 l 1,72,-1
 621 943 l 1,73,-1
 643 971 l 1,74,-1
 653 1009 l 1,75,-1
 712 1089 l 1,76,-1
 740 1142 l 1,77,-1
 781 1180 l 1,78,-1
 811 1221 l 1,79,-1
 832 1241 l 1,80,-1
 860 1264 l 1,81,-1
 825 1256 l 1,82,-1
 773 1217 l 1,83,-1
 745 1201 l 1,84,-1
 733 1182 l 1,85,-1
 725 1171 l 1,86,-1
 703 1150 l 1,87,-1
 682 1122 l 1,88,-1
 653 1101 l 1,89,-1
 646 1076 l 1,90,-1
 631 1060 l 1,91,-1
 620 1039 l 1,92,-1
 604 1028 l 1,93,-1
 598 1007 l 1,94,-1
 566 990 l 1,95,-1
 569 971 l 1,96,-1
 530 913 l 1,97,-1
 525 899 l 1,98,-1
 519 877 l 1,99,-1
 496 857 l 1,100,-1
 478 807 l 1,101,-1
 394 675 l 1,102,-1
 385 646 l 1,103,-1
 371 629 l 1,104,-1
 348 554 l 1,105,-1
 337 542 l 1,106,-1
 332 518 l 1,107,-1
 322 505 l 1,108,-1
 309 462 l 1,109,-1
 292 439 l 1,110,-1
 298 422 l 1,111,-1
 288 398 l 1,112,-1
 276 360 l 1,113,-1
 272 319 l 1,114,-1
 261 265 l 1,115,-1
 262 242 l 1,116,-1
 259 219 l 1,117,-1
 265 198 l 1,118,-1
 261 176 l 1,119,-1
 261 173 l 1,120,-1
 266 156 l 1,121,-1
 295 129 l 1,122,-1
 340 116 l 1,123,-1
 427 139 l 1,124,-1
 450 150 l 1,125,-1
 483 182 l 1,126,-1
 516 193 l 1,127,-1
 545 221 l 1,128,-1
 564 227 l 1,129,-1
 582 247 l 1,130,-1
 599 256 l 1,131,-1
 609 275 l 1,132,-1
 627 286 l 1,133,-1
 644 310 l 1,134,-1
 660 311 l 1,0,-1
160 383 m 1,135,-1
 171 404 l 1,136,-1
 168 434 l 1,137,-1
 170 465 l 1,138,-1
 186 492 l 1,139,-1
 184 514 l 1,140,-1
 187 524 l 1,141,-1
 194 533 l 1,142,-1
 211 546 l 1,143,-1
 205 565 l 1,144,-1
 225 591 l 1,145,-1
 224 625 l 1,146,-1
 241 649 l 1,147,-1
 248 675 l 1,148,-1
 255 687 l 1,149,-1
 262 694 l 1,150,-1
 275 699 l 1,151,-1
 274 721 l 1,152,-1
 279 731 l 1,153,-1
 280 747 l 1,154,-1
 307 758 l 1,155,-1
 305 774 l 1,156,-1
 323 792 l 1,157,-1
 318 813 l 1,158,-1
 344 837 l 1,159,-1
 368 876 l 1,160,-1
 379 905 l 1,161,-1
 390 919 l 1,162,-1
 400 924 l 1,163,-1
 415 924 l 1,164,-1
 421 958 l 1,165,-1
 454 998 l 1,166,-1
 470 1021 l 1,167,-1
 488 1033 l 1,168,-1
 508 1068 l 1,169,-1
 523 1075 l 1,170,-1
 540 1087 l 1,171,-1
 544 1101 l 1,172,-1
 561 1116 l 1,173,-1
 582 1143 l 1,174,-1
 597 1154 l 1,175,-1
 609 1182 l 1,176,-1
 631 1188 l 1,177,-1
 643 1206 l 1,178,-1
 696 1256 l 1,179,-1
 707 1264 l 1,180,-1
 732 1271 l 1,181,-1
 746 1291 l 1,182,-1
 757 1300 l 1,183,-1
 764 1316 l 1,184,-1
 787 1320 l 1,185,-1
 835 1354 l 1,186,-1
 838 1355 l 1,187,-1
 857 1357 l 1,188,-1
 870 1355 l 1,189,-1
 879 1349 l 1,190,-1
 892 1328 l 1,191,-1
 902 1305 l 1,192,-1
 930 1326 l 1,193,-1
 956 1328 l 1,194,-1
 973 1336 l 1,195,-1
 1000 1344 l 1,196,-1
 1025 1364 l 1,197,-1
 1064 1357 l 1,198,-1
 1095 1371 l 1,199,-1
 1151 1365 l 1,200,-1
 1196 1363 l 1,201,-1
 1221 1353 l 1,202,-1
 1239 1347 l 1,203,-1
 1253 1335 l 1,204,-1
 1265 1318 l 1,205,-1
 1285 1305 l 1,206,-1
 1295 1287 l 1,207,-1
 1320 1228 l 1,208,-1
 1331 1195 l 1,209,-1
 1331 1194 l 1,210,-1
 1328 1140 l 1,211,-1
 1330 1107 l 1,212,-1
 1317 1083 l 1,213,-1
 1313 1035 l 1,214,-1
 1276 954 l 1,215,-1
 1262 906 l 1,216,-1
 1241 854 l 1,217,-1
 1238 851 l 1,218,-1
 1228 849 l 1,219,-1
 1219 825 l 1,220,-1
 1202 780 l 1,221,-1
 1199 776 l 1,222,-1
 1170 752 l 1,223,-1
 1169 724 l 1,224,-1
 1142 689 l 1,225,-1
 1122 645 l 1,226,-1
 1068 582 l 1,227,-1
 1055 554 l 1,228,-1
 1037 540 l 1,229,-1
 992 472 l 1,230,-1
 965 446 l 1,231,-1
 953 434 l 1,232,-1
 929 421 l 1,233,-1
 927 398 l 1,234,-1
 913 381 l 1,235,-1
 829 308 l 1,236,-1
 787 247 l 1,237,-1
 750 227 l 1,238,-1
 736 210 l 1,239,-1
 716 205 l 1,240,-1
 707 185 l 1,241,-1
 687 177 l 1,242,-1
 659 145 l 1,243,-1
 638 139 l 1,244,-1
 609 119 l 1,245,-1
 574 109 l 1,246,-1
 550 105 l 1,247,-1
 546 91 l 1,248,-1
 520 84 l 1,249,-1
 497 76 l 1,250,-1
 484 60 l 1,251,-1
 457 61 l 1,252,-1
 435 54 l 1,253,-1
 423 55 l 1,254,-1
 413 45 l 1,255,-1
 398 52 l 1,256,-1
 397 52 l 1,257,-1
 384 49 l 1,258,-1
 358 44 l 1,259,-1
 349 45 l 1,260,-1
 304 63 l 1,261,-1
 270 63 l 1,262,-1
 240 90 l 1,263,-1
 200 120 l 1,264,-1
 188 144 l 1,265,-1
 176 163 l 1,266,-1
 172 188 l 1,267,-1
 161 210 l 1,268,-1
 160 250 l 1,269,-1
 154 270 l 1,270,-1
 155 302 l 1,271,-1
 150 340 l 1,272,-1
 150 343 l 1,273,-1
 160 383 l 1,135,-1
EndSplineSet
EndChar

